<?xml version="1.0" standalone="no"?>
<!DOCTYPE svg PUBLIC "-//W3C//DTD SVG 20010904//EN"
 "http://www.w3.org/TR/2001/REC-SVG-20010904/DTD/svg10.dtd">
<svg version="1.0" xmlns="http://www.w3.org/2000/svg"
 width="1754.000000pt" height="1754.000000pt" viewBox="0 0 1754.000000 1754.000000"
 preserveAspectRatio="xMidYMid meet">
<metadata>
Created by potrace 1.11, written by Peter Selinger 2001-2013
</metadata>
<g transform="translate(0.000000,1754.000000) scale(0.100000,-0.100000)"
fill="#000000" stroke="none">
<path d="M3797 13234 c-1 -1 -61 -5 -133 -8 -71 -4 -139 -8 -150 -10 -10 -2
-50 -7 -89 -11 -38 -4 -72 -8 -75 -10 -3 -1 -32 -6 -65 -10 -32 -3 -62 -8 -65
-10 -3 -2 -24 -6 -47 -10 -101 -15 -331 -77 -493 -132 -793 -272 -1504 -856
-1904 -1563 -32 -57 -144 -281 -166 -335 -5 -11 -18 -40 -29 -65 -89 -204
-189 -586 -216 -825 -3 -27 -8 -59 -10 -70 -23 -114 -23 -685 0 -775 2 -8 7
-40 10 -70 6 -52 19 -133 30 -190 3 -14 8 -38 10 -55 3 -16 13 -59 21 -95 129
-535 356 -990 706 -1412 471 -571 1177 -996 1888 -1138 251 -50 400 -64 665
-64 567 1 909 40 1126 128 14 6 14 1 4 -51 -32 -159 33 -298 172 -368 53 -27
68 -30 168 -32 201 -2 350 52 471 172 114 113 162 245 168 460 3 107 7 132 40
230 21 61 58 160 83 220 24 61 54 133 65 160 17 43 73 172 141 325 48 110 340
693 383 765 100 169 235 372 278 416 102 105 199 75 306 -99 50 -80 431 -657
470 -712 374 -519 683 -745 1028 -751 67 -1 77 -4 103 -30 72 -70 150 -77 236
-20 72 47 99 74 206 211 54 69 103 132 110 140 145 185 295 318 365 324 81 8
115 -31 148 -165 61 -252 109 -377 176 -450 133 -144 368 -211 585 -165 136
28 360 125 518 224 l50 31 14 -32 c56 -130 108 -193 185 -228 56 -24 105 -32
226 -32 135 -1 209 7 335 37 123 30 268 88 545 219 52 25 96 44 98 43 1 -2 -9
-45 -22 -97 -26 -104 -23 -137 18 -178 33 -33 115 -40 188 -16 146 47 247 118
343 240 80 102 295 343 361 404 79 75 140 105 194 98 48 -6 72 -27 127 -112
104 -159 257 -366 293 -398 146 -124 389 -135 655 -29 l50 20 0 -91 c1 -101
13 -136 66 -188 132 -129 331 -143 589 -43 169 66 365 173 495 269 189 140
313 332 363 565 16 74 17 94 7 155 -19 106 -74 209 -161 301 -62 65 -110 95
-204 127 -140 48 -281 57 -376 25 -161 -54 -330 -248 -589 -677 -91 -152 -67
-135 -265 -180 -150 -34 -246 -31 -319 9 -57 30 -127 111 -203 234 -187 301
-249 381 -324 412 -53 23 -134 20 -187 -6 -35 -18 -210 -147 -282 -208 -11 -9
-56 -46 -100 -82 -44 -35 -109 -89 -145 -119 -91 -77 -104 -87 -98 -76 4 6 9
64 13 130 4 66 9 123 10 126 6 8 20 228 18 281 -3 110 -44 156 -130 143 -38
-6 -48 -12 -72 -50 -24 -37 -105 -286 -216 -658 -20 -67 -32 -90 -48 -97 -330
-135 -736 -252 -877 -254 -68 -1 -79 2 -119 29 -66 45 -83 84 -78 176 3 68 9
88 62 195 169 347 175 368 134 428 -27 40 -56 56 -104 56 -77 0 -103 -23 -206
-180 -148 -226 -241 -389 -254 -448 -5 -22 -19 -32 -83 -59 -42 -17 -120 -51
-172 -74 -185 -81 -279 -104 -415 -103 -65 0 -90 5 -135 27 -72 34 -127 89
-155 153 -23 51 -58 182 -69 257 -35 229 -95 348 -211 419 -93 56 -188 61
-300 16 -86 -35 -152 -84 -296 -218 -129 -122 -139 -129 -160 -130 -21 0 -29
20 -23 57 2 15 6 44 9 63 7 41 86 298 120 385 12 33 46 132 75 220 153 468
322 838 638 1395 133 234 229 378 339 508 123 145 145 178 150 226 4 34 1 45
-19 64 -14 12 -39 26 -56 31 -60 18 -146 -47 -252 -188 -14 -18 -30 -38 -35
-44 -27 -31 -125 -184 -257 -397 -197 -320 -233 -384 -386 -690 -60 -118 -123
-249 -142 -290 -80 -179 -124 -283 -172 -400 -27 -69 -56 -138 -63 -155 -104
-239 -300 -822 -349 -1039 -7 -28 -8 -28 -59 -23 -181 18 -372 150 -558 387
-33 41 -63 80 -68 86 -53 66 -295 439 -368 569 -84 146 -86 165 -25 180 15 4
41 12 57 20 17 7 46 18 65 25 112 41 377 161 482 219 197 109 230 130 338 210
54 40 180 169 232 237 80 105 145 241 163 344 3 18 7 36 9 39 11 18 19 120 19
221 -1 84 -7 136 -22 195 -19 70 -72 192 -100 227 -101 130 -230 218 -381 261
-72 20 -190 35 -292 36 -56 1 -56 1 -69 39 -20 63 -58 131 -80 142 -11 6 -46
15 -77 21 -31 5 -66 11 -77 13 -98 19 -213 28 -340 28 l-111 0 -32 72 c-30 66
-32 77 -23 117 11 46 8 397 -4 459 -11 56 -45 128 -69 143 -34 22 -74 12 -179
-43 l-99 -52 -16 23 c-78 112 -324 373 -470 499 -393 340 -915 608 -1402 720
-52 12 -135 34 -185 47 -124 34 -262 69 -310 78 -43 8 -66 12 -105 20 -14 3
-43 7 -65 10 -22 4 -49 8 -60 9 -11 2 -49 7 -85 11 -36 4 -76 9 -90 11 -41 6
-418 22 -423 18z m255 -112 c5 -5 3 -9 -4 -9 -30 -1 -183 -15 -188 -18 -3 -2
-30 -6 -60 -10 -30 -3 -62 -8 -70 -10 -8 -2 -31 -7 -50 -10 -19 -3 -98 -22
-175 -41 -591 -149 -1119 -448 -1550 -879 -118 -117 -187 -194 -265 -295 -19
-25 -37 -47 -40 -50 -8 -7 -99 -135 -131 -185 -166 -254 -314 -566 -400 -844
-57 -184 -111 -429 -124 -573 -4 -34 -8 -69 -11 -76 -7 -24 -18 -234 -18 -367
0 -122 8 -275 19 -355 22 -171 23 -179 46 -295 70 -353 192 -679 384 -1020 65
-116 220 -339 317 -455 290 -348 623 -621 1011 -830 50 -27 89 -50 85 -50 -36
-1 -459 192 -558 255 -22 14 -43 25 -48 25 -5 0 -26 13 -48 30 -21 16 -44 30
-51 30 -6 0 -13 3 -15 8 -1 4 -27 23 -56 41 -58 37 -207 149 -293 221 -102 85
-355 345 -442 455 -414 520 -656 1121 -714 1770 -15 163 -8 570 11 672 2 10 7
43 11 73 4 30 9 62 10 70 1 8 6 35 10 60 8 47 8 49 24 115 5 22 12 51 14 65 3
14 10 43 16 65 6 22 11 43 11 47 3 23 104 309 140 398 51 123 138 299 192 388
21 34 38 64 38 66 0 9 166 246 218 311 130 163 287 329 421 445 35 30 69 60
75 65 33 32 227 169 331 236 410 262 930 434 1408 466 51 3 93 7 95 8 9 8 416
-5 424 -13z m4183 -2566 c198 -42 345 -175 385 -346 14 -58 17 -184 6 -235 -4
-16 -9 -41 -12 -55 -9 -44 -59 -153 -95 -210 -118 -183 -388 -408 -608 -507
-127 -57 -311 -110 -413 -119 -92 -9 -190 21 -244 74 -59 57 -98 136 -99 199
0 51 21 100 119 278 13 22 36 65 53 96 32 57 86 152 103 179 6 8 51 85 102
170 133 225 189 309 241 362 106 107 288 152 462 114z m7495 -2541 c118 -59
137 -140 75 -317 -55 -162 -172 -288 -343 -373 -183 -91 -281 -93 -330 -6 -40
70 -24 149 66 326 81 160 217 325 305 370 45 23 61 26 122 22 39 -2 85 -12
105 -22z m-10244 -1260 c6 -25 1 -102 -11 -157 -19 -93 -105 -204 -191 -247
-56 -29 -160 -39 -204 -21 -16 7 -30 15 -31 19 0 3 -3 20 -6 36 -14 88 38 180
147 260 41 30 251 130 282 134 4 1 10 -10 14 -24z"/>
<path d="M11770 8924 c-19 -8 -42 -17 -50 -20 -36 -13 -55 -57 -54 -124 1 -98
60 -192 141 -226 44 -19 67 -18 112 6 52 26 76 87 75 190 -1 86 -17 127 -64
160 -38 27 -111 33 -160 14z"/>
<path d="M11404 6801 c-65 -28 -83 -111 -34 -161 69 -70 183 -8 164 89 -11 56
-79 93 -130 72z"/>
<path d="M10850 6635 c-30 -30 -58 -55 -62 -55 -5 0 -8 -31 -8 -70 l0 -70 -43
0 c-34 0 -46 -5 -62 -26 -30 -41 -25 -49 30 -51 28 0 55 -1 62 -2 9 -1 13 -77
15 -298 3 -292 4 -299 26 -339 29 -50 63 -71 129 -79 46 -7 58 -3 142 36 89
43 105 61 80 86 -8 8 -20 7 -45 -3 -56 -24 -102 -18 -134 16 -15 16 -30 44
-34 61 -3 17 -6 141 -6 275 0 188 3 244 13 245 6 0 48 1 92 0 88 0 105 8 105
50 l0 29 -105 0 -105 0 0 125 c0 150 -5 154 -90 70z"/>
<path d="M8655 6438 c-44 -14 -104 -29 -132 -33 -46 -6 -53 -10 -53 -29 0 -17
9 -24 45 -34 34 -9 48 -19 55 -38 6 -14 10 -139 10 -280 l0 -255 -25 -24 c-13
-14 -31 -26 -40 -26 -8 -1 -19 -3 -25 -4 -5 -1 -16 -3 -24 -4 -8 0 -13 -9 -11
-18 2 -10 4 -21 4 -24 1 -4 98 -6 216 -6 l215 0 0 23 c0 20 -6 24 -51 30 -94
13 -94 12 -97 249 -3 205 -3 206 22 250 33 55 80 95 114 95 15 0 45 -11 67
-24 36 -22 42 -23 67 -10 74 39 79 132 8 169 -72 37 -151 1 -230 -105 l-45
-61 -5 93 -5 93 -80 -27z"/>
<path d="M8051 6445 c-79 -22 -168 -73 -226 -130 -50 -49 -101 -124 -110 -162
-2 -10 -9 -38 -15 -63 -6 -25 -9 -72 -6 -105 12 -146 87 -254 216 -314 45 -21
70 -25 140 -25 73 0 93 4 144 28 32 16 87 56 122 90 63 60 64 61 47 83 l-18
23 -29 -25 c-44 -38 -110 -66 -165 -71 -96 -8 -210 57 -256 146 -63 120 -49
306 28 388 73 79 202 83 299 9 70 -53 79 -54 111 -7 52 76 -26 145 -168 148
-33 1 -84 -5 -114 -13z"/>
<path d="M9412 6441 c-97 -36 -178 -109 -234 -211 -90 -163 -56 -393 73 -504
69 -58 123 -79 214 -80 70 -1 88 3 147 31 39 18 90 54 124 87 56 54 57 56 40
75 -17 19 -18 19 -64 -12 -111 -75 -239 -69 -334 17 -45 40 -82 129 -90 215
-4 40 -14 37 154 45 127 7 262 17 288 22 8 1 20 3 27 3 27 2 41 30 36 78 -17
183 -204 298 -381 234z m146 -79 c33 -24 57 -68 67 -124 6 -31 4 -38 -15 -48
-22 -12 -308 -21 -315 -10 -7 11 34 110 59 143 52 68 139 85 204 39z"/>
<path d="M10155 6427 c-104 -43 -209 -110 -224 -143 -24 -54 48 -121 104 -96
15 7 29 28 40 64 10 29 26 65 37 80 39 55 122 56 179 2 30 -29 54 -107 47
-158 -4 -36 -45 -60 -202 -115 -65 -23 -132 -49 -148 -59 -47 -27 -72 -77 -72
-141 1 -114 79 -201 197 -217 47 -7 94 13 187 75 l45 31 17 -34 c19 -37 55
-64 96 -72 19 -4 40 3 75 25 26 17 51 31 55 31 4 0 17 8 30 18 18 14 22 24 17
44 -7 26 -8 26 -40 12 -40 -16 -58 -11 -80 22 -13 20 -16 64 -18 257 -3 210
-5 236 -24 277 -28 61 -78 105 -135 119 -70 17 -96 14 -183 -22z m183 -484
l-3 -138 -53 -27 c-54 -27 -90 -29 -135 -6 -29 15 -57 70 -57 111 0 69 21 92
133 147 56 27 106 50 110 50 4 0 6 -62 5 -137z"/>
<path d="M11468 6444 c-21 -7 -75 -21 -120 -30 -46 -9 -86 -21 -90 -27 -9 -15
2 -37 19 -37 18 0 76 -29 85 -44 12 -18 9 -509 -3 -544 -9 -27 -17 -32 -64
-42 -41 -9 -52 -15 -50 -28 2 -9 4 -20 4 -23 1 -4 92 -6 204 -5 201 1 202 1
205 24 2 12 -1 23 -7 23 -6 1 -15 3 -21 4 -5 1 -19 3 -30 4 -20 1 -70 45 -68
60 0 3 0 158 -1 344 -1 263 -4 337 -13 336 -7 -1 -30 -7 -50 -15z"/>
<path d="M12869 6445 c-127 -46 -227 -147 -271 -272 -66 -190 0 -396 157 -489
55 -32 90 -39 178 -38 84 1 172 43 247 116 55 55 56 57 38 81 -12 16 -16 15
-51 -9 -180 -122 -367 -53 -423 158 -7 29 -14 65 -14 79 0 24 4 26 48 28 132
5 370 21 407 27 48 8 57 22 53 79 -14 175 -206 300 -369 240z m134 -86 c21
-17 44 -47 52 -66 19 -45 19 -102 1 -109 -7 -3 -82 -6 -165 -8 l-152 -2 7 31
c15 74 72 156 122 177 43 17 97 8 135 -23z"/>
<path d="M13547 6443 c-136 -47 -206 -192 -147 -305 31 -61 78 -100 186 -152
53 -26 108 -60 124 -76 80 -81 24 -206 -91 -203 -78 2 -140 54 -191 161 -22
45 -35 62 -45 58 -8 -3 -19 -6 -24 -6 -10 0 -7 -54 10 -159 10 -62 31 -83 101
-101 194 -50 366 15 415 157 20 58 12 136 -18 182 -35 53 -79 85 -172 125
-114 50 -160 85 -172 133 -12 49 2 89 42 121 70 55 184 -2 231 -115 18 -44 28
-50 53 -34 13 8 12 57 -2 111 -2 8 -7 32 -11 52 -10 46 -39 58 -156 64 -62 3
-98 0 -133 -13z"/>
<path d="M11669 6438 c-12 -36 -3 -47 43 -59 72 -17 60 6 328 -644 31 -76 40
-90 61 -93 24 -3 30 9 114 210 207 499 224 527 328 537 4 1 7 12 7 26 l0 25
-162 0 -163 0 -1 -24 c-2 -21 5 -26 42 -35 34 -9 45 -17 50 -36 7 -27 -30
-142 -114 -354 l-49 -124 -32 79 c-18 43 -39 93 -47 111 -8 17 -14 34 -14 38
0 3 -8 25 -19 48 -10 23 -31 79 -47 123 -32 93 -28 107 31 118 29 6 35 11 35
31 l0 25 -195 0 c-107 0 -195 -1 -196 -2z"/>
<path d="M6267 6152 c-14 -3 -17 -15 -16 -73 1 -38 4 -70 8 -70 21 -4 954 -3
959 1 4 3 8 35 8 73 0 65 0 67 -25 67 -138 3 -921 4 -934 2z"/>
<path d="M14303 6152 c-13 -2 -23 -9 -24 -15 -4 -54 -3 -111 3 -120 5 -9 136
-12 488 -12 l480 0 1 40 c0 22 1 55 2 73 2 32 1 32 -43 33 -168 3 -889 3 -907
1z"/>
</g>
</svg>
