<?xml version="1.0" encoding="utf-8"?>
<!-- Generator: Adobe Illustrator 22.0.1, SVG Export Plug-In . SVG Version: 6.00 Build 0)  -->
<svg version="1.1" id="Warstwa_1" xmlns="http://www.w3.org/2000/svg" xmlns:xlink="http://www.w3.org/1999/xlink" x="0px" y="0px"
	 viewBox="0 0 20 12" style="enable-background:new 0 0 20 12;" xml:space="preserve">
<g transform="translate(0,-952.36218)">
	<path style="fill:#1d1c16;stroke:#1d1c16;stroke-width:0.5484;stroke-miterlimit:10;" d="M17.5,958.4c0-0.1-0.1-0.3-0.2-0.4
		l-4.4-4.7c-0.2-0.2-0.5-0.2-0.8,0c-0.2,0.2-0.2,0.6,0,0.8l3.5,3.7H1c-0.3,0-0.5,0.2-0.5,0.5c0,0.3,0.2,0.5,0.5,0.5h14.6l-3.5,3.7
		c-0.2,0.2-0.2,0.6,0,0.8c0.2,0.2,0.6,0.2,0.8,0l4.4-4.7C17.5,958.6,17.5,958.5,17.5,958.4z"/>
</g>
</svg>
