<?xml version="1.0" encoding="utf-8"?>
<!-- Generator: Adobe Illustrator 22.0.1, SVG Export Plug-In . SVG Version: 6.00 Build 0)  -->
<svg version="1.1" id="Warstwa_1" xmlns="http://www.w3.org/2000/svg" xmlns:xlink="http://www.w3.org/1999/xlink" x="0px" y="0px"
	 viewBox="0 0 80 80" style="enable-background:new 0 0 80 80;" xml:space="preserve">
<g>
	<line style="fill:none;stroke:#f9b22c;stroke-width:2;stroke-miterlimit:10;" x1="26" y1="49" x2="20" y2="55"/>
	<path style="fill:none;stroke:#f9b22c;stroke-width:2;stroke-miterlimit:10;" d="M44,49v-8c0-1.1-0.9-2-2-2H19c-1.1,0-2,0.9-2,2v15
		c0,1.1,0.9,2,2,2h23c1.1,0,2-0.9,2-2v-4"/>
	<path style="fill:none;stroke:#f9b22c;stroke-width:2;stroke-miterlimit:10;" d="M41,42l-8,8c-1.2,0.9-3.8,0.9-5,0l-8-8"/>
	<line style="fill:none;stroke:#f9b22c;stroke-width:2;stroke-miterlimit:10;" x1="35" y1="49" x2="41" y2="55"/>
	<line style="fill:none;stroke:#f9b22c;stroke-width:2;stroke-miterlimit:10;" x1="45" y1="33" x2="42" y2="36"/>
	<line style="fill:none;stroke:#f9b22c;stroke-width:2;stroke-miterlimit:10;" x1="36" y1="35" x2="36" y2="39"/>
	<path style="fill:none;stroke:#f9b22c;stroke-width:2;stroke-miterlimit:10;" d="M44,42h17c1.1,0,2-0.9,2-2V25c0-1.1-0.9-2-2-2H38
		c-1.1,0-2,0.9-2,2v8"/>
	<path style="fill:none;stroke:#f9b22c;stroke-width:2;stroke-miterlimit:10;" d="M60,26l-8,8c-1.2,0.9-3.8,0.9-5,0l-8-8"/>
	<line style="fill:none;stroke:#f9b22c;stroke-width:2;stroke-miterlimit:10;" x1="54" y1="33" x2="60" y2="39"/>
	<line style="fill:none;stroke:#fcd48d;stroke-width:2;stroke-miterlimit:10;" x1="39" y1="33" x2="28" y2="33"/>
	<line style="fill:none;stroke:#fcd48d;stroke-width:2;stroke-miterlimit:10;" x1="29" y1="28" x2="19" y2="28"/>
	<line style="fill:none;stroke:#fcd48d;stroke-width:2;stroke-miterlimit:10;" x1="33" y1="23" x2="23" y2="23"/>
	<line style="fill:none;stroke:#fcd48d;stroke-width:2;stroke-miterlimit:10;" x1="48" y1="54" x2="58" y2="54"/>
	<line style="fill:none;stroke:#fcd48d;stroke-width:2;stroke-miterlimit:10;" x1="41" y1="49" x2="51" y2="49"/>
</g>
</svg>
