<?xml version="1.0" encoding="utf-8"?>
<!-- Generator: Adobe Illustrator 22.0.1, SVG Export Plug-In . SVG Version: 6.00 Build 0)  -->
<svg version="1.1" id="Warstwa_1" xmlns="http://www.w3.org/2000/svg" xmlns:xlink="http://www.w3.org/1999/xlink" x="0px" y="0px"
	 viewBox="0 0 80 80" style="enable-background:new 0 0 80 80;" xml:space="preserve">
<g>
	<path style="fill:none;stroke:#fcd48d;stroke-width:2;stroke-miterlimit:10;" d="M58,33V22c0-1.7-1.3-3-3-3H30c-1.7,0-3,1.3-3,3v4"
		/>
	<path style="fill:none;stroke:#fcd48d;stroke-width:2;stroke-miterlimit:10;" d="M43,42h3l5.3,5.3c0.6,0.6,1.7,0.2,1.7-0.7V42h2
		c1.7,0,3-1.3,3-3v-4"/>
	<path style="fill:none;stroke:#f9b22c;stroke-width:2;stroke-miterlimit:10;" d="M20,26h20c1.7,0,3,1.3,3,3v17c0,1.7-1.3,3-3,3
		H27.7l-5,5.2c-0.6,0.7-1.7,0.2-1.7-0.7V49h-1c-1.7,0-3-1.3-3-3V29C17,27.3,18.3,26,20,26z"/>
	<path style="fill:none;stroke:#f9b22c;stroke-width:2;stroke-miterlimit:10;" d="M33,49v4c0,1.7,1.3,3,3,3h11.3l7.1,5.7
		c0.7,0.5,1.6,0.1,1.6-0.8V56h4c1.7,0,3-1.3,3-3V36c0-1.7-1.3-3-3-3H43"/>
	<line style="fill:none;stroke:#f9b22c;stroke-width:2;stroke-miterlimit:10;" x1="33" y1="42" x2="33" y2="47"/>
	<path style="fill:none;stroke:#f9b22c;stroke-width:2;stroke-miterlimit:10;" d="M41,33h-5c-1.7,0-3,1.3-3,3v4"/>
	<path style="fill:none;stroke:#fcd48d;stroke-width:2;stroke-miterlimit:10;" d="M27,28v11c0,1.7,1.3,3,3,3h11"/>
</g>
</svg>
