<?xml version="1.0" encoding="utf-8"?>
<!-- Generator: Adobe Illustrator 22.0.1, SVG Export Plug-In . SVG Version: 6.00 Build 0)  -->
<svg version="1.1" id="Layer_1" xmlns="http://www.w3.org/2000/svg" xmlns:xlink="http://www.w3.org/1999/xlink" x="0px" y="0px"
	 viewBox="0 0 24 24" style="enable-background:new 0 0 24 24;" xml:space="preserve">
<path style="fill:#f9b22c;" d="M11,9.3C11,14.4,7.1,19.8,1,21l-1-2.1c2.2-0.8,4.2-3.7,4.4-5.7C1.9,12.7,0,10.6,0,8
	c0-3.2,2.6-5,5.2-5C8.2,3,11,5.3,11,9.3z M24,9.3c0,5.1-3.9,10.5-10,11.7l-1-2.1c2.2-0.8,4.2-3.7,4.4-5.7C14.9,12.7,13,10.6,13,8
	c0-3.2,2.6-5,5.2-5C21.2,3,24,5.3,24,9.3z"/>
</svg>
