<?xml version="1.0" encoding="utf-8"?>
<!-- Generator: Adobe Illustrator 22.0.1, SVG Export Plug-In . SVG Version: 6.00 Build 0)  -->
<svg version="1.1" id="Layer_1" xmlns="http://www.w3.org/2000/svg" xmlns:xlink="http://www.w3.org/1999/xlink" x="0px" y="0px"
	 viewBox="0 0 24 24" style="enable-background:new 0 0 24 24;" xml:space="preserve">
<path style="fill:#f9b22c;" d="M13,14.7C13,9.6,16.9,4.2,23,3l1,2.1c-2.2,0.8-4.2,3.7-4.4,5.7c2.5,0.4,4.4,2.5,4.4,5.1
	c0,3.2-2.6,5-5.2,5C15.8,21,13,18.7,13,14.7z M0,14.7C0,9.6,3.9,4.2,10,3l1,2.1C8.8,6,6.8,8.9,6.6,10.9C9.1,11.3,11,13.4,11,16
	c0,3.2-2.6,5-5.2,5C2.8,21,0,18.7,0,14.7z"/>
</svg>
