<?xml version="1.0" encoding="utf-8"?>
<!-- Generator: Adobe Illustrator 22.0.1, SVG Export Plug-In . SVG Version: 6.00 Build 0)  -->
<svg version="1.1" id="Warstwa_1" xmlns="http://www.w3.org/2000/svg" xmlns:xlink="http://www.w3.org/1999/xlink" x="0px" y="0px"
	 viewBox="0 0 14 20" enable-background="new 0 0 14 20" xml:space="preserve">
<path fill="#f9b22c" d="M10,1.7c0.9,0,1.7,0.7,1.7,1.7v10c0,2.8-2.2,5-5,5c-2.8,0-5-2.2-5-5v-10c0-0.9,0.7-1.7,1.7-1.7H10z
	 M13.3,3.3C13.3,1.5,11.8,0,10,0H3.3C1.5,0,0,1.5,0,3.3v10C0,17,3,20,6.7,20c3.7,0,6.7-3,6.7-6.7V3.3z M7.5,4.2
	c0-0.5-0.4-0.8-0.8-0.8c-0.5,0-0.8,0.4-0.8,0.8v3.3c0,0.5,0.4,0.8,0.8,0.8c0.5,0,0.8-0.4,0.8-0.8V4.2z"/>
</svg>
