<?xml version="1.0" encoding="utf-8"?>
<!-- Generator: Adobe Illustrator 22.0.1, SVG Export Plug-In . SVG Version: 6.00 Build 0)  -->
<svg version="1.1" id="Layer_1" xmlns="http://www.w3.org/2000/svg" xmlns:xlink="http://www.w3.org/1999/xlink" x="0px" y="0px"
	 viewBox="0 0 6000 4500" style="enable-background:new 0 0 6000 4500;" xml:space="preserve">
<g>
	<path style="fill:#3A547A;" d="M4784,2030.6c-6.6,0.8-11.3,6.7-10.6,13.3c2.4,20.6,4.4,41.6,6.1,62.3c0.5,6.3,5.8,11,11.9,11
		c0.3,0,0.6,0,1,0c6.6-0.5,11.5-6.3,11-12.9c-1.7-21-3.7-42.2-6.1-63.1C4796.5,2034.6,4790.6,2029.8,4784,2030.6z"/>
	<path style="fill:#3A547A;" d="M2094,3788.6c-17.9-10.6-35.9-21.6-53.4-32.8c-5.6-3.6-13-1.9-16.6,3.7c-3.6,5.6-1.9,13,3.7,16.6
		c17.8,11.3,36,22.5,54.1,33.2c1.9,1.1,4,1.7,6.1,1.7c4.1,0,8.1-2.1,10.3-5.9C2101.6,3799.3,2099.7,3791.9,2094,3788.6z"/>
	<path style="fill:#3A547A;" d="M4727.5,1798.1c5.2,20.1,10.2,40.5,14.7,60.8c1.2,5.6,6.2,9.4,11.7,9.4c0.9,0,1.7-0.1,2.6-0.3
		c6.5-1.4,10.5-7.9,9.1-14.3c-4.6-20.5-9.6-41.3-14.9-61.6c-1.7-6.4-8.2-10.3-14.6-8.6C4729.7,1785.1,4725.8,1791.7,4727.5,1798.1z"
		/>
	<path style="fill:#3A547A;" d="M1735.7,989.6c14.7-14.7,29.8-29.3,44.9-43.5c4.8-4.5,5.1-12.1,0.6-17c-4.5-4.8-12.1-5.1-17-0.6
		c-15.4,14.4-30.7,29.2-45.5,44.1c-4.7,4.7-4.7,12.3,0,17c2.3,2.3,5.4,3.5,8.5,3.5C1730.3,993.2,1733.4,992,1735.7,989.6z"/>
	<path style="fill:#3A547A;" d="M4754.8,1920.2c3.8,20.4,7.3,41.2,10.4,61.7c0.9,5.9,6,10.2,11.9,10.2c0.6,0,1.2,0,1.8-0.1
		c6.6-1,11.1-7.1,10.1-13.7c-3.1-20.8-6.7-41.8-10.5-62.5c-1.2-6.5-7.5-10.8-14-9.6C4757.9,1907.4,4753.6,1913.7,4754.8,1920.2z"/>
	<path style="fill:#3A547A;" d="M1974.6,788.5c5.4-3.8,6.7-11.3,2.9-16.7c-3.8-5.4-11.3-6.7-16.7-2.9
		c-17.2,12.1-34.4,24.6-51.2,37.3c-5.3,4-6.3,11.5-2.3,16.8c2.4,3.1,5.9,4.8,9.6,4.8c2.5,0,5.1-0.8,7.2-2.4
		C1940.6,812.8,1957.6,800.4,1974.6,788.5z"/>
	<path style="fill:#3A547A;" d="M1747.5,3522.1c-4.7-4.7-12.3-4.6-17,0.1c-4.6,4.7-4.6,12.3,0.1,17c15,14.8,30.5,29.5,45.9,43.7
		c2.3,2.1,5.2,3.2,8.1,3.2c3.2,0,6.5-1.3,8.8-3.9c4.5-4.9,4.2-12.5-0.7-17C1777.5,3551.1,1762.3,3536.6,1747.5,3522.1z"/>
	<path style="fill:#3A547A;" d="M1874.9,863.9c5.1-4.2,5.9-11.7,1.7-16.9c-4.2-5.1-11.7-5.9-16.9-1.7c-16.3,13.3-32.6,27-48.5,40.8
		c-5,4.4-5.5,11.9-1.2,16.9c2.4,2.7,5.7,4.1,9,4.1c2.8,0,5.6-1,7.9-3C1842.7,890.6,1858.8,877,1874.9,863.9z"/>
	<path style="fill:#3A547A;" d="M1988.5,3721.2c-17.1-11.8-34.3-24-50.9-36.4c-5.3-4-12.8-2.8-16.8,2.5c-3.9,5.3-2.8,12.8,2.5,16.8
		c16.9,12.5,34.3,25,51.6,36.9c2.1,1.4,4.4,2.1,6.8,2.1c3.8,0,7.6-1.8,9.9-5.2C1995.3,3732.4,1993.9,3724.9,1988.5,3721.2z"/>
	<path style="fill:#3A547A;" d="M4691.7,1678.3c6.6,19.6,13,39.7,19,59.6c1.6,5.2,6.3,8.6,11.5,8.6c1.1,0,2.3-0.2,3.4-0.5
		c6.3-1.9,10-8.6,8.1-14.9c-6-20.2-12.5-40.5-19.2-60.4c-2.1-6.3-8.9-9.6-15.2-7.5C4692.9,1665.2,4689.6,1672,4691.7,1678.3z"/>
	<path style="fill:#3A547A;" d="M1887.9,3646.6c-16.2-12.9-32.5-26.4-48.3-39.9c-5-4.3-12.6-3.7-16.9,1.3c-4.3,5-3.7,12.6,1.3,16.9
		c16,13.7,32.4,27.3,48.9,40.4c2.2,1.8,4.9,2.6,7.5,2.6c3.5,0,7-1.5,9.4-4.5C1893.9,3658.3,1893.1,3650.7,1887.9,3646.6z"/>
	<path style="fill:#3A547A;" d="M2079.2,720.3c5.7-3.4,7.5-10.8,4.1-16.5s-10.8-7.5-16.5-4.1c-18,10.8-36,22.2-53.6,33.6
		c-5.6,3.6-7.1,11.1-3.5,16.6c2.3,3.5,6.1,5.4,10.1,5.4c2.2,0,4.5-0.6,6.5-1.9C2043.7,742.1,2061.5,731,2079.2,720.3z"/>
	<path style="fill:#3A547A;" d="M2435.8,3944.2c-19.8-6.6-39.7-13.6-59.2-20.9c-6.2-2.3-13.1,0.8-15.4,7.1
		c-2.3,6.2,0.8,13.1,7.1,15.4c19.8,7.4,39.9,14.5,60,21.2c1.3,0.4,2.5,0.6,3.8,0.6c5,0,9.7-3.2,11.4-8.2
		C2445.5,3953.1,2442.1,3946.3,2435.8,3944.2z"/>
	<path style="fill:#3A547A;" d="M2425.4,546.6c-2.2-6.3-9-9.6-15.3-7.4c-19.9,6.9-39.9,14.2-59.6,21.7c-6.2,2.4-9.3,9.3-6.9,15.5
		c1.8,4.8,6.4,7.7,11.2,7.7c1.4,0,2.9-0.3,4.3-0.8c19.4-7.5,39.1-14.7,58.8-21.4C2424.2,559.7,2427.5,552.9,2425.4,546.6z"/>
	<path style="fill:#3A547A;" d="M2318.2,3900.4c-19.2-8-38.6-16.4-57.5-25c-6-2.7-13.1-0.1-15.9,5.9c-2.7,6-0.1,13.1,5.9,15.9
		c19.2,8.7,38.8,17.3,58.3,25.3c1.5,0.6,3.1,0.9,4.6,0.9c4.7,0,9.2-2.8,11.1-7.4C2327.3,3909.9,2324.3,3902.9,2318.2,3900.4z"/>
	<path style="fill:#3A547A;" d="M2546,510.6c-1.7-6.4-8.3-10.2-14.7-8.5c-20.3,5.4-40.8,11.3-61,17.5c-6.3,1.9-9.9,8.6-8,15
		c1.6,5.2,6.3,8.5,11.5,8.5c1.2,0,2.3-0.2,3.5-0.5c19.9-6.1,40.1-11.9,60.1-17.2C2544,523.6,2547.8,517,2546,510.6z"/>
	<path style="fill:#3A547A;" d="M2555.8,3979.5c-20.1-5.2-40.4-10.7-60.3-16.6c-6.4-1.9-13,1.8-14.9,8.1c-1.9,6.4,1.8,13,8.1,14.9
		c20.2,5.9,40.7,11.6,61.1,16.8c1,0.3,2,0.4,3,0.4c5.3,0,10.2-3.6,11.6-9C2566.1,3987.7,2562.2,3981.1,2555.8,3979.5z"/>
	<path style="fill:#3A547A;" d="M2188.3,659.6c5.9-3,8.2-10.2,5.2-16.1c-3-5.9-10.2-8.2-16.1-5.2c-18.7,9.6-37.5,19.6-55.8,29.8
		c-5.8,3.2-7.9,10.5-4.7,16.3c2.2,3.9,6.3,6.2,10.5,6.2c2,0,4-0.5,5.8-1.5C2151.3,678.9,2169.9,669,2188.3,659.6z"/>
	<path style="fill:#3A547A;" d="M2301.3,606.7c6.1-2.6,8.9-9.6,6.3-15.7c-2.6-6.1-9.6-8.9-15.7-6.3c-19.3,8.2-38.7,16.9-57.7,25.8
		c-6,2.8-8.6,10-5.8,16c2,4.4,6.4,6.9,10.9,6.9c1.7,0,3.4-0.4,5.1-1.1C2263.1,623.4,2282.3,614.8,2301.3,606.7z"/>
	<path style="fill:#3A547A;" d="M4670.6,1619.4c1.8,4.8,6.4,7.8,11.2,7.8c1.4,0,2.8-0.2,4.2-0.8c6.2-2.3,9.3-9.3,7-15.5
		c-7.4-19.6-15.3-39.4-23.4-58.7c-2.6-6.1-9.6-9-15.7-6.4c-6.1,2.6-9,9.6-6.4,15.7C4655.6,1580.5,4663.3,1600,4670.6,1619.4z"/>
	<path style="fill:#3A547A;" d="M4622.5,1504.3c2,4.4,6.4,7,10.9,7c1.7,0,3.4-0.4,5-1.1c6-2.8,8.7-9.9,5.9-15.9
		c-8.8-19.1-18-38.2-27.5-57c-3-5.9-10.2-8.3-16.1-5.3c-5.9,3-8.3,10.2-5.3,16.1C4604.7,1466.6,4613.8,1485.5,4622.5,1504.3z"/>
	<path style="fill:#3A547A;" d="M2204.1,3848.4c-18.6-9.3-37.3-19-55.6-29c-5.8-3.2-13.1-1-16.3,4.8c-3.2,5.8-1,13.1,4.8,16.3
		c18.5,10.1,37.5,19.9,56.3,29.4c1.7,0.9,3.5,1.3,5.3,1.3c4.4,0,8.6-2.4,10.7-6.6C2212.5,3858.6,2210.1,3851.4,2204.1,3848.4z"/>
	<path style="fill:#3A547A;" d="M1582,3334.7c-4-5.3-11.6-6.3-16.8-2.2c-5.3,4-6.3,11.6-2.2,16.8c12.8,16.7,26,33.4,39.4,49.6
		c2.4,2.9,5.8,4.4,9.3,4.4c2.7,0,5.4-0.9,7.6-2.7c5.1-4.2,5.9-11.8,1.6-16.9C1607.7,3367.6,1594.6,3351.2,1582,3334.7z"/>
	<path style="fill:#3A547A;" d="M1218.8,2491.3c6.6-0.8,11.2-6.8,10.4-13.4c-2.6-20.6-4.9-41.5-6.8-62.2c-0.6-6.6-6.4-11.5-13-10.8
		c-6.6,0.6-11.5,6.4-10.9,13c1.9,21,4.3,42.2,6.9,63c0.8,6.1,5.9,10.5,11.9,10.5C1217.8,2491.4,1218.3,2491.4,1218.8,2491.3z"/>
	<path style="fill:#3A547A;" d="M1202.8,2240.1c0,0,0.1,0,0.1,0c6.6,0,11.9-5.3,12-11.9c0.2-20.8,0.9-41.8,1.8-62.5
		c0.3-6.6-4.8-12.2-11.4-12.5c-6.6-0.3-12.2,4.8-12.5,11.4c-1,21-1.6,42.3-1.9,63.4C1190.9,2234.5,1196.2,2240,1202.8,2240.1z"/>
	<path style="fill:#3A547A;" d="M1206.4,2366c6.6-0.4,11.7-6,11.3-12.7c-1.2-20.7-2-41.7-2.5-62.5c-0.1-6.6-5.7-11.9-12.3-11.7
		c-6.6,0.1-11.9,5.6-11.7,12.3c0.5,21.1,1.3,42.4,2.5,63.4c0.4,6.4,5.7,11.3,12,11.3C1206,2366,1206.2,2366,1206.4,2366z"/>
	<path style="fill:#3A547A;" d="M1249.4,2601.3c-4.1-20.3-7.8-41.1-11.2-61.6c-1.1-6.5-7.2-11-13.8-9.9c-6.5,1.1-11,7.2-9.9,13.8
		c3.4,20.8,7.2,41.8,11.3,62.4c1.1,5.7,6.1,9.7,11.8,9.7c0.8,0,1.6-0.1,2.4-0.2C1246.4,2614.2,1250.7,2607.8,1249.4,2601.3z"/>
	<path style="fill:#3A547A;" d="M1278.1,2723.1c-5.5-20-10.7-40.4-15.5-60.6c-1.5-6.4-8-10.4-14.4-8.9c-6.4,1.5-10.4,8-8.9,14.4
		c4.8,20.5,10.1,41.1,15.7,61.4c1.5,5.3,6.3,8.8,11.6,8.8c1,0,2.1-0.1,3.2-0.4C1276.1,2736.1,1279.9,2729.5,1278.1,2723.1z"/>
	<path style="fill:#3A547A;" d="M1275.2,1743.1c1.2,0.3,2.3,0.5,3.5,0.5c5.2,0,9.9-3.4,11.5-8.5c6-19.9,12.4-40,19.1-59.8
		c2.1-6.3-1.2-13.1-7.5-15.2c-6.3-2.1-13.1,1.2-15.2,7.5c-6.8,20-13.3,40.4-19.4,60.6C1265.3,1734.5,1268.9,1741.2,1275.2,1743.1z"
		/>
	<path style="fill:#3A547A;" d="M1315.5,2842.5c-6.9-19.6-13.5-39.6-19.7-59.4c-2-6.3-8.7-9.9-15-7.9c-6.3,2-9.9,8.7-7.9,15
		c6.3,20.1,13,40.3,20,60.2c1.7,4.9,6.4,8,11.3,8c1.3,0,2.7-0.2,4-0.7C1314.4,2855.6,1317.7,2848.7,1315.5,2842.5z"/>
	<path style="fill:#3A547A;" d="M1207.8,2114.2c0.3,0,0.7,0,1,0c6.2,0,11.4-4.8,11.9-11c1.7-20.7,3.8-41.6,6.2-62.3
		c0.8-6.6-3.9-12.5-10.5-13.3c-6.6-0.8-12.5,3.9-13.3,10.5c-2.4,20.9-4.5,42.1-6.2,63.1C1196.3,2107.9,1201.2,2113.7,1207.8,2114.2z
		"/>
	<path style="fill:#3A547A;" d="M1244.1,1865.1c0.9,0.2,1.8,0.3,2.6,0.3c5.5,0,10.4-3.8,11.7-9.4c4.6-20.3,9.5-40.7,14.8-60.8
		c1.7-6.4-2.1-13-8.6-14.7c-6.4-1.7-13,2.1-14.7,8.6c-5.3,20.3-10.4,41.1-15,61.6C1233.5,1857.2,1237.6,1863.7,1244.1,1865.1z"/>
	<path style="fill:#3A547A;" d="M1221.6,1989c0.6,0.1,1.2,0.1,1.8,0.1c5.8,0,10.9-4.3,11.8-10.2c3.1-20.5,6.7-41.3,10.5-61.7
		c1.2-6.5-3.1-12.8-9.6-14c-6.5-1.2-12.8,3.1-14,9.6c-3.9,20.7-7.5,41.7-10.6,62.5C1210.5,1981.9,1215,1988,1221.6,1989z"/>
	<path style="fill:#3A547A;" d="M1444.3,3126.4c-3.3-5.8-10.6-7.8-16.3-4.5c-5.8,3.3-7.8,10.6-4.6,16.3
		c10.3,18.3,21.1,36.6,32.1,54.6c2.3,3.7,6.2,5.7,10.2,5.7c2.1,0,4.3-0.6,6.2-1.8c5.7-3.5,7.4-10.8,4-16.5
		C1465.2,3162.5,1454.5,3144.4,1444.3,3126.4z"/>
	<path style="fill:#3A547A;" d="M1571.9,1178.7c12.5-16.6,25.4-33.2,38.5-49.4c4.2-5.2,3.4-12.7-1.8-16.9
		c-5.2-4.2-12.7-3.4-16.9,1.8c-13.2,16.4-26.3,33.2-39,50c-4,5.3-2.9,12.8,2.4,16.8c2.2,1.6,4.7,2.4,7.2,2.4
		C1565.9,1183.5,1569.5,1181.8,1571.9,1178.7z"/>
	<path style="fill:#3A547A;" d="M1509.5,3232.9c-3.7-5.5-11.1-7.1-16.6-3.4c-5.5,3.7-7.1,11.1-3.4,16.6
		c11.6,17.5,23.6,35.1,35.8,52.2c2.3,3.3,6,5,9.8,5c2.4,0,4.8-0.7,7-2.2c5.4-3.8,6.7-11.3,2.8-16.7
		C1532.8,3267.5,1520.9,3250.2,1509.5,3232.9z"/>
	<path style="fill:#3A547A;" d="M1650.5,1081.3c13.6-15.7,27.7-31.4,41.8-46.6c4.5-4.9,4.2-12.4-0.6-17c-4.9-4.5-12.4-4.2-17,0.6
		c-14.3,15.4-28.6,31.3-42.4,47.2c-4.3,5-3.8,12.6,1.2,16.9c2.3,2,5.1,2.9,7.9,2.9C1644.8,1085.4,1648.1,1084,1650.5,1081.3z"/>
	<path style="fill:#3A547A;" d="M1315.1,1623.2c1.4,0.5,2.8,0.8,4.3,0.8c4.8,0,9.4-2.9,11.2-7.7c7.4-19.4,15.2-39,23.3-58.2
		c2.6-6.1-0.3-13.1-6.4-15.7c-6.1-2.6-13.1,0.3-15.7,6.4c-8.2,19.4-16.1,39.3-23.6,59C1305.8,1613.9,1308.9,1620.8,1315.1,1623.2z"
		/>
	<path style="fill:#3A547A;" d="M1500.2,1281.4c11.3-17.4,23-34.9,34.9-52c3.8-5.4,2.5-12.9-3-16.7c-5.4-3.8-12.9-2.5-16.7,3
		c-12.1,17.3-24,35-35.4,52.7c-3.6,5.6-2,13,3.6,16.6c2,1.3,4.3,1.9,6.5,1.9C1494,1286.8,1497.9,1284.9,1500.2,1281.4z"/>
	<path style="fill:#3A547A;" d="M1435.9,1388.9c10-18.2,20.5-36.5,31.2-54.3c3.4-5.7,1.6-13.1-4.1-16.5c-5.7-3.4-13.1-1.6-16.5,4.1
		c-10.8,18.1-21.5,36.6-31.6,55.1c-3.2,5.8-1.1,13.1,4.7,16.3c1.8,1,3.8,1.5,5.8,1.5C1429.6,1395.1,1433.7,1392.8,1435.9,1388.9z"/>
	<path style="fill:#3A547A;" d="M1379.2,1500.7c8.7-18.9,17.9-37.8,27.3-56.4c3-5.9,0.6-13.1-5.3-16.1c-5.9-3-13.1-0.6-16.1,5.3
		c-9.5,18.8-18.9,38-27.7,57.2c-2.8,6-0.2,13.1,5.8,15.9c1.6,0.8,3.3,1.1,5,1.1C1372.8,1507.6,1377.2,1505,1379.2,1500.7z"/>
	<path style="fill:#3A547A;" d="M1661.5,3431.3c-4.4-5-12-5.4-16.9-1.1c-5,4.4-5.4,12-1.1,16.9c13.9,15.8,28.3,31.5,42.8,46.8
		c2.4,2.5,5.5,3.7,8.7,3.7c3,0,5.9-1.1,8.2-3.3c4.8-4.6,5-12.2,0.5-17C1689.4,3462.3,1675.2,3446.8,1661.5,3431.3z"/>
	<path style="fill:#3A547A;" d="M1386.8,3015.6c-2.8-6-10-8.5-16-5.7c-6,2.8-8.5,10-5.7,16c9,19,18.5,38,28.2,56.6
		c2.1,4.1,6.3,6.5,10.7,6.5c1.9,0,3.8-0.4,5.5-1.4c5.9-3.1,8.2-10.3,5.1-16.2C1405.1,3053.1,1395.7,3034.3,1386.8,3015.6z"/>
	<path style="fill:#3A547A;" d="M1337.3,2901.1c-2.4-6.2-9.4-9.2-15.6-6.8c-6.2,2.4-9.2,9.4-6.8,15.6c7.7,19.5,15.8,39.2,24.1,58.4
		c2,4.5,6.4,7.2,11,7.2c1.6,0,3.2-0.3,4.8-1c6.1-2.6,8.9-9.7,6.2-15.8C1352.8,2939.8,1344.8,2920.4,1337.3,2901.1z"/>
	<path style="fill:#3A547A;" d="M2793.5,464.5c-0.8-6.6-6.8-11.3-13.4-10.5c-20.9,2.5-42,5.5-62.8,8.7c-6.5,1-11,7.2-10,13.7
		c0.9,5.9,6,10.1,11.8,10.1c0.6,0,1.2,0,1.9-0.1c20.5-3.2,41.3-6.1,62-8.6C2789.6,477,2794.3,471.1,2793.5,464.5z"/>
	<path style="fill:#3A547A;" d="M3992,3734.5c-17.2,11.5-34.9,22.9-52.5,33.8c-5.6,3.5-7.4,10.9-3.9,16.5c2.3,3.7,6.2,5.7,10.2,5.7
		c2.2,0,4.3-0.6,6.3-1.8c17.8-11.1,35.7-22.6,53.2-34.3c5.5-3.7,7-11.1,3.3-16.6C4004.9,3732.2,3997.5,3730.8,3992,3734.5z"/>
	<path style="fill:#3A547A;" d="M4362.1,1089.5c2.8,0,5.6-1,7.8-2.9c5-4.3,5.6-11.9,1.3-16.9c-13.7-15.9-27.9-31.8-42.2-47.3
		c-4.5-4.9-12.1-5.2-17-0.7c-4.9,4.5-5.2,12.1-0.7,17c14.1,15.2,28.1,30.9,41.6,46.7C4355.4,1088.1,4358.7,1089.5,4362.1,1089.5z"/>
	<path style="fill:#3A547A;" d="M4458,3301.1c-5.3-3.9-12.9-2.8-16.8,2.6c-12.3,16.8-25,33.5-37.9,49.9c-4.1,5.2-3.2,12.8,2,16.9
		c2.2,1.7,4.8,2.6,7.4,2.6c3.6,0,7.1-1.6,9.4-4.6c13-16.5,25.9-33.5,38.4-50.5C4464.5,3312.5,4463.3,3305,4458,3301.1z"/>
	<path style="fill:#3A547A;" d="M4279.7,3494.7c-14.5,14.9-29.4,29.7-44.4,44.1c-4.8,4.6-4.9,12.2-0.4,17c2.4,2.5,5.5,3.7,8.7,3.7
		c3,0,6-1.1,8.3-3.3c15.2-14.6,30.3-29.6,45-44.7c4.6-4.8,4.5-12.3-0.2-17C4291.9,3489.9,4284.3,3490,4279.7,3494.7z"/>
	<path style="fill:#3A547A;" d="M4440.9,1187.6c2.5,0,5-0.8,7.2-2.4c5.3-4,6.4-11.5,2.4-16.8c-12.6-16.8-25.6-33.7-38.8-50.1
		c-4.1-5.2-11.7-6-16.9-1.8c-5.2,4.1-6,11.7-1.8,16.9c13,16.2,25.9,32.8,38.3,49.4C4433.6,1186,4437.2,1187.6,4440.9,1187.6z"/>
	<path style="fill:#3A547A;" d="M4512.6,1291c2.2,0,4.5-0.6,6.5-1.9c5.6-3.6,7.2-11,3.6-16.6c-11.4-17.7-23.2-35.4-35.2-52.6
		c-3.8-5.4-11.3-6.8-16.7-3c-5.4,3.8-6.8,11.3-3,16.7c11.8,17,23.5,34.5,34.7,51.9C4504.8,1289,4508.6,1291,4512.6,1291z"/>
	<path style="fill:#3A547A;" d="M4087.3,830.9c3.6,0,7.2-1.6,9.6-4.7c4-5.3,3-12.8-2.3-16.8c-16.8-12.8-34-25.4-51.2-37.5
		c-5.4-3.8-12.9-2.5-16.7,2.9c-3.8,5.4-2.5,12.9,2.9,16.7c17,12,33.9,24.5,50.5,37C4082.2,830.1,4084.8,830.9,4087.3,830.9z"/>
	<path style="fill:#3A547A;" d="M4268.1,993.5c2.3,2.4,5.4,3.6,8.5,3.6c3.1,0,6.1-1.2,8.4-3.5c4.7-4.7,4.7-12.3,0.1-17
		c-14.8-15-30.1-29.8-45.4-44.3c-4.8-4.5-12.4-4.3-17,0.5c-4.5,4.8-4.3,12.4,0.5,17C4238.4,964,4253.5,978.7,4268.1,993.5z"/>
	<path style="fill:#3A547A;" d="M4093.3,3661.3c-16.4,12.7-33.2,25.3-50,37.4c-5.4,3.9-6.6,11.4-2.7,16.8c2.3,3.3,6,5,9.7,5
		c2.4,0,4.9-0.7,7-2.3c17-12.3,34.1-25.1,50.7-37.9c5.2-4.1,6.2-11.6,2.1-16.8C4106.1,3658.2,4098.6,3657.3,4093.3,3661.3z"/>
	<path style="fill:#3A547A;" d="M4189.4,3581.3c-15.5,13.8-31.4,27.6-47.3,40.9c-5.1,4.2-5.8,11.8-1.5,16.9c2.4,2.8,5.8,4.3,9.2,4.3
		c2.7,0,5.4-0.9,7.7-2.8c16.1-13.4,32.3-27.4,48-41.4c4.9-4.4,5.4-12,0.9-16.9C4201.9,3577.3,4194.3,3576.9,4189.4,3581.3z"/>
	<path style="fill:#3A547A;" d="M4184.9,910.7c3.3,0,6.7-1.4,9-4.1c4.4-5,3.9-12.6-1.1-16.9c-15.8-13.9-32.1-27.7-48.4-41
		c-5.1-4.2-12.7-3.4-16.9,1.7s-3.4,12.7,1.7,16.9c16.1,13.1,32.1,26.8,47.8,40.5C4179.3,909.7,4182.1,910.7,4184.9,910.7z"/>
	<path style="fill:#3A547A;" d="M4380.7,3400.6c-5.1-4.3-12.6-3.6-16.9,1.4c-13.4,15.9-27.3,31.7-41.2,47.1
		c-4.5,4.9-4.1,12.5,0.8,17c2.3,2.1,5.2,3.1,8.1,3.1c3.3,0,6.5-1.3,8.9-3.9c14.1-15.6,28.2-31.6,41.8-47.7
		C4386.4,3412.5,4385.7,3404.9,4380.7,3400.6z"/>
	<path style="fill:#3A547A;" d="M4781.5,2489.2c-6.6-0.9-12.6,3.7-13.5,10.2c-2.9,20.6-6.2,41.4-9.7,61.8
		c-1.1,6.5,3.2,12.7,9.7,13.9c0.7,0.1,1.4,0.2,2.1,0.2c5.7,0,10.8-4.1,11.8-9.9c3.6-20.7,7-41.8,9.9-62.6
		C4792.6,2496.2,4788,2490.1,4781.5,2489.2z"/>
	<path style="fill:#3A547A;" d="M4760.5,2613.4c-6.5-1.4-12.9,2.8-14.2,9.2c-4.3,20.3-9,40.8-14.1,61c-1.6,6.4,2.3,12.9,8.7,14.5
		c1,0.2,2,0.4,2.9,0.4c5.4,0,10.3-3.6,11.6-9.1c5.1-20.4,9.9-41.2,14.3-61.8C4771.1,2621.2,4767,2614.8,4760.5,2613.4z"/>
	<path style="fill:#3A547A;" d="M4793.7,2363.9c-6.6-0.5-12.3,4.5-12.8,11.1c-1.4,20.7-3.3,41.7-5.4,62.3
		c-0.7,6.6,4.1,12.5,10.7,13.2c0.4,0,0.8,0.1,1.3,0.1c6.1,0,11.3-4.6,11.9-10.8c2.2-20.9,4-42.2,5.5-63.2
		C4805.3,2370.1,4800.3,2364.3,4793.7,2363.9z"/>
	<path style="fill:#3A547A;" d="M4730.8,2735.8c-6.4-1.8-13,1.8-14.8,8.2c-5.7,19.9-11.9,40.1-18.3,59.8c-2.1,6.3,1.4,13.1,7.7,15.1
		c1.2,0.4,2.5,0.6,3.7,0.6c5.1,0,9.8-3.2,11.4-8.3c6.5-20,12.8-40.4,18.6-60.6C4740.9,2744.3,4737.2,2737.6,4730.8,2735.8z"/>
	<path style="fill:#3A547A;" d="M2669,483.2c-1.3-6.5-7.6-10.8-14.1-9.5c-20.7,4-41.5,8.4-62,13.1c-6.5,1.5-10.5,7.9-9,14.4
		c1.3,5.6,6.2,9.3,11.7,9.3c0.9,0,1.8-0.1,2.7-0.3c20.2-4.7,40.8-9,61.2-12.9C2666,496,2670.2,489.7,2669,483.2z"/>
	<path style="fill:#3A547A;" d="M4804.5,2240.5c2.8-2.2,4.6-5.7,4.6-9.6c-0.2-21.1-0.8-42.4-1.7-63.4c-0.3-6.6-5.9-11.8-12.5-11.4
		c-6.6,0.3-11.7,5.9-11.4,12.5c0.9,20.7,1.5,41.8,1.7,62.6c0,3.8,1.9,7.2,4.7,9.4c-2.8,2.2-4.6,5.6-4.6,9.4
		c0,20.8-0.4,41.8-1.1,62.6c-0.2,6.6,5,12.2,11.6,12.4c0.1,0,0.3,0,0.4,0c6.4,0,11.8-5.1,12-11.6c0.7-21,1.1-42.3,1.1-63.4
		C4809.2,2246.1,4807.4,2242.7,4804.5,2240.5z"/>
	<path style="fill:#3A547A;" d="M4590.9,3086.9c-5.8-3.1-13.1-0.9-16.2,4.9c-9.8,18.3-20.1,36.7-30.6,54.7
		c-3.3,5.7-1.4,13.1,4.3,16.4c1.9,1.1,4,1.6,6,1.6c4.1,0,8.2-2.1,10.4-6c10.6-18.2,21-36.9,31-55.4
		C4598.9,3097.3,4596.7,3090.1,4590.9,3086.9z"/>
	<path style="fill:#3A547A;" d="M4576.9,1399c2,0,3.9-0.5,5.8-1.5c5.8-3.2,7.9-10.5,4.8-16.3c-10.1-18.4-20.7-36.9-31.4-54.9
		c-3.4-5.7-10.8-7.6-16.4-4.2c-5.7,3.4-7.6,10.8-4.2,16.4c10.6,17.8,21,36.1,31,54.2C4568.5,1396.8,4572.6,1399,4576.9,1399z"/>
	<path style="fill:#3A547A;" d="M4692.5,2856c-6.2-2.3-13.1,0.9-15.4,7.1c-7.1,19.5-14.7,39.2-22.6,58.5c-2.5,6.1,0.5,13.1,6.6,15.6
		c1.5,0.6,3,0.9,4.5,0.9c4.7,0,9.2-2.8,11.1-7.5c7.9-19.5,15.6-39.5,22.9-59.3C4701.9,2865.2,4698.7,2858.3,4692.5,2856z"/>
	<path style="fill:#3A547A;" d="M4645.8,2973.3c-6-2.7-13.1,0-15.9,6c-8.5,19-17.5,38.1-26.6,56.7c-2.9,5.9-0.5,13.1,5.5,16.1
		c1.7,0.8,3.5,1.2,5.3,1.2c4.4,0,8.7-2.5,10.8-6.7c9.3-18.9,18.4-38.3,27-57.5C4654.5,2983.1,4651.8,2976,4645.8,2973.3z"/>
	<path style="fill:#3A547A;" d="M4528.2,3196.4c-5.6-3.5-13-1.8-16.5,3.8c-11.1,17.6-22.6,35.2-34.3,52.4
		c-3.7,5.5-2.3,12.9,3.2,16.7c2.1,1.4,4.4,2.1,6.7,2.1c3.8,0,7.6-1.8,9.9-5.3c11.8-17.4,23.5-35.3,34.8-53.1
		C4535.5,3207.3,4533.8,3199.9,4528.2,3196.4z"/>
	<path style="fill:#3A547A;" d="M3300.5,4010c-20.5,3.5-41.3,6.6-61.8,9.4c-6.6,0.9-11.2,6.9-10.3,13.5c0.8,6,6,10.4,11.9,10.4
		c0.5,0,1.1,0,1.6-0.1c20.9-2.8,41.9-6,62.7-9.5c6.5-1.1,10.9-7.3,9.8-13.8C3313.2,4013.3,3307,4008.9,3300.5,4010z"/>
	<path style="fill:#3A547A;" d="M3052,4034.5c-0.1,0-0.2,0-0.3,0c-17.1,0.5-34.5,0.7-51.6,0.7c-3.6,0-7.3,0-10.9,0c0,0,0,0-0.1,0
		c-6.6,0-12,5.3-12,11.9c0,6.6,5.3,12,11.9,12.1c3.7,0,7.4,0,11.1,0c17.4,0,35-0.2,52.3-0.7c6.6-0.2,11.8-5.7,11.7-12.3
		C3063.8,4039.6,3058.5,4034.5,3052,4034.5z"/>
	<path style="fill:#3A547A;" d="M3283.8,487.1c5.8,0,10.9-4.2,11.8-10.1c1-6.5-3.4-12.7-10-13.7c-20.8-3.3-41.9-6.3-62.8-8.8
		c-6.6-0.8-12.6,3.9-13.4,10.4c-0.8,6.6,3.9,12.6,10.4,13.4c20.6,2.5,41.5,5.5,61.9,8.7C3282.5,487,3283.2,487.1,3283.8,487.1z"/>
	<path style="fill:#3A547A;" d="M3000,464.8c10.9,0,21.9,0.1,32.8,0.3c0.1,0,0.1,0,0.2,0c6.5,0,11.9-5.2,12-11.8
		c0.1-6.6-5.2-12.1-11.8-12.2c-11-0.2-22.2-0.3-33.2-0.3c0,0-0.1,0-0.1,0c-10,0-20.1,0.1-30.1,0.2c-6.6,0.1-11.9,5.6-11.8,12.2
		c0.1,6.6,5.5,11.9,12.2,11.8C2980.1,464.9,2990.1,464.8,3000,464.8C2999.9,464.8,3000,464.8,3000,464.8z"/>
	<path style="fill:#3A547A;" d="M3176.5,4026.6c-20.7,2-41.6,3.7-62.4,5c-6.6,0.4-11.6,6.1-11.2,12.7c0.4,6.4,5.7,11.2,12,11.2
		c0.3,0,0.5,0,0.8,0c21-1.3,42.3-3,63.2-5.1c6.6-0.6,11.4-6.5,10.8-13.1C3189,4030.8,3183.1,4025.9,3176.5,4026.6z"/>
	<path style="fill:#3A547A;" d="M3158.8,471.7c6.2,0,11.4-4.7,11.9-11c0.6-6.6-4.3-12.4-10.9-13c-20.9-1.8-42.2-3.3-63.2-4.4
		c-6.7-0.4-12.3,4.7-12.6,11.4c-0.3,6.6,4.7,12.3,11.4,12.6c20.7,1.1,41.7,2.6,62.4,4.4C3158.1,471.7,3158.4,471.7,3158.8,471.7z"/>
	<path style="fill:#3A547A;" d="M2926.5,4033.7c-20.7-0.8-41.8-2.1-62.5-3.6c-6.6-0.5-12.4,4.5-12.9,11.1
		c-0.5,6.6,4.5,12.4,11.1,12.9c21,1.6,42.3,2.8,63.3,3.7c0.2,0,0.3,0,0.5,0c6.4,0,11.7-5.1,12-11.5
		C2938.3,4039.6,2933.1,4034,2926.5,4033.7z"/>
	<path style="fill:#3A547A;" d="M2801.8,4024.3c-20.6-2.3-41.5-5-62.1-8c-6.6-1-12.7,3.6-13.6,10.1c-1,6.6,3.6,12.7,10.1,13.6
		c20.8,3,42,5.8,62.9,8.1c0.4,0,0.9,0.1,1.3,0.1c6,0,11.2-4.5,11.9-10.7C2813.1,4031,2808.4,4025,2801.8,4024.3z"/>
	<path style="fill:#3A547A;" d="M2678,4006.2c-20.4-3.7-41.1-7.9-61.3-12.3c-6.5-1.4-12.9,2.7-14.3,9.2c-1.4,6.5,2.7,12.9,9.2,14.3
		c20.5,4.5,41.5,8.7,62.2,12.5c0.7,0.1,1.5,0.2,2.2,0.2c5.7,0,10.7-4.1,11.8-9.9C2688.8,4013.7,2684.5,4007.4,2678,4006.2z"/>
	<path style="fill:#3A547A;" d="M2919.1,454.5c-0.3-6.6-6-11.7-12.6-11.4c-21,1.1-42.3,2.5-63.2,4.3c-6.6,0.6-11.5,6.4-10.9,13
		c0.5,6.3,5.8,11,11.9,11c0.3,0,0.7,0,1,0c20.7-1.8,41.7-3.2,62.4-4.3C2914.3,466.8,2919.4,461.2,2919.1,454.5z"/>
	<path style="fill:#3A547A;" d="M3423,3984.8c-20.2,4.9-40.7,9.5-61,13.7c-6.5,1.3-10.7,7.7-9.3,14.2c1.2,5.7,6.2,9.6,11.7,9.6
		c0.8,0,1.6-0.1,2.4-0.2c20.6-4.2,41.4-8.9,61.9-13.9c6.4-1.6,10.4-8.1,8.8-14.5C3435.9,3987.2,3429.5,3983.2,3423,3984.8z"/>
	<path style="fill:#3A547A;" d="M3407.4,511.2c5.5,0,10.4-3.7,11.7-9.3c1.5-6.5-2.5-12.9-9-14.4c-20.5-4.7-41.4-9.2-62-13.2
		c-6.5-1.3-12.8,3-14.1,9.5c-1.3,6.5,3,12.8,9.5,14.1c20.4,4,41,8.4,61.2,13C3405.6,511.1,3406.5,511.2,3407.4,511.2z"/>
	<path style="fill:#3A547A;" d="M3775.4,3858.5c-18.7,9-37.7,17.8-56.7,26.1c-6.1,2.7-8.8,9.8-6.1,15.8c2,4.5,6.4,7.2,11,7.2
		c1.6,0,3.3-0.3,4.8-1c19.2-8.5,38.5-17.4,57.4-26.5c6-2.9,8.5-10.1,5.6-16C3788.5,3858.1,3781.3,3855.6,3775.4,3858.5z"/>
	<path style="fill:#3A547A;" d="M3764.4,635c4.5,0,8.8-2.5,10.9-6.9c2.8-6,0.2-13.1-5.7-16c-19.1-9-38.6-17.7-58-26
		c-6.1-2.6-13.1,0.2-15.8,6.3c-2.6,6.1,0.2,13.1,6.3,15.8c19.1,8.2,38.4,16.8,57.2,25.7C3760.9,634.6,3762.7,635,3764.4,635z"/>
	<path style="fill:#3A547A;" d="M3876.6,692.7c4.2,0,8.3-2.2,10.5-6.1c3.2-5.8,1.2-13.1-4.6-16.3c-18.4-10.3-37.2-20.4-56-30
		c-5.9-3-13.1-0.7-16.2,5.2c-3,5.9-0.7,13.1,5.2,16.2c18.5,9.5,37.1,19.5,55.2,29.6C3872.6,692.2,3874.6,692.7,3876.6,692.7z"/>
	<path style="fill:#3A547A;" d="M3885.8,3800.3c-18,10.3-36.4,20.4-54.7,30.1c-5.9,3.1-8.1,10.3-5,16.2c2.1,4.1,6.3,6.4,10.6,6.4
		c1.9,0,3.8-0.4,5.6-1.4c18.6-9.8,37.2-20,55.5-30.5c5.8-3.3,7.7-10.6,4.5-16.4C3898.9,3799,3891.6,3797,3885.8,3800.3z"/>
	<path style="fill:#3A547A;" d="M3661.2,3908.8c-19.3,7.7-39,15.1-58.5,22.2c-6.2,2.2-9.5,9.1-7.2,15.3c1.8,4.9,6.4,8,11.3,8
		c1.3,0,2.7-0.2,4.1-0.7c19.8-7.1,39.8-14.7,59.3-22.5c6.2-2.5,9.2-9.4,6.7-15.6C3674.3,3909.3,3667.4,3906.3,3661.2,3908.8z"/>
	<path style="fill:#3A547A;" d="M3648.3,585.3c4.8,0,9.4-2.9,11.2-7.7c2.4-6.2-0.7-13.1-6.9-15.5c-19.7-7.6-39.8-15-59.7-21.9
		c-6.3-2.2-13.1,1.1-15.3,7.4c-2.2,6.3,1.1,13.1,7.4,15.3c19.7,6.8,39.5,14.1,58.9,21.6C3645.4,585,3646.9,585.3,3648.3,585.3z"/>
	<path style="fill:#3A547A;" d="M3529,543.9c5.1,0,9.9-3.3,11.5-8.5c1.9-6.3-1.6-13-7.9-15c-20.1-6.2-40.6-12.1-60.9-17.6
		c-6.4-1.7-13,2.1-14.7,8.5c-1.7,6.4,2.1,13,8.5,14.7c20.1,5.4,40.3,11.2,60.1,17.3C3526.6,543.7,3527.8,543.9,3529,543.9z"/>
	<path style="fill:#3A547A;" d="M3984.4,758.1c3.9,0,7.7-1.9,10-5.4c3.6-5.5,2.1-13-3.5-16.6c-17.6-11.6-35.7-23-53.7-33.9
		c-5.7-3.4-13-1.6-16.5,4c-3.4,5.7-1.6,13,4,16.5c17.8,10.8,35.6,22,53,33.4C3979.9,757.5,3982.2,758.1,3984.4,758.1z"/>
	<path style="fill:#3A547A;" d="M3543.5,3951c-19.8,6.3-39.9,12.4-59.9,18c-6.4,1.8-10.1,8.4-8.3,14.8c1.5,5.3,6.3,8.8,11.5,8.8
		c1.1,0,2.2-0.1,3.2-0.4c20.3-5.7,40.7-11.8,60.7-18.2c6.3-2,9.8-8.8,7.8-15.1C3556.5,3952.4,3549.8,3949,3543.5,3951z"/>
	<g>
		<g>
			<path style="fill:#121B27;" d="M2923.9,267h-434.4c-21.9,0-39.7,17.8-39.7,39.7v307.5c0,21.9,17.8,39.7,39.7,39.7h125.7v139.5
				l139.5-139.5h169.2c21.9,0,39.7-17.8,39.7-39.7V306.7C2963.6,284.8,2945.9,267,2923.9,267z"/>
			<path style="fill:#3A547A;" d="M2923.9,254h-434.4c-29,0-52.7,23.6-52.7,52.7v307.5c0,29,23.6,52.7,52.7,52.7h112.7v126.6
				c0,5.2,3.2,10,8,12c1.6,0.7,3.3,1,5,1c3.4,0,6.7-1.3,9.2-3.8l135.7-135.7h163.8c29,0,52.7-23.6,52.7-52.7V306.7
				C2976.6,277.7,2953,254,2923.9,254z M2963.6,614.2c0,21.9-17.8,39.7-39.7,39.7h-169.2l-139.5,139.5V653.9h-125.7
				c-21.9,0-39.7-17.8-39.7-39.7V306.7c0-21.9,17.8-39.7,39.7-39.7h434.4c21.9,0,39.7,17.8,39.7,39.7V614.2z"/>
		</g>
		<g>
			<g>
				<path style="fill:#35E8C6;" d="M2845,370.1h-276.6c-3.6,0-6.5,2.9-6.5,6.5s2.9,6.5,6.5,6.5H2845c3.6,0,6.5-2.9,6.5-6.5
					S2848.6,370.1,2845,370.1z"/>
				<path style="fill:#3A547A;" d="M2845,461h-276.6c-3.6,0-6.5,2.9-6.5,6.5c0,3.6,2.9,6.5,6.5,6.5H2845c3.6,0,6.5-2.9,6.5-6.5
					C2851.5,463.9,2848.6,461,2845,461z"/>
			</g>
			<g>
				<path style="fill:#35E8C6;" d="M2845,461h-276.6c-3.6,0-6.5,2.9-6.5,6.5c0,3.6,2.9,6.5,6.5,6.5H2845c3.6,0,6.5-2.9,6.5-6.5
					C2851.5,463.9,2848.6,461,2845,461z"/>
			</g>
			<g>
				<path style="fill:#35E8C6;" d="M2719.7,551.9h-151.3c-3.6,0-6.5,2.9-6.5,6.5c0,3.6,2.9,6.5,6.5,6.5h151.3c3.6,0,6.5-2.9,6.5-6.5
					C2726.2,554.8,2723.3,551.9,2719.7,551.9z"/>
			</g>
		</g>
	</g>
	<g>
		<g>
			
				<ellipse transform="matrix(0.7071 -0.7071 0.7071 0.7071 674.4194 2970.9805)" style="fill:#121B27;" cx="3923.5" cy="671.4" rx="338.1" ry="338.1"/>
			<path style="fill:#3A547A;" d="M4171.8,423.1c-32.2-32.2-69.8-57.6-111.6-75.2c-43.3-18.3-89.3-27.6-136.7-27.6
				c-47.4,0-93.4,9.3-136.7,27.6c-41.8,17.7-79.4,43-111.6,75.2c-32.2,32.2-57.6,69.8-75.2,111.6c-18.3,43.3-27.6,89.3-27.6,136.7
				c0,47.4,9.3,93.4,27.6,136.7c17.7,41.8,43,79.4,75.2,111.6c32.2,32.2,69.8,57.6,111.6,75.2c43.3,18.3,89.3,27.6,136.7,27.6
				c47.4,0,93.4-9.3,136.7-27.6c41.8-17.7,79.4-43,111.6-75.2c32.2-32.2,57.6-69.8,75.2-111.6c18.3-43.3,27.6-89.3,27.6-136.7
				c0-47.4-9.3-93.4-27.6-136.7C4229.3,492.9,4204,455.4,4171.8,423.1z M3923.5,1009.5c-186.7,0-338.1-151.4-338.1-338.1
				c0-186.7,151.4-338.1,338.1-338.1c186.7,0,338.1,151.4,338.1,338.1C4261.6,858.1,4110.2,1009.5,3923.5,1009.5z"/>
		</g>
		<g>
			<g>
				<path style="fill:#121B27;" d="M4061.6,865.8h-276.1c-53.6,0-84,16.5-104.3,41.3c61.4,63.2,147.3,102.4,242.4,102.4
					c95.1,0,181-39.2,242.4-102.4C4145.6,882.3,4115.2,865.8,4061.6,865.8z"/>
				<path style="fill:#5083C6;" d="M4131.3,865.2c-19.4-8.3-42.3-12.4-69.8-12.4h-276.1c-27.5,0-50.3,4.1-69.8,12.4
					c-17.7,7.6-32.3,18.6-44.6,33.7c-4.2,5.1-3.9,12.5,0.7,17.3c32.4,33.3,70.3,59.4,112.8,77.8c44,19,90.7,28.6,139,28.6
					c48.3,0,95-9.6,139-28.6c42.4-18.3,80.4-44.5,112.8-77.8c4.6-4.7,4.9-12.2,0.7-17.3C4163.6,883.8,4149,872.8,4131.3,865.2z
					 M3923.5,1009.5c-95.1,0-181-39.2-242.4-102.4c20.4-24.9,50.7-41.3,104.3-41.3h276.1c53.6,0,84,16.5,104.3,41.3
					C4104.5,970.3,4018.6,1009.5,3923.5,1009.5z"/>
			</g>
			<g>
				<path style="fill:#121B27;" d="M3839,918.2c0,10.6,37.9,19.3,84.5,19.3c46.7,0,84.5-8.6,84.5-19.3V783.8H3839V918.2z"/>
				<path style="fill:#5083C6;" d="M4008,770.9H3839c-7.2,0-13,5.8-13,13v134.4c0,5.3,2.3,12.9,13.5,18.9c5.3,2.9,12.5,5.3,21.4,7.4
					c16.9,3.8,39.1,6,62.7,6s45.8-2.1,62.7-6c8.9-2,16.1-4.5,21.4-7.4c11.1-6,13.5-13.6,13.5-18.9V783.8
					C4021,776.7,4015.2,770.9,4008,770.9z M4008,918.2c0,10.6-37.9,19.3-84.5,19.3s-84.5-8.6-84.5-19.3V783.8H4008V918.2z"/>
			</g>
			<path style="fill:#121B27;" d="M3839,864.5c23.1,13.7,50.7,21.7,80.3,21.7c33.3,0,64-10.1,88.8-27v-75.2H3839V864.5z"/>
			<g>
				<path style="fill:#121B27;" d="M4042.9,700.8l-4.8-0.8C4039.6,700.5,4041.2,700.8,4042.9,700.8z"/>
				<path style="fill:#3A547A;" d="M4045.1,688l-4.8-0.8c-0.7-0.1-1.5-0.2-2.2-0.2c-5.9,0-11.2,4-12.6,9.9
					c-1.6,6.6,2.2,13.4,8.7,15.4c3,1,5.9,1.4,8.7,1.4c6.7,0,12.4-5.2,12.9-11.9C4056.4,695.2,4051.7,689.2,4045.1,688z M4038.1,700
					l4.8,0.8C4041.2,700.8,4039.6,700.5,4038.1,700z"/>
			</g>
			<g>
				<path style="fill:#121B27;" d="M4028.2,691.4c-13.9,1.2-29.9,0.9-34.8,0.9l44.6,7.6C4033.8,698.6,4030.2,695.5,4028.2,691.4z"/>
				<path style="fill:#3A547A;" d="M4042,687.6c-0.9-0.3-1.7-1-2.1-1.9c-2.2-4.5-6.7-7.3-11.7-7.3c-0.4,0-0.7,0-1.1,0
					c-7.3,0.6-16.2,0.9-27.2,0.9c-1.7,0-3.2,0-4.4,0c-0.9,0-1.6,0-2.2,0c-6.7,0-12.4,5.2-12.9,11.9c-0.6,6.7,4.1,12.7,10.7,13.9
					l44.6,7.6c0.7,0.1,1.5,0.2,2.2,0.2c5.9,0,11.2-4,12.6-9.9C4052.3,696.4,4048.5,689.7,4042,687.6z M3993.5,692.4
					c1.4,0,3.7,0,6.5,0c7.2,0,18.3-0.1,28.2-1c2,4.1,5.5,7.2,9.8,8.6L3993.5,692.4z"/>
			</g>
			<g>
				<path style="fill:#121B27;" d="M3927.5,404.9c-44.1,0-83.8,18.8-112.3,48.8c-35.5,14-60.8,49.3-60.8,90.7v80.3v42.8v16.3
					c0,9.3,7.4,16.9,16.5,16.9h24.7c9.1,0,16.5-7.6,16.5-16.9v-16.3H3944V667h82.4v16.9c0,2.7,0.7,5.2,1.8,7.5
					c12.3-1,22.9-3.1,22.9-7.5l33-16.9v-42.3v-59.2C4084.1,476.9,4014,404.9,3927.5,404.9z"/>
				<path style="fill:#5083C6;" d="M4047.5,442.9c-15.6-16-33.7-28.5-53.9-37.3c-20.9-9.1-43.2-13.7-66.1-13.7
					c-23.4,0-46,4.8-67.3,14.3c-19.6,8.7-37.3,21-52.5,36.6c-19,8.1-35.1,21.4-47,38.7c-12.6,18.5-19.3,40.3-19.3,62.9v80.3v42.8
					v16.3c0,16.5,13.2,29.9,29.5,29.9h24.7c16.2,0,29.5-13.4,29.5-29.9v-3.4H3944c1.3,0,2.6-0.2,3.8-0.6h65.6v3.9
					c0,4.6,1.1,9,3.1,13.3c2.2,4.5,6.7,7.2,11.6,7.2c0.4,0,0.7,0,1.1,0c7.8-0.7,13.9-1.6,18.6-3c6.7-1.9,10.7-4.8,13-7.9l29.2-15
					c4.3-2.2,7.1-6.7,7.1-11.5v-42.3v-59.2c0-23.4-4.5-46.1-13.3-67.5C4075.3,477.4,4063.1,458.9,4047.5,442.9z M4084.1,624.7V667
					l-33,16.9c0,4.4-10.7,6.5-22.9,7.5c-1.1-2.3-1.8-4.8-1.8-7.5V667H3944v0.6h-131.9v16.3c0,9.3-7.4,16.9-16.5,16.9h-24.7
					c-9.1,0-16.5-7.6-16.5-16.9v-16.3v-42.8v-80.3c0-41.4,25.3-76.6,60.8-90.7c28.5-30.1,68.2-48.8,112.3-48.8
					c86.5,0,156.6,71.9,156.6,160.6V624.7z"/>
			</g>
			<g>
				<path style="fill:#121B27;" d="M3898.1,633.2h-135.3c-9.3,0-16.9,7.6-16.9,16.9l8.5,67.6c0,9.3,7.6,16.9,16.9,16.9h126.8
					c9.3,0,16.9-7.6,16.9-16.9v-67.6C3915,640.8,3907.5,633.2,3898.1,633.2z"/>
				<path style="fill:#5083C6;" d="M3898.1,620.2h-135.3c-16.5,0-29.9,13.4-29.9,29.9c0,0.5,0,1.1,0.1,1.6l8.4,66.9
					c0.5,16.1,13.7,29,29.9,29h126.8c16.5,0,29.9-13.4,29.9-29.9v-67.6C3928,633.6,3914.6,620.2,3898.1,620.2z M3915,717.7
					c0,9.3-7.6,16.9-16.9,16.9h-126.8c-9.3,0-16.9-7.6-16.9-16.9l-8.5-67.6c0-9.3,7.6-16.9,16.9-16.9h135.3
					c9.3,0,16.9,7.6,16.9,16.9V717.7z"/>
			</g>
			<g>
				<path style="fill:#121B27;" d="M4075.7,633.2h-135.3c-9.3,0-16.9,7.6-16.9,16.9v67.6c0,9.3,7.6,16.9,16.9,16.9h126.8
					c9.3,0,16.9-7.6,16.9-16.9l8.5-67.6C4092.6,640.8,4085,633.2,4075.7,633.2z"/>
				<path style="fill:#5083C6;" d="M4075.7,620.2h-135.3c-16.5,0-29.9,13.4-29.9,29.9v67.6c0,16.5,13.4,29.9,29.9,29.9h126.8
					c16.2,0,29.4-12.9,29.9-29l8.4-66.9c0.1-0.5,0.1-1.1,0.1-1.6C4105.5,633.6,4092.1,620.2,4075.7,620.2z M4084.1,717.7
					c0,9.3-7.6,16.9-16.9,16.9h-126.8c-9.3,0-16.9-7.6-16.9-16.9v-67.6c0-9.3,7.6-16.9,16.9-16.9h135.3c9.3,0,16.9,7.6,16.9,16.9
					L4084.1,717.7z"/>
			</g>
			<g>
				<path style="fill:#121B27;" d="M3771.3,597.5v120.2c0,74.7,66.2,135.3,147.9,135.3c81.7,0,147.9-60.6,147.9-135.3V588.8
					l-231.1-52.2L3771.3,597.5z"/>
				<path style="fill:#5083C6;" d="M4070.1,576.1L3839,523.9c-0.9-0.2-1.9-0.3-2.9-0.3c-3.3,0-6.5,1.2-8.9,3.5l-64.8,60.9
					c-2.6,2.5-4.1,5.9-4.1,9.5v120.2c0,20.2,4.3,39.7,12.8,58.1c8.2,17.7,19.9,33.5,34.7,47.1c30.3,27.7,70.6,43,113.4,43
					c42.8,0,83-15.3,113.4-43c14.9-13.6,26.5-29.4,34.7-47.1c8.5-18.4,12.8-37.9,12.8-58.1V588.8
					C4080.2,582.7,4076,577.5,4070.1,576.1z M4067.2,717.7c0,74.7-66.2,135.3-147.9,135.3c-81.7,0-147.9-60.6-147.9-135.3V597.5
					l64.8-60.9l231.1,52.2V717.7z"/>
			</g>
			<path style="fill:#121B27;" d="M3771.3,531.7v95.7c32.8-1.7,59.8-25.4,66.2-56.7c36.4,38.2,130.2,71.3,229.3,64.7l0.4-2.4v-73.3
				l-9.4-28H3771.3z"/>
			<path style="fill:#121B27;" d="M4039.9,498.1l-39.8-12.4l-78.3-12.4l-132.9,22.4l-26.1,41l0,62.7c1.6,0.1,3.2,0.2,4.8,0.2
				c34.5,0,63.2-24.4,69.9-56.8c36.4,38.2,140.6,71.3,239.7,64.7l-8.7-72.1L4039.9,498.1z"/>
			<path style="fill:#5083C6;" d="M4076.8,600.9c-45.6,3-95.7-2.4-141.1-15.3c-42.1-12-76.1-29.2-93.4-47.4
				c-1.7-1.7-4.2-2.4-6.5-1.8c-2.3,0.7-4.1,2.6-4.6,4.9c-6.1,29.9-32.8,51.6-63.5,51.6c-1,0-2.1-0.1-3.2-0.2l-1.1-0.1
				c-3.6-0.2-6.7,2.5-6.9,6.1c-0.2,3.6,2.5,6.7,6.1,6.9l1,0.1c1.3,0.1,2.7,0.2,4.1,0.2c33.1,0,62.3-21,73.2-51.3
				c20.2,16.9,52.6,32.4,91.2,43.4c38.3,10.9,79.9,16.6,119.6,16.6c8.8,0,17.5-0.3,26-0.8c3.6-0.2,6.3-3.3,6-6.9
				C4083.4,603.4,4080.3,600.7,4076.8,600.9z"/>
		</g>
	</g>
	<g>
		<g>
			<circle style="fill:#121B27;" cx="1985" cy="3732.8" r="376.4"/>
			<path style="fill:#3A547A;" d="M2260.3,3457.5c-35.8-35.8-77.4-63.8-123.8-83.5c-48-20.3-99-30.6-151.6-30.6
				s-103.6,10.3-151.6,30.6c-46.4,19.6-88,47.7-123.8,83.5c-35.8,35.8-63.8,77.4-83.5,123.8c-20.3,48-30.6,99-30.6,151.6
				s10.3,103.6,30.6,151.6c19.6,46.4,47.7,88,83.5,123.8s77.4,63.8,123.8,83.5c48,20.3,99,30.6,151.6,30.6s103.6-10.3,151.6-30.6
				c46.4-19.6,88-47.7,123.8-83.5c35.8-35.8,63.8-77.4,83.5-123.8c20.3-48,30.6-99,30.6-151.6s-10.3-103.6-30.6-151.6
				C2324.2,3534.9,2296.1,3493.2,2260.3,3457.5z M1985,4109.3c-207.9,0-376.4-168.5-376.4-376.4s168.5-376.4,376.4-376.4
				c207.9,0,376.4,168.5,376.4,376.4S2192.9,4109.3,1985,4109.3z"/>
		</g>
		<g>
			<g>
				<path style="fill:#121B27;" d="M1899.4,3682.3h-114.1v232.3l18.6-6.2h95.5c0,28.7,23.3,37.3,52,37.3h166.8v-67.5v-180.6v-67.5
					h-166.8C1922.6,3630.3,1899.4,3653.6,1899.4,3682.3z"/>
				<path style="fill:#BBFFF2;" d="M2118.2,3623.8h-166.8c-30.1,0-54.9,22.8-58.1,52h-107.9c-3.6,0-6.5,2.9-6.5,6.5v232.3
					c0,2.1,1,4,2.7,5.3c1.7,1.2,3.9,1.6,5.8,0.9l17.6-5.8h88.3c2.2,18.3,14.9,37.3,58.1,37.3h166.8c3.6,0,6.5-2.9,6.5-6.5v-315.5
					C2124.7,3626.7,2121.8,3623.8,2118.2,3623.8z M2111.7,3939.3h-160.3c-19.5,0-45.5-3.2-45.5-30.8c0-3.6-2.9-6.5-6.5-6.5h-95.5
					c-0.7,0-1.4,0.1-2,0.3l-10.1,3.3v-216.8h107.6c3.6,0,6.5-2.9,6.5-6.5c0-25.1,20.4-45.5,45.5-45.5h160.3V3939.3z"/>
			</g>
			<g>
				<path style="fill:#121B27;" d="M2220,3630.3h-110.5v78.9H2220c21.8,0,39.4-17.7,39.4-39.4l0,0
					C2259.5,3648,2241.8,3630.3,2220,3630.3z"/>
				<path style="fill:#BBFFF2;" d="M2220,3623.8h-110.5c-3.6,0-6.5,2.9-6.5,6.5s2.9,6.5,6.5,6.5H2220c18.2,0,32.9,14.8,32.9,32.9
					s-14.8,32.9-32.9,32.9h-110.5c-3.6,0-6.5,2.9-6.5,6.5s2.9,6.5,6.5,6.5H2220c25.3,0,45.9-20.6,45.9-45.9
					S2245.4,3623.8,2220,3623.8z"/>
			</g>
			<g>
				<path style="fill:#121B27;" d="M2194.3,3709.2h-110.5v78.9h110.5c21.8,0,39.4-17.7,39.4-39.4l0,0
					C2233.7,3726.8,2216.1,3709.2,2194.3,3709.2z"/>
				<path style="fill:#BBFFF2;" d="M2194.3,3702.7h-110.5c-3.6,0-6.5,2.9-6.5,6.5s2.9,6.5,6.5,6.5h110.5c18.2,0,32.9,14.8,32.9,32.9
					s-14.8,32.9-32.9,32.9h-110.5c-3.6,0-6.5,2.9-6.5,6.5s2.9,6.5,6.5,6.5h110.5c25.3,0,45.9-20.6,45.9-45.9
					S2219.6,3702.7,2194.3,3702.7z"/>
			</g>
			<g>
				<path style="fill:#121B27;" d="M2168.5,3788.1h-110.5v78.9h110.5c21.8,0,39.4-17.7,39.4-39.4l0,0
					C2208,3805.7,2190.3,3788.1,2168.5,3788.1z"/>
				<path style="fill:#BBFFF2;" d="M2168.5,3781.6h-110.5c-3.6,0-6.5,2.9-6.5,6.5s2.9,6.5,6.5,6.5h110.5c18.2,0,32.9,14.8,32.9,32.9
					s-14.8,32.9-32.9,32.9h-110.5c-3.6,0-6.5,2.9-6.5,6.5s2.9,6.5,6.5,6.5h110.5c25.3,0,45.9-20.6,45.9-45.9
					S2193.9,3781.6,2168.5,3781.6z"/>
			</g>
			<g>
				<path style="fill:#121B27;" d="M2142.8,3866.9h-110.5v78.9h110.5c21.8,0,39.4-17.7,39.4-39.4l0,0
					C2182.2,3884.6,2164.6,3866.9,2142.8,3866.9z"/>
				<path style="fill:#BBFFF2;" d="M2142.8,3860.4h-110.5c-3.6,0-6.5,2.9-6.5,6.5s2.9,6.5,6.5,6.5h110.5c18.2,0,32.9,14.8,32.9,32.9
					s-14.8,32.9-32.9,32.9h-110.5c-3.6,0-6.5,2.9-6.5,6.5s2.9,6.5,6.5,6.5h110.5c25.3,0,45.9-20.6,45.9-45.9
					S2168.1,3860.4,2142.8,3860.4z"/>
			</g>
			<g>
				<path style="fill:#121B27;" d="M2056.2,3433.5c-18.1-0.4-19,18.9-31.4,45.7c-15,32.1-60,70.7-93.2,104.3
					c-35.4,35.9-84.8,42.5-118,107.1c-33.2,64.6-58.1,92.1-58.1,92.1l263-150.2c32.3-31,72.6-106.5,71.3-160.7
					C2089,3435.2,2062.7,3433.7,2056.2,3433.5z"/>
				<path style="fill:#BBFFF2;" d="M2078.7,3433.6c-6.3-4.2-13.8-6.4-22.4-6.5c-18-0.4-23.4,14-29.7,30.6
					c-2.1,5.6-4.6,12.1-7.7,18.9c-11.1,23.8-40.1,51.9-68.1,79c-8.4,8.1-16.3,15.8-23.9,23.5c-12.1,12.3-26.1,21.1-40.8,30.4
					c-26.3,16.5-56.2,35.3-78.3,78.4c-32.3,62.9-56.9,90.4-57.1,90.7c-2.4,2.7-2.2,6.8,0.4,9.2c1.2,1.1,2.8,1.7,4.4,1.7
					c1.8,0,3.5-0.7,4.8-2.1c1-1.1,25.8-28.8,59-93.5c20.5-39.9,47.5-56.9,73.6-73.3c14.7-9.3,30-18.9,43.2-32.2
					c7.4-7.5,15.3-15.2,23.6-23.3c28.9-28,58.7-56.9,70.8-82.9c3.4-7.2,5.9-13.9,8.1-19.7c6.8-17.9,9.4-22.4,17.3-22.2
					c22,0.4,27,17.7,27.3,32c0.5,23.7-7.4,54.3-22.5,86.2c-13.4,28.4-30.9,54.4-46.9,69.7c-2.6,2.5-2.7,6.6-0.2,9.2
					c2.5,2.6,6.6,2.7,9.2,0.2c17-16.4,35.6-43.9,49.6-73.6c15.9-33.6,24.3-66.3,23.7-92C2096,3459.5,2092.8,3442.9,2078.7,3433.6z"
					/>
			</g>
			<g>
				<g>
					<g>
						<path style="fill:#121B27;" d="M1812.9,3590.5h-50.3c-28.1,0-51,23-51,51.3v252.7c0,28.3,22.9,51.3,51,51.3h50.3
							c28.1,0,51-23,51-51.3v-252.7C1863.9,3613.5,1841,3590.5,1812.9,3590.5z"/>
						<path style="fill:#BBFFF2;" d="M1812.9,3584h-50.3c-31.7,0-57.5,25.9-57.5,57.8v252.7c0,31.8,25.8,57.8,57.5,57.8h50.3
							c31.7,0,57.5-25.9,57.5-57.8v-252.7C1870.4,3609.9,1844.6,3584,1812.9,3584z M1857.4,3894.5c0,24.7-20,44.8-44.6,44.8h-50.3
							c-24.6,0-44.5-20.1-44.5-44.8v-252.7c0-24.7,20-44.8,44.5-44.8h50.3c24.6,0,44.6,20.1,44.6,44.8V3894.5z"/>
					</g>
				</g>
			</g>
			<g>
				<g>
					<path style="fill:#121B27;" d="M1797.6,3615.7H1763c-3.6,0-6.5,2.9-6.5,6.5s2.9,6.5,6.5,6.5h34.6c15.8,0,28.6,12.9,28.6,28.8
						v173.7c0,3.6,2.9,6.5,6.5,6.5s6.5-2.9,6.5-6.5v-173.7C1839.2,3634.4,1820.6,3615.7,1797.6,3615.7z"/>
				</g>
			</g>
			<g>
				<path style="fill:#121B27;" d="M1786.8,3867.1c-11.1,0-20.2,9-20.2,20.2s9,20.2,20.2,20.2s20.2-9,20.2-20.2
					S1797.9,3867.1,1786.8,3867.1z"/>
				<path style="fill:#BBFFF2;" d="M1786.8,3860.7c-14.7,0-26.7,12-26.7,26.7c0,14.7,12,26.7,26.7,26.7s26.7-12,26.7-26.7
					C1813.5,3872.6,1801.5,3860.7,1786.8,3860.7z M1786.8,3901c-7.6,0-13.7-6.1-13.7-13.7s6.1-13.7,13.7-13.7s13.7,6.1,13.7,13.7
					S1794.3,3901,1786.8,3901z"/>
			</g>
			<path style="fill:#BBFFF2;" d="M2127.7,3647.2c-2.9,2.1-3.6,6.1-1.6,9c2.3,3.3,3.7,8.7,3.7,14.4c0,5-1.1,9.8-3,13.2
				c-1.8,3.1-0.6,7.1,2.5,8.8c1,0.6,2.1,0.8,3.2,0.8c2.3,0,4.5-1.2,5.7-3.3c3-5.3,4.6-12.3,4.6-19.6c0-8.4-2.2-16.3-6.1-21.8
				C2134.6,3645.9,2130.6,3645.1,2127.7,3647.2z"/>
			<path style="fill:#BBFFF2;" d="M2127.7,3726.1c-2.9,2.1-3.6,6.1-1.6,9c2.3,3.3,3.7,8.7,3.7,14.4c0,5-1.1,9.8-3,13.2
				c-1.8,3.1-0.6,7.1,2.5,8.8c1,0.6,2.1,0.8,3.2,0.8c2.3,0,4.5-1.2,5.7-3.3c3-5.3,4.6-12.3,4.6-19.6c0-8.4-2.2-16.3-6.1-21.8
				C2134.6,3724.7,2130.6,3724,2127.7,3726.1z"/>
			<path style="fill:#BBFFF2;" d="M2127.7,3804.9c-2.9,2.1-3.6,6.1-1.6,9c2.3,3.3,3.7,8.7,3.7,14.4c0,5-1.1,9.8-3,13.2
				c-1.8,3.1-0.6,7.1,2.5,8.8c1,0.6,2.1,0.8,3.2,0.8c2.3,0,4.5-1.2,5.7-3.3c3-5.3,4.6-12.3,4.6-19.6c0-8.4-2.2-16.3-6.1-21.8
				C2134.6,3803.6,2130.6,3802.9,2127.7,3804.9z"/>
		</g>
	</g>
	<g>
		<g>
			
				<ellipse transform="matrix(0.7071 -0.7071 0.7071 0.7071 -384.5454 4127.6958)" style="fill:#121B27;" cx="4790.3" cy="2528" rx="216.4" ry="216.4"/>
			<path style="fill:#3A547A;" d="M4790.3,2305.1c-59.5,0-115.5,23.2-157.6,65.3c-42.1,42.1-65.3,98.1-65.3,157.6
				c0,59.5,23.2,115.5,65.3,157.6c42.1,42.1,98.1,65.3,157.6,65.3s115.5-23.2,157.6-65.3c42.1-42.1,65.3-98.1,65.3-157.6
				c0-59.5-23.2-115.5-65.3-157.6C4905.8,2328.3,4849.8,2305.1,4790.3,2305.1z M4790.3,2738c-115.8,0-209.9-94.2-209.9-209.9
				s94.2-209.9,209.9-209.9s209.9,94.2,209.9,209.9S4906.1,2738,4790.3,2738z"/>
		</g>
		<g>
			<g>
				<g>
					<path style="fill:#121B27;" d="M4708.9,2466.9c-14.5,0-26.2,11.8-26.2,26.2s11.8,26.3,26.2,26.3c14.5,0,26.3-11.8,26.3-26.3
						S4723.4,2466.9,4708.9,2466.9z"/>
					<path style="fill:#35E8C6;" d="M4708.9,2460.4c-18.1,0-32.7,14.7-32.7,32.7s14.7,32.7,32.7,32.7c18.1,0,32.7-14.7,32.7-32.7
						S4727,2460.4,4708.9,2460.4z M4708.9,2512.9c-10.9,0-19.8-8.9-19.8-19.8s8.9-19.8,19.8-19.8c10.9,0,19.8,8.9,19.8,19.8
						S4719.8,2512.9,4708.9,2512.9z"/>
				</g>
				<g>
					<path style="fill:#121B27;" d="M4871.7,2466.9c-14.5,0-26.2,11.8-26.2,26.2s11.8,26.3,26.2,26.3c14.5,0,26.3-11.8,26.3-26.3
						S4886.2,2466.9,4871.7,2466.9z"/>
					<path style="fill:#35E8C6;" d="M4871.7,2460.4c-18.1,0-32.7,14.7-32.7,32.7s14.7,32.7,32.7,32.7c18.1,0,32.7-14.7,32.7-32.7
						S4889.7,2460.4,4871.7,2460.4z M4871.7,2512.9c-10.9,0-19.8-8.9-19.8-19.8s8.9-19.8,19.8-19.8c10.9,0,19.8,8.9,19.8,19.8
						S4882.6,2512.9,4871.7,2512.9z"/>
				</g>
			</g>
			<g>
				<path style="fill:#121B27;" d="M4684.4,2600.3c23.1,33.8,61.9,56,105.9,56c44,0,82.8-22.2,105.9-56h-116.3H4684.4z"/>
				<path style="fill:#35E8C6;" d="M4896.2,2593.8h-211.8c-2.4,0-4.6,1.3-5.7,3.5c-1.1,2.1-1,4.7,0.4,6.7
					c25.2,36.8,66.8,58.8,111.3,58.8c44.5,0,86.1-22,111.3-58.8c1.4-2,1.5-4.6,0.4-6.7C4900.8,2595.2,4898.6,2593.8,4896.2,2593.8z
					 M4790.3,2649.8c-35.9,0-69.8-15.9-92.8-43h185.6C4860.1,2634,4826.2,2649.8,4790.3,2649.8z"/>
			</g>
		</g>
	</g>
	<g>
		<g>
			<g>
				
					<ellipse transform="matrix(0.7071 -0.7071 0.7071 0.7071 -1362.3982 1448.8037)" style="fill:#121B27;" cx="1067.7" cy="2369" rx="406.7" ry="406.7"/>
				<path style="fill:#3A547A;" d="M1364.4,2072.2c-38.5-38.5-83.4-68.8-133.4-89.9c-51.8-21.9-106.7-33-163.4-33
					c-56.7,0-111.6,11.1-163.4,33c-50,21.1-94.9,51.4-133.4,89.9c-38.5,38.5-68.8,83.4-89.9,133.4c-21.9,51.8-33,106.7-33,163.4
					s11.1,111.6,33,163.4c21.1,50,51.4,94.9,89.9,133.4c38.5,38.5,83.4,68.8,133.4,89.9c51.8,21.9,106.7,33,163.4,33
					c56.7,0,111.6-11.1,163.4-33c50-21.1,94.9-51.4,133.4-89.9c38.5-38.5,68.8-83.4,89.9-133.4c21.9-51.8,33-106.7,33-163.4
					s-11.1-111.6-33-163.4C1433.3,2155.6,1403,2110.7,1364.4,2072.2z M1067.7,2775.7c-224.6,0-406.7-182.1-406.7-406.7
					s182.1-406.7,406.7-406.7c224.6,0,406.7,182.1,406.7,406.7S1292.3,2775.7,1067.7,2775.7z"/>
			</g>
			<g>
				<path style="fill:#121B27;" d="M1233.8,2602.8H901.6c-64.5,0-101,19.8-125.5,49.7c73.9,76,177.2,123.2,291.6,123.2
					c114.4,0,217.7-47.2,291.6-123.2C1334.8,2622.6,1298.2,2602.8,1233.8,2602.8z"/>
				<path style="fill:#5083C6;" d="M1233.8,2589.8H901.6c-62,0-105.1,17.3-135.6,54.4c-4.2,5.1-3.9,12.5,0.7,17.3
					c38.7,39.8,84,71.1,134.8,93c52.5,22.7,108.4,34.2,166.1,34.2c57.7,0,113.6-11.5,166.1-34.2c50.7-21.9,96.1-53.2,134.8-93
					c4.6-4.7,4.9-12.2,0.7-17.3C1338.9,2607.1,1295.8,2589.8,1233.8,2589.8z M1067.7,2775.7c-114.4,0-217.7-47.2-291.6-123.2
					c24.5-29.9,61-49.7,125.5-49.7h332.2c64.5,0,101,19.8,125.5,49.7C1285.4,2728.5,1182,2775.7,1067.7,2775.7z"/>
			</g>
			<g>
				<path style="fill:#121B27;" d="M966,2665.9c0,12.8,45.5,23.2,101.7,23.2c56.2,0,101.7-10.4,101.7-23.2v-161.7H966V2665.9z"/>
				<path style="fill:#5083C6;" d="M1169.4,2491.3H966c-7.2,0-13,5.8-13,13v161.7c0,5.7,2.6,13.8,14.8,20.4
					c6.2,3.3,14.6,6.2,25.1,8.6c20.1,4.6,46.7,7.1,74.8,7.1s54.7-2.5,74.8-7.1c10.5-2.4,18.9-5.3,25.1-8.6
					c12.2-6.6,14.8-14.8,14.8-20.4v-161.7C1182.3,2497.1,1176.5,2491.3,1169.4,2491.3z M1169.4,2665.9c0,12.8-45.5,23.2-101.7,23.2
					c-56.2,0-101.7-10.4-101.7-23.2v-161.7h203.4V2665.9z"/>
			</g>
			<path style="fill:#121B27;" d="M966,2601.2c27.8,16.5,61,26,96.6,26c40.1,0,77-12.1,106.8-32.5v-90.5H966V2601.2z"/>
			<g>
				<path style="fill:#121B27;" d="M1211.3,2404.4l-5.8-1C1207.3,2403.9,1209.3,2404.4,1211.3,2404.4z"/>
				<path style="fill:#3A547A;" d="M1213.5,2391.6l-5.8-1c-0.7-0.1-1.5-0.2-2.2-0.2c-5.9,0-11.2,4-12.6,9.9
					c-1.6,6.6,2.2,13.4,8.7,15.4c3.4,1.1,6.6,1.6,9.7,1.6c6.7,0,12.4-5.2,12.9-11.9C1224.8,2398.7,1220.1,2392.7,1213.5,2391.6z
					 M1205.5,2403.4l5.8,1C1209.3,2404.4,1207.3,2403.9,1205.5,2403.4z"/>
			</g>
			<g>
				<path style="fill:#121B27;" d="M1193.6,2393.1c-16.8,1.4-36,1.1-41.8,1.1l53.7,9.2C1200.3,2401.7,1196,2398,1193.6,2393.1z"/>
				<path style="fill:#3A547A;" d="M1209.4,2391c-1.8-0.6-3.3-1.9-4.1-3.6c-2.2-4.5-6.7-7.3-11.7-7.3c-0.4,0-0.7,0-1.1,0
					c-8.9,0.7-19.6,1.1-32.9,1.1c-2,0-3.8,0-5.2,0c-1,0-1.9,0-2.6,0c-6.7,0-12.4,5.2-12.9,11.9s4.1,12.7,10.7,13.9l53.7,9.2
					c0.7,0.1,1.5,0.2,2.2,0.2c5.9,0,11.2-4,12.6-9.9C1219.7,2399.8,1215.9,2393.1,1209.4,2391z M1151.8,2394.2c1.7,0,4.4,0,7.9,0
					c8.7,0,22-0.1,34-1.1c2.4,4.9,6.7,8.6,11.8,10.3L1151.8,2394.2z"/>
			</g>
			<g>
				<path style="fill:#121B27;" d="M1037.2,2323H874.4c-11.2,0-20.3,9.1-20.3,20.3l10.2,81.4c0,11.2,9.1,20.3,20.3,20.3h152.5
					c11.2,0,20.3-9.1,20.3-20.3v-81.4C1057.5,2332.1,1048.4,2323,1037.2,2323z"/>
				<path style="fill:#5083C6;" d="M1037.2,2310H874.4c-18.4,0-33.3,14.9-33.3,33.3c0,0.5,0,1.1,0.1,1.6l10.1,80.6
					c0.5,18,15.2,32.4,33.3,32.4h152.5c18.4,0,33.3-14.9,33.3-33.3v-81.4C1070.5,2325,1055.5,2310,1037.2,2310z M1057.5,2424.7
					c0,11.2-9.1,20.3-20.3,20.3H884.6c-11.2,0-20.3-9.1-20.3-20.3l-10.2-81.4c0-11.2,9.1-20.3,20.3-20.3h162.7
					c11.2,0,20.3,9.1,20.3,20.3V2424.7z"/>
			</g>
			<g>
				<path style="fill:#121B27;" d="M1280.8,2148c-25.9-36.6-67.4-28.2-89.9-28.2c-22.5,0-46.1-3.2-46.1,19.3c0,0,33.5,22,52,82
					c18.5,60.1,18.5,165.2,18.5,165.2c0,9.8,11.2,33.1,23.1,37c15.5,5,14.9,0.1,14.9-12.6C1253.3,2410.8,1306.7,2184.6,1280.8,2148z
					"/>
				<path style="fill:#5083C6;" d="M1201.5,2113c-3.8,0.2-7.4,0.4-10.5,0.4c-2.5,0-4.9,0-7.4-0.1c-15.4-0.2-29.9-0.5-38.7,8.1
					c-4.4,4.3-6.6,10.3-6.6,17.7c0,2.2,1.1,4.2,2.9,5.4c0.3,0.2,31.9,21.7,49.4,78.5c7.4,24.1,12.9,59.9,15.9,103.6
					c2.3,33.2,2.3,59.5,2.3,59.7c0,11.4,11.9,38.1,27.6,43.2c4.2,1.3,7.9,2.2,11.1,2.2c2.7,0,5.1-0.6,7.2-2.2c5-3.7,5-10,5-17.4
					l0-0.7c1.6-6.9,14-60.5,23.4-117.4c13.9-84,14.9-133.1,3-149.9C1261.9,2110.1,1225.5,2111.8,1201.5,2113z M1270.4,2292
					c-10,60.2-23.3,116.8-23.4,117.3c-0.1,0.5-0.2,1-0.2,1.5l0,1.4c0,2.2,0,4.9-0.2,6.5c-1.1-0.1-3-0.5-6.2-1.6
					c-8.4-2.7-18.6-22.6-18.6-30.8c0-4.3-0.2-106.8-18.8-167.1c-15.9-51.5-42.4-76-51.5-83.2c0.5-3.5,2-4.9,2.5-5.4
					c4.8-4.8,17.3-4.6,29.4-4.4c2.5,0,5.1,0.1,7.6,0.1c3.4,0,7.2-0.2,11.1-0.4c22.5-1.1,53.4-2.6,73.5,25.8
					C1281,2159.5,1287.6,2187.9,1270.4,2292z"/>
			</g>
			<g>
				<path style="fill:#121B27;" d="M1250.7,2323H1088c-11.2,0-20.3,9.1-20.3,20.3v81.4c0,11.2,9.1,20.3,20.3,20.3h152.5
					c11.2,0,20.3-9.1,20.3-20.3l10.2-81.4C1271,2332.1,1261.9,2323,1250.7,2323z"/>
				<path style="fill:#5083C6;" d="M1250.7,2310H1088c-18.4,0-33.3,14.9-33.3,33.3v81.4c0,18.4,14.9,33.3,33.3,33.3h152.5
					c18.1,0,32.8-14.5,33.3-32.4l10.1-80.6c0.1-0.5,0.1-1.1,0.1-1.6C1284,2325,1269.1,2310,1250.7,2310z M1260.9,2424.7
					c0,11.2-9.1,20.3-20.3,20.3H1088c-11.2,0-20.3-9.1-20.3-20.3v-81.4c0-11.2,9.1-20.3,20.3-20.3h162.7c11.2,0,20.3,9.1,20.3,20.3
					L1260.9,2424.7z"/>
			</g>
			<g>
				<path style="fill:#121B27;" d="M884.6,2280v144.6c0,89.9,79.7,162.7,178,162.7s177.9-72.9,177.9-162.7v-268.3l-277.9,4.6
					L884.6,2280z"/>
				<path style="fill:#5083C6;" d="M1240.5,2143.4c-0.1,0-0.1,0-0.2,0l-277.9,4.6c-4.3,0.1-8.3,2.3-10.6,5.9l-78,119.1
					c-1.4,2.1-2.1,4.6-2.1,7.1v144.6c0,23.9,5.1,47,15.2,68.8c9.7,20.9,23.5,39.7,41.2,55.8c36,32.9,83.8,51.1,134.6,51.1
					c50.8,0,98.6-18.1,134.6-51.1c17.6-16.1,31.5-34.9,41.2-55.8c10.1-21.8,15.2-44.9,15.2-68.8v-268.3c0-3.5-1.4-6.8-3.9-9.2
					C1247.2,2144.7,1243.9,2143.4,1240.5,2143.4z M1240.5,2424.7c0,89.9-79.7,162.7-177.9,162.7s-178-72.9-178-162.7V2280l78-119.1
					l277.9-4.6V2424.7z"/>
			</g>
			<path style="fill:#121B27;" d="M925.9,2217c28.6,0.3,62.5-13.9,124.8,3c57.9,15.7,112.8,29.4,161.4,23
				c10.8-1.4,20.2-4.8,28.4-9.7v-77l-277.9,4.6L925.9,2217z"/>
			<g>
				<path style="fill:#121B27;" d="M991.7,2128.4c0-22.4-63.2,1.9-85.7,1.9c-22.5,0-40.7,18.2-40.7,40.7l14,210.2
					c0,12.7,41.9-191.2,87.6-208C1026,2151.5,991.7,2128.4,991.7,2128.4z"/>
				<path style="fill:#5083C6;" d="M997.9,2125c-0.7-3.3-2.4-6-5-8.1c-9.7-7.8-29.1-4.3-57.7,1.9c-11.7,2.5-22.7,5-29.1,5
					c-26,0-47.1,21.1-47.1,47.1c0,0.1,0,0.3,0,0.4l14,210c0.1,4.1,3,6.4,5.8,6.7c0.3,0,0.6,0.1,0.9,0.1c2.1,0,5.1-0.9,6.7-5.7
					c0.3-1,0.7-2.3,1.3-4.2c1-3.4,2.2-8.3,3.9-14.5c6.3-23.9,18-68.4,32.3-107.5c22.1-60.6,38-74.2,45.5-77
					c24.5-9,37.2-19.5,38.7-32.2C1009.2,2136.5,1001.9,2128.5,997.9,2125z M885.9,2381.1C885.9,2381.1,885.9,2381.1,885.9,2381.1
					C885.9,2381.1,885.9,2381.1,885.9,2381.1z M995.1,2145.5c-0.8,6.9-11.9,14.8-30.3,21.6c-32,11.7-58.9,93.3-81.4,176.4
					l-11.5-172.7c0.1-18.7,15.4-34,34.2-34c7.9,0,19.5-2.6,31.9-5.3c15.4-3.4,41.2-9,46.8-4.5c0.2,0.2,0.5,0.4,0.5,1.4
					c0,2.2,1.1,4.2,2.9,5.4C988.2,2133.9,995.8,2139.3,995.1,2145.5z"/>
			</g>
			<g>
				<path style="fill:#121B27;" d="M1210,2096.2c-27.7-4.5-74.8-48.2-118.8-60.2c-147-40-201.1,37.3-208.7,95.2
					c-1.8,13.5,5.8,50.9,39,69.9c34.6,19.8,60.2-18.9,143-4.4c59.1,10.4,115,19.1,162.9,8.2c86.4-19.6,42.2-138.5,42.2-138.5
					S1261.8,2104.6,1210,2096.2z"/>
				<path style="fill:#5083C6;" d="M1268.9,2060c-2.9,0.2-5.3,2.3-5.9,5.1c-0.3,1.3-7.4,31.8-52,24.6c-11.9-1.9-29.4-12.9-47.9-24.5
					c-21.7-13.6-46.3-29-70.3-35.5c-35.6-9.7-68-13.1-96.4-10.3c-25.3,2.5-47.6,10.1-66.1,22.4c-42.2,28.1-52.1,71.2-54.3,88.5
					c-2,15.2,5.8,55.5,42.2,76.4c18.6,10.7,35.4,6.3,54.8,1.3c21.4-5.5,48-12.4,90.3-4.9c41.3,7.3,79.6,13.3,114.8,13.3
					c17.7,0,34.5-1.5,50.6-5.2c22.2-5.1,38.4-16.7,48.1-34.6c23.7-43.9-0.3-109.6-1.3-112.4
					C1274.5,2061.5,1271.8,2059.8,1268.9,2060z M1265.4,2170.5c-7.8,14.5-21.2,24-39.6,28.2c-45.8,10.4-99.7,2.4-160.3-8.3
					c-14-2.5-26.5-3.4-37.7-3.4c-24.8,0-43.4,4.8-58.1,8.6c-18.7,4.8-31.1,8-45.1,0c-31.3-17.9-37.2-52.8-35.8-63.4
					c2-15.5,10.9-54.2,48.7-79.4c16.8-11.2,37-18,60.3-20.3c26.8-2.7,57.7,0.6,91.7,9.9c22.1,6,45.9,20.9,66.8,34
					c20.5,12.9,38.2,24,52.7,26.3c33.3,5.4,50.4-7.1,59-18.6C1273.4,2105,1280,2143.5,1265.4,2170.5z"/>
			</g>
		</g>
		<g>
			<g>
				<path style="fill:#121B27;" d="M1006.3,2476.3c12.3,17.9,32.9,29.7,56.3,29.7c23.4,0,44-11.8,56.3-29.7h-61.8H1006.3z"/>
				<path style="fill:#5083C6;" d="M1118.8,2469.8h-112.5c-2.4,0-4.6,1.3-5.7,3.5c-1.1,2.1-1,4.7,0.4,6.7
					c13.9,20.4,37,32.6,61.6,32.6c24.6,0,47.7-12.2,61.6-32.6c1.4-2,1.5-4.6,0.4-6.7C1123.5,2471.1,1121.3,2469.8,1118.8,2469.8z
					 M1062.6,2499.5c-15.8,0-30.9-6.1-42.2-16.8h84.5C1093.5,2493.4,1078.4,2499.5,1062.6,2499.5z"/>
			</g>
		</g>
	</g>
	<g>
		<g>
			
				<ellipse transform="matrix(0.7071 -0.7071 0.7071 0.7071 364.4571 3702.1328)" style="fill:#121B27;" cx="4651.1" cy="1411.1" rx="399.4" ry="399.4"/>
			<path style="fill:#3A547A;" d="M4942.7,1119.5c-37.9-37.9-82-67.6-131.1-88.4c-50.9-21.5-104.9-32.4-160.5-32.4
				c-55.7,0-109.7,10.9-160.5,32.4c-49.1,20.8-93.2,50.5-131.1,88.4c-37.9,37.9-67.6,82-88.4,131.1
				c-21.5,50.9-32.4,104.9-32.4,160.5c0,55.7,10.9,109.7,32.4,160.5c20.8,49.1,50.5,93.2,88.4,131.1c37.9,37.9,82,67.6,131.1,88.4
				c50.9,21.5,104.9,32.4,160.5,32.4c55.7,0,109.7-10.9,160.5-32.4c49.1-20.8,93.2-50.5,131.1-88.4s67.6-82,88.4-131.1
				c21.5-50.9,32.4-104.9,32.4-160.5c0-55.7-10.9-109.7-32.4-160.5C5010.3,1201.5,4980.6,1157.4,4942.7,1119.5z M4651.1,1810.6
				c-220.6,0-399.4-178.8-399.4-399.4s178.8-399.4,399.4-399.4c220.6,0,399.4,178.8,399.4,399.4S4871.7,1810.6,4651.1,1810.6z"/>
		</g>
		<g>
			<path style="fill:#121B27;" d="M4814.2,1640.8H4488c-63.3,0-99.2,19.4-123.3,48.8c72.6,74.6,174.1,121,286.4,121
				c112.3,0,213.8-46.4,286.4-121C4913.4,1660.2,4877.5,1640.8,4814.2,1640.8z"/>
			<path style="fill:#5083C6;" d="M4814.2,1627.8H4488c-61,0-103.4,17-133.3,53.6c-4.2,5.1-3.9,12.5,0.7,17.3
				c38,39.1,82.6,69.8,132.4,91.3c51.6,22.3,106.5,33.6,163.2,33.6c56.7,0,111.6-11.3,163.2-33.6c49.9-21.5,94.4-52.2,132.4-91.3
				c4.6-4.7,4.9-12.2,0.7-17.3C4917.6,1644.8,4875.2,1627.8,4814.2,1627.8z M4651.1,1810.6c-112.3,0-213.8-46.4-286.4-121
				c24.1-29.4,59.9-48.8,123.3-48.8h326.2c63.3,0,99.2,19.4,123.3,48.8C4864.9,1764.2,4763.4,1810.6,4651.1,1810.6z"/>
		</g>
		<g>
			<path style="fill:#121B27;" d="M4551.2,1702.7c0,12.6,44.7,22.8,99.9,22.8c55.2,0,99.9-10.2,99.9-22.8V1544h-199.7V1702.7z"/>
			<path style="fill:#5083C6;" d="M4751,1531h-199.7c-7.2,0-13,5.8-13,13v158.8c0,5.6,2.5,13.7,14.7,20.3c6.1,3.3,14.4,6.1,24.7,8.5
				c19.8,4.5,45.9,7,73.5,7c27.6,0,53.7-2.5,73.5-7c10.3-2.4,18.6-5.2,24.7-8.5c12.1-6.5,14.7-14.6,14.7-20.3V1544
				C4763.9,1536.8,4758.1,1531,4751,1531z M4751,1702.7c0,12.6-44.7,22.8-99.9,22.8c-55.1,0-99.9-10.2-99.9-22.8V1544H4751V1702.7z"
				/>
		</g>
		<path style="fill:#121B27;" d="M4551.2,1639.2c27.3,16.2,59.9,25.6,94.9,25.6c39.3,0,75.6-11.9,104.8-31.9V1544h-199.7V1639.2z"/>
		<g>
			<g>
				<g>
					<path style="fill:#121B27;" d="M4484.7,1330.9c-14.4,0-37,12.6-34.6,40.3l8.6,63.1c0,14.3,11.6,26,26,26
						c14.3,0,45.2-18.5,45.2-32.8l-0.1-60.4C4529.7,1352.6,4499,1330.9,4484.7,1330.9z"/>
					<path style="fill:#5083C6;" d="M4520.4,1333.3c-4.7-3.6-21.2-15.3-35.8-15.3c-12.6,0-26.1,6.1-35.2,16
						c-6.5,7.1-14,19.5-12.4,38.3c0,0.2,0,0.4,0.1,0.7l8.5,62.3c0.5,21,17.8,38,38.9,38c11.5,0,25.7-6.8,35.2-13.3
						c19-12.8,22.9-24.8,22.9-32.6l-0.1-60.5C4542.7,1352.4,4528.7,1339.6,4520.4,1333.3z M4484.7,1460.3c-14.4,0-26-11.6-26-26
						l-8.6-63.1c-2.4-27.7,20.2-40.3,34.6-40.3c14.3,0,45.1,21.7,45.1,36l0.1,60.4C4529.9,1441.8,4499,1460.3,4484.7,1460.3z"/>
				</g>
			</g>
			<g>
				<g>
					<path style="fill:#121B27;" d="M4817.5,1330.9c-14.3,0-45.1,21.7-45.1,36l-0.1,60.4c0,14.3,30.9,32.8,45.2,32.8
						c14.4,0,26-11.6,26-26l8.6-63.1C4854.5,1343.5,4831.9,1330.9,4817.5,1330.9z"/>
					<path style="fill:#5083C6;" d="M4817.5,1318c-14.6,0-31.1,11.7-35.8,15.3c-8.3,6.3-22.3,19.1-22.3,33.7l-0.1,60.4
						c0,7.8,4,19.8,22.9,32.6c9.5,6.4,23.7,13.3,35.2,13.3c21.2,0,38.4-16.9,38.9-38l8.5-62.3c0-0.2,0.1-0.4,0.1-0.7
						c1.6-18.8-5.8-31.2-12.4-38.3C4843.6,1324.1,4830.2,1318,4817.5,1318z M4852.1,1371.2l-8.6,63.1c0,14.3-11.6,26-26,26
						c-14.3,0-45.2-18.5-45.2-32.8l0.1-60.4c0-14.4,30.7-36,45.1-36C4831.9,1330.9,4854.5,1343.5,4852.1,1371.2z"/>
				</g>
			</g>
		</g>
		<g>
			<path style="fill:#121B27;" d="M4492.2,1529.9c0,38.2,86.5,94.9,162.5,94.9c82.7,0,150.2-56.7,150.2-94.9l22.2-333.2h-351.7
				L4492.2,1529.9z"/>
			<path style="fill:#5083C6;" d="M4826.9,1183.7L4826.9,1183.7h-351.7c-3.6,0-7,1.5-9.4,4s-3.7,6-3.6,9.6l16.9,332.9
				c0.1,12.4,6.1,25.6,17.9,39.1c10.1,11.7,24.3,23.2,41.1,33.4c36.5,22.3,79,35,116.5,35c40.4,0,80.7-12.6,113.5-35.5
				c30.9-21.5,49.4-48.3,49.6-71.9l22.1-332.5c0-0.4,0-0.8,0-1.2C4839.9,1189.5,4834.1,1183.7,4826.9,1183.7z M4826.9,1209.7
				L4826.9,1209.7L4826.9,1209.7z M4826.9,1196.7l-22.2,333.2c0,38.2-67.4,94.9-150.2,94.9c-76,0-162.5-56.7-162.5-94.9l-16.9-333.2
				H4826.9L4826.9,1196.7L4826.9,1196.7z"/>
		</g>
		<g>
			<path style="fill:#121B27;" d="M4808.8,1127.1c-48.3-19.1-134-20.3-149.8-39.4c-4.3-5.2-6.7-8.9-7.9-11.5
				c-1.2,2.6-3.6,6.3-7.9,11.5c-15.8,19.1-101.5,20.3-149.8,39.4c-48.3,19.1-35.5,63-35.5,67.5s18.7,137.3,18.7,137.3
				s-2-85.5,43.4-106.9c40.4-19.1,115.3-5.9,131.1-2.8c15.8-3.1,90.7-16.2,131.1,2.8c45.3,21.4,43.4,106.9,43.4,106.9
				s18.7-132.8,18.7-137.3S4857.1,1146.3,4808.8,1127.1z"/>
			<path style="fill:#3A547A;" d="M4811.2,1121.1c-22.3-8.8-51.3-13.8-79.3-18.5c-28.5-4.8-60.7-10.3-67.9-19
				c-4.4-5.3-6.2-8.4-7-10.1c-1.1-2.3-3.4-3.8-5.9-3.8c-2.5,0-4.8,1.5-5.9,3.8c-0.8,1.7-2.6,4.8-7,10.1c-7.1,8.7-39.4,14.1-67.9,19
				c-28,4.8-57,9.7-79.3,18.5c-20.3,8.1-33.3,21.2-38.6,39c-4.2,14.1-2.1,27.3-1.3,32.9c0.1,0.7,0.2,1.6,0.3,1.8c0-0.1,0-0.1,0-0.2
				c0,4.6,14.4,107,18.8,138.2c0.5,3.4,3.5,5.8,7,5.6c3.4-0.3,6-3.2,6-6.6c0-0.8-1.4-81.6,39.7-100.9c38.7-18.3,112.7-5.2,127.1-2.3
				c0.8,0.2,1.7,0.2,2.5,0c14.4-2.8,88.4-15.9,127.1,2.3c41,19.3,39.7,100.1,39.7,100.9c-0.1,3.4,2.5,6.3,6,6.6c0.2,0,0.4,0,0.5,0
				c3.2,0,6-2.4,6.4-5.6c4.4-31.3,18.8-133.6,18.8-138.2c0,0.1,0,0.1,0,0.2c0-0.3,0.2-1.1,0.3-1.8c0.9-5.6,2.9-18.8-1.3-32.9
				C4844.5,1142.3,4831.5,1129.2,4811.2,1121.1z M4838.2,1191c-0.2,1.6-0.4,2.6-0.4,3.5c-0.2,3.8-5.8,44.3-11.6,86
				c-5.9-24.3-17.7-50.3-41.3-61.4c-17.3-8.2-40.1-10.8-62.4-10.8c-29.8,0-58.5,4.7-71.5,7.2c-9.4-1.8-31.2-5.5-56-6.8
				c-33.6-1.7-59.8,1.8-77.9,10.3c-23.5,11.1-35.4,37.1-41.3,61.4c-5.8-41.8-11.4-82.3-11.6-86c0-0.9-0.2-1.9-0.4-3.5
				c-1.6-10.5-6.6-42.7,31.8-57.9c21.1-8.3,49.3-13.1,76.7-17.8c36.6-6.2,65.5-11.1,75.7-23.5c1-1.3,2-2.5,2.9-3.6
				c0.9,1.2,1.8,2.4,2.9,3.6c10.2,12.4,39.1,17.3,75.7,23.5c27.4,4.6,55.6,9.4,76.7,17.8C4844.8,1148.4,4839.8,1180.5,4838.2,1191z"
				/>
		</g>
		<path style="fill:#121B27;" d="M4481.6,1322.2c5.3-23.7,16.1-49.6,38.4-60.1c40.4-19.1,115.3-5.9,131.1-2.8
			c15.8-3.1,90.7-16.2,131.1,2.8c20.2,9.6,31.1,31.9,36.8,53.7l7.9-119.1h-351.7L4481.6,1322.2z"/>
		<g>
			<path style="fill:#121B27;" d="M4808.8,1127.1c-48.3-19.1-134-20.3-149.8-39.4c-4.3-5.2-6.7-8.9-7.9-11.5
				c-1.2,2.6-3.6,6.3-7.9,11.5c-15.8,19.1-101.5,20.3-149.8,39.4c-48.3,19.1-35.5,63-35.5,67.5s18.7,137.3,18.7,137.3
				s-2-85.5,43.4-106.9c40.4-19.1,115.3-5.9,131.1-2.8c15.8-3.1,90.7-16.2,131.1,2.8c45.3,21.4,43.4,106.9,43.4,106.9
				s18.7-132.8,18.7-137.3S4857.1,1146.3,4808.8,1127.1z"/>
			<path style="fill:#5083C6;" d="M4811.2,1121.1c-22.3-8.8-51.3-13.8-79.3-18.5c-28.5-4.8-60.7-10.3-67.9-19
				c-4.4-5.3-6.2-8.4-7-10.1c-1.1-2.3-3.4-3.8-5.9-3.8c-2.5,0-4.8,1.5-5.9,3.8c-0.8,1.7-2.6,4.8-7,10.1c-7.1,8.7-39.4,14.1-67.9,19
				c-28,4.8-57,9.7-79.3,18.5c-20.3,8.1-33.3,21.2-38.6,39c-4.2,14.1-2.1,27.3-1.3,32.9c0.1,0.7,0.2,1.6,0.3,1.8c0-0.1,0-0.1,0-0.2
				c0,4.6,14.4,107,18.8,138.2c0.5,3.4,3.5,5.8,7,5.6c3.4-0.3,6-3.2,6-6.6c0-0.8-1.4-81.6,39.7-100.9c38.7-18.3,112.7-5.2,127.1-2.3
				c0.8,0.2,1.7,0.2,2.5,0c14.4-2.8,88.4-15.9,127.1,2.3c41,19.3,39.7,100.1,39.7,100.9c-0.1,3.4,2.5,6.3,6,6.6c0.2,0,0.4,0,0.5,0
				c3.2,0,6-2.4,6.4-5.6c4.4-31.3,18.8-133.6,18.8-138.2c0,0.1,0,0.1,0,0.2c0-0.3,0.2-1.1,0.3-1.8c0.9-5.6,2.9-18.8-1.3-32.9
				C4844.5,1142.3,4831.5,1129.2,4811.2,1121.1z M4838.2,1191c-0.2,1.6-0.4,2.6-0.4,3.5c-0.2,3.8-5.8,44.3-11.6,86
				c-5.9-24.3-17.7-50.3-41.3-61.4c-17.3-8.2-40.1-10.8-62.4-10.8c-29.8,0-58.5,4.7-71.5,7.2c-9.4-1.8-31.2-5.5-56-6.8
				c-33.6-1.7-59.8,1.8-77.9,10.3c-23.5,11.1-35.4,37.1-41.3,61.4c-5.8-41.8-11.4-82.3-11.6-86c0-0.9-0.2-1.9-0.4-3.5
				c-1.6-10.5-6.6-42.7,31.8-57.9c21.1-8.3,49.3-13.1,76.7-17.8c36.6-6.2,65.5-11.1,75.7-23.5c1-1.3,2-2.5,2.9-3.6
				c0.9,1.2,1.8,2.4,2.9,3.6c10.2,12.4,39.1,17.3,75.7,23.5c27.4,4.6,55.6,9.4,76.7,17.8C4844.8,1148.4,4839.8,1180.5,4838.2,1191z"
				/>
		</g>
	</g>
	<g>
		<g>
			<g>
				<path style="fill:#121B27;" d="M5184.8,1614h-305.6c-15.4,0-27.9,12.5-27.9,27.9v216.3c0,15.4,12.5,27.9,27.9,27.9h119
					l98.1,98.1v-98.1h88.4c15.4,0,27.9-12.5,27.9-27.9v-216.3C5212.7,1626.5,5200.2,1614,5184.8,1614z"/>
				<path style="fill:#3A547A;" d="M5184.8,1601h-305.6c-22.6,0-40.9,18.3-40.9,40.9v216.3c0,22.5,18.3,40.9,40.9,40.9h113.7
					l94.3,94.3c2.5,2.5,5.8,3.8,9.2,3.8c1.7,0,3.4-0.3,5-1c4.8-2,8-6.7,8-12v-85.2h75.4c22.5,0,40.9-18.3,40.9-40.9v-216.3
					C5225.7,1619.3,5207.3,1601,5184.8,1601z M5212.7,1858.2c0,15.4-12.5,27.9-27.9,27.9h-88.4v98.1l-98.1-98.1h-119
					c-15.4,0-27.9-12.5-27.9-27.9v-216.3c0-15.4,12.5-27.9,27.9-27.9h305.6c15.4,0,27.9,12.5,27.9,27.9V1858.2z"/>
			</g>
			<g>
				<g>
					<path style="fill:#35E8C6;" d="M5129.3,1684.6h-194.6c-3.6,0-6.5,2.9-6.5,6.5s2.9,6.5,6.5,6.5h194.6c3.6,0,6.5-2.9,6.5-6.5
						S5132.9,1684.6,5129.3,1684.6z"/>
					<path style="fill:#3A547A;" d="M5129.3,1748.5h-194.6c-3.6,0-6.5,2.9-6.5,6.5s2.9,6.5,6.5,6.5h194.6c3.6,0,6.5-2.9,6.5-6.5
						S5132.9,1748.5,5129.3,1748.5z"/>
				</g>
				<g>
					<path style="fill:#35E8C6;" d="M5129.3,1748.5h-194.6c-3.6,0-6.5,2.9-6.5,6.5s2.9,6.5,6.5,6.5h194.6c3.6,0,6.5-2.9,6.5-6.5
						S5132.9,1748.5,5129.3,1748.5z"/>
				</g>
				<g>
					<path style="fill:#35E8C6;" d="M5010.9,1812.5h-76.2c-3.6,0-6.5,2.9-6.5,6.5s2.9,6.5,6.5,6.5h76.2c3.6,0,6.5-2.9,6.5-6.5
						S5014.5,1812.5,5010.9,1812.5z"/>
				</g>
			</g>
		</g>
	</g>
	<g>
		<g>
			<g>
				<path style="fill:#121B27;" d="M4282.6,1250.4H1717.4c-52.1,0-94.3,42.2-94.3,94.3v188.6v1238.9v333.9h2753.8v-333.9V1533.4
					v-188.6C4376.9,1292.7,4334.7,1250.4,4282.6,1250.4z"/>
				<path style="fill:#3A547A;" d="M4282.6,1235.8H1717.4c-29.1,0-56.5,11.3-77.1,31.9c-20.6,20.6-31.9,47.9-31.9,77.1v188.6v1238.9
					v333.9c0,8.1,6.6,14.7,14.7,14.7h2753.8c8.1,0,14.7-6.6,14.7-14.7v-333.9V1533.4v-188.6c0-29.1-11.3-56.5-31.9-77.1
					C4339.1,1247.1,4311.7,1235.8,4282.6,1235.8z M4376.9,1533.4v1238.9v333.9H1623.1v-333.9V1533.4v-188.6
					c0-52.1,42.2-94.3,94.3-94.3h2565.2c52.1,0,94.3,42.2,94.3,94.3V1533.4z"/>
			</g>
			<g>
				<path style="fill:#121B27;" d="M4273,1292H1727c-32.2,0-58.4,26.1-58.4,58.4v215.2v1192.8v372.5h2662.7v-372.5V1565.6v-215.2
					C4331.4,1318.1,4305.2,1292,4273,1292z"/>
				<path style="fill:#3A547A;" d="M4273,1277.3H1727c-40.3,0-73,32.8-73,73v215.2v1192.8v372.5c0,8.1,6.6,14.7,14.7,14.7h2662.7
					c8.1,0,14.7-6.6,14.7-14.7v-372.5V1565.6v-215.2C4346,1310.1,4313.3,1277.3,4273,1277.3z M4331.4,1565.6v1192.8v372.5H1668.6
					v-372.5V1565.6v-215.2c0-32.2,26.1-58.4,58.4-58.4h2546c32.2,0,58.4,26.1,58.4,58.4V1565.6z"/>
			</g>
			<g>
				<path style="fill:#121B27;" d="M1338.6,3136.7c0,62.3,87.2,112.9,194.8,112.9h2933.1c107.6,0,194.8-50.5,194.8-112.9v-30.5
					H1338.6V3136.7z"/>
				<path style="fill:#3A547A;" d="M4661.4,3091.5H1338.6c-8.1,0-14.7,6.6-14.7,14.7v30.5c0,18.4,6.1,36.1,18.1,52.6
					c11,15.1,26.6,28.5,46.2,39.9c39,22.6,90.5,35,145.1,35h2933.1c54.6,0,106.1-12.4,145.1-35c19.7-11.4,35.2-24.8,46.2-39.9
					c12-16.5,18.1-34.2,18.1-52.6v-30.5C4676.1,3098.1,4669.5,3091.5,4661.4,3091.5z M4661.4,3136.7c0,62.3-87.2,112.9-194.8,112.9
					H1533.4c-107.6,0-194.8-50.5-194.8-112.9v-30.5h3322.8V3136.7z"/>
			</g>
			<g>
				<g>
					<rect x="1829.1" y="1435.8" style="fill:#121B27;" width="2341.7" height="1523.8"/>
					<path style="fill:#35E8C6;" d="M4170.9,1421.1H1829.1c-8.1,0-14.7,6.6-14.7,14.7v1523.8c0,8.1,6.6,14.7,14.7,14.7h2341.7
						c8.1,0,14.7-6.6,14.7-14.7V1435.8C4185.5,1427.7,4179,1421.1,4170.9,1421.1z M4170.9,2959.6H1829.1V1435.8h2341.7V2959.6z"/>
				</g>
			</g>
			<g>
				<path style="fill:#121B27;" d="M1338.6,3136.7c0,17.5,6.8,34,19.1,48.8h3284.7c12.2-14.8,19.1-31.3,19.1-48.8v-30.5H1338.6
					V3136.7z"/>
				<path style="fill:#3A547A;" d="M4661.4,3091.5H1338.6c-8.1,0-14.7,6.6-14.7,14.7v30.5c0,20.3,7.8,40.4,22.4,58.1
					c2.8,3.4,6.9,5.3,11.3,5.3h3284.7c4.4,0,8.5-1.9,11.3-5.3c14.7-17.7,22.4-37.8,22.4-58.1v-30.5
					C4676.1,3098.1,4669.5,3091.5,4661.4,3091.5z M4661.4,3136.7c0,17.5-6.8,34-19.1,48.8H1357.7c-12.2-14.8-19.1-31.3-19.1-48.8
					v-30.5h3322.8V3136.7z"/>
			</g>
		</g>
		<g>
			<g>
				<path style="fill:#121B27;" d="M3375.3,2685.1H2593c-118.5,0-221.2,105-290.2,274.5h1376.3
					C3618.2,2799.3,3502.6,2685.1,3375.3,2685.1z"/>
				<path style="fill:#35E8C6;" d="M3562.1,2751.5c-57.2-53-121.8-81-186.7-81H2593c-31.2,0-62.1,6.9-91.7,20.4
					c-28.5,13-56.1,32.3-82.1,57.4c-25.2,24.3-49.1,54.3-71,89.1c-21.6,34.3-41.4,73.5-59,116.6c-1.8,4.5-1.3,9.7,1.4,13.7
					c2.7,4.1,7.3,6.5,12.2,6.5h1376.3c4.8,0,9.3-2.4,12.1-6.3c2.7-4,3.3-9,1.6-13.5C3661.4,2871.9,3616.2,2801.7,3562.1,2751.5z
					 M2302.7,2959.6c69.1-169.4,171.7-274.5,290.2-274.5h782.4c127.3,0,242.8,114.2,303.7,274.5H2302.7z"/>
			</g>
			<g>
				<path style="fill:#121B27;" d="M2761.7,2803.2c0,28.7,102.2,52,228.2,52c126,0,228.2-23.3,228.2-52v-362.8h-456.4V2803.2z"/>
				<path style="fill:#35E8C6;" d="M3218.1,2425.7h-456.4c-8.1,0-14.7,6.6-14.7,14.7v362.8c0,12.8,8.6,24,25.6,33.2
					c12.7,6.8,30.4,12.9,52.6,17.9c44.1,10.1,102.6,15.6,164.6,15.6c62,0,120.5-5.5,164.6-15.6c22.2-5.1,39.9-11.1,52.6-17.9
					c17-9.2,25.6-20.3,25.6-33.2v-362.8C3232.7,2432.3,3226.2,2425.7,3218.1,2425.7z M3218.1,2803.2c0,28.7-102.2,52-228.2,52
					c-126,0-228.2-23.3-228.2-52v-362.8h456.4V2803.2z"/>
			</g>
			<path style="fill:#121B27;" d="M2761.7,2658c62.4,37,136.9,58.5,216.8,58.5c89.9,0,172.8-27.2,239.6-73v-203.1h-456.4V2658z"/>
			<g>
				<path style="fill:#121B27;" d="M3312.2,2216.3l-13.1-2.2C3303.3,2215.4,3307.7,2216.3,3312.2,2216.3z"/>
				<path style="fill:#3A547A;" d="M3314.7,2201.8l-13.1-2.2c-0.8-0.1-1.7-0.2-2.5-0.2c-6.7,0-12.6,4.5-14.2,11.2
					c-1.8,7.5,2.5,15.1,9.8,17.4c6.2,2,11.9,2.9,17.5,2.9c7.6,0,14-5.8,14.6-13.4C3327.5,2209.9,3322.2,2203.1,3314.7,2201.8z
					 M3299.2,2214l13.1,2.2C3307.7,2216.3,3303.3,2215.4,3299.2,2214z"/>
			</g>
			<g>
				<path style="fill:#121B27;" d="M3272.6,2190.9c-37.6,3.1-80.8,2.5-93.8,2.5l120.4,20.6C3287.5,2210.3,3277.9,2202,3272.6,2190.9
					z"/>
				<path style="fill:#3A547A;" d="M3303.6,2200.1c-7.7-2.5-14.2-8.1-17.8-15.6c-2.5-5.1-7.6-8.2-13.2-8.2c-0.4,0-0.8,0-1.2,0.1
					c-20.3,1.7-44.8,2.5-75,2.5c-4.6,0-8.6,0-11.8,0c-2.3,0-4.3,0-5.8,0c-7.6,0-14,5.8-14.6,13.4s4.6,14.4,12.1,15.7l120.4,20.6
					c0.8,0.1,1.7,0.2,2.5,0.2c6.6,0,12.6-4.5,14.2-11.2C3315.2,2210,3310.9,2202.4,3303.6,2200.1z M3178.7,2193.4
					c3.7,0,9.9,0.1,17.6,0.1c19.5,0,49.3-0.3,76.2-2.6c5.4,11,14.9,19.4,26.6,23.1L3178.7,2193.4z"/>
			</g>
			<g>
				<path style="fill:#121B27;" d="M2921.4,2033.7h-365.1c-25.2,0-45.6,20.4-45.6,45.6l22.8,182.6c0,25.2,20.4,45.6,45.6,45.6h342.3
					c25.2,0,45.6-20.4,45.6-45.6v-182.6C2967.1,2054.1,2946.6,2033.7,2921.4,2033.7z"/>
				<path style="fill:#3A547A;" d="M2921.4,2019h-365.1c-33.2,0-60.3,27.1-60.3,60.3c0,0.6,0,1.2,0.1,1.8l22.7,181.7
					c0.5,32.8,27.4,59.3,60.3,59.3h342.3c33.3,0,60.3-27.1,60.3-60.3v-182.6C2981.7,2046.1,2954.7,2019,2921.4,2019z M2967.1,2261.9
					c0,25.2-20.4,45.6-45.6,45.6h-342.3c-25.2,0-45.6-20.4-45.6-45.6l-22.8-182.6c0-25.2,20.4-45.6,45.6-45.6h365.1
					c25.2,0,45.6,20.4,45.6,45.6V2261.9z"/>
			</g>
			<g>
				<path style="fill:#121B27;" d="M3468.3,1641c-58.1-82.1-151.4-63.3-201.7-63.3c-50.4,0-103.5-7.1-103.5,43.3
					c0,0,75.2,49.3,116.7,184.1c41.5,134.8,41.5,370.8,41.5,370.8c0,22,25,74.3,51.9,83c34.8,11.2,33.3,0.3,33.3-28.2
					C3406.4,2230.7,3526.4,1723,3468.3,1641z"/>
				<path style="fill:#35E8C6;" d="M3290.5,1569.6c-8.7,0.4-16.8,0.8-23.9,0.8c-5.5,0-11.2-0.1-16.6-0.2c-33-0.5-64.2-1-81.6,16.1
					c-8.4,8.2-12.6,19.9-12.6,34.6c0,2.5,1.2,4.8,3.3,6.1c0.7,0.5,73.5,49.3,113.7,180.1c16.8,54.6,29.2,135.6,36,234.2
					c5.1,74.7,5.2,133.9,5.2,134.4c0,12.4,6.6,32.1,16.8,50.1c7,12.3,21.5,33.9,40.1,39.9c8.7,2.8,16.3,4.7,22.6,4.7
					c4.7,0,8.7-1,12-3.4c8.3-6.1,8.3-17.4,8.2-33.2l0-2.4c2.7-11.3,31.1-133.7,52.6-263.7c13.2-79.9,21.3-147.1,24.1-199.7
					c3.5-68-1.8-111-16.2-131.4C3422.2,1563.2,3342.9,1567.1,3290.5,1569.6z M3475.8,1767.3c-2.7,52-10.7,118.7-23.9,198
					c-22.4,135.4-52.3,262.4-52.6,263.7c-0.1,0.6-0.2,1.1-0.2,1.7l0,3.2c0,9.2,0,19.7-2.2,21.3c-0.8,0.6-4.7,2.1-21.5-3.3
					c-23.3-7.5-46.8-56.8-46.8-76c0-0.6-0.1-60.1-5.2-135.3c-4.8-69.6-15-167.3-36.6-237.6c-21.8-70.8-53-118-75.3-145.1
					c-18.7-22.7-34.3-35.5-41-40.5c0.6-9,3.2-15.7,8.1-20.5c13-12.8,41.2-12.4,71.1-11.9c5.5,0.1,11.2,0.2,16.9,0.2
					c7.5,0,15.8-0.4,24.6-0.8c52.2-2.5,123.7-5.9,171.1,61C3477.6,1666.8,3478.1,1723.5,3475.8,1767.3z"/>
			</g>
			<g>
				<path style="fill:#121B27;" d="M3400.6,2033.7h-365.1c-25.2,0-45.6,20.4-45.6,45.6v182.6c0,25.2,20.4,45.6,45.6,45.6h342.3
					c25.2,0,45.6-20.4,45.6-45.6l22.8-182.6C3446.3,2054.1,3425.9,2033.7,3400.6,2033.7z"/>
				<path style="fill:#3A547A;" d="M3400.6,2019h-365.1c-33.2,0-60.3,27.1-60.3,60.3v182.6c0,33.2,27,60.3,60.3,60.3h342.3
					c32.9,0,59.8-26.5,60.3-59.3l22.7-181.7c0.1-0.6,0.1-1.2,0.1-1.8C3460.9,2046.1,3433.9,2019,3400.6,2019z M3423.5,2261.9
					c0,25.2-20.4,45.6-45.6,45.6h-342.3c-25.2,0-45.6-20.4-45.6-45.6v-182.6c0-25.2,20.4-45.6,45.6-45.6h365.1
					c25.2,0,45.6,20.4,45.6,45.6L3423.5,2261.9z"/>
			</g>
			<g>
				<path style="fill:#121B27;" d="M2579.1,1937.3v324.6c0,201.6,178.8,365.1,399.4,365.1c220.6,0,399.3-163.5,399.3-365.1v-602.1
					l-623.7,10.3L2579.1,1937.3z"/>
				<path style="fill:#35E8C6;" d="M3377.8,1645.1c-0.1,0-0.2,0-0.2,0l-623.7,10.3c-4.9,0.1-9.4,2.6-12,6.6l-175,267.3
					c-1.6,2.4-2.4,5.2-2.4,8v324.6c0,51.4,11,101.3,32.7,148.3c20.9,45.3,50.9,85.9,89,120.7c38,34.8,82.3,62.1,131.6,81.1
					c50.9,19.7,105,29.7,160.7,29.7c55.7,0,109.8-10,160.7-29.7c49.3-19,93.5-46.3,131.5-81.1c38.1-34.9,68.1-75.5,89-120.7
					c21.7-47,32.7-96.8,32.7-148.3v-602.1c0-3.9-1.6-7.7-4.4-10.5C3385.4,1646.6,3381.7,1645.1,3377.8,1645.1z M3377.8,2261.9
					c0,201.6-178.8,365.1-399.3,365.1c-220.6,0-399.4-163.5-399.4-365.1v-324.6l175-267.3l623.7-10.3V2261.9z"/>
			</g>
			<path style="fill:#121B27;" d="M2671.7,1795.9c64.2,0.7,140.3-31.1,280,6.8c129.9,35.3,253.2,66.1,362.3,51.6
				c24.2-3.2,45.3-10.8,63.8-21.7v-172.8l-623.7,10.3L2671.7,1795.9z"/>
			<g>
				<path style="fill:#121B27;" d="M2819.5,1597.1c0-50.4-141.8,4.2-192.2,4.2c-50.4,0-91.2,40.9-91.2,91.2l31.3,471.6
					c0,28.4,94-429.1,196.6-466.7C2896.4,1648.8,2819.5,1597.1,2819.5,1597.1z"/>
				<path style="fill:#35E8C6;" d="M2826.6,1593.2c-0.8-6.7-3.9-12.3-9-16.4c-20.7-16.7-72.9-5.2-123.4,5.8
					c-26.6,5.8-51.7,11.3-66.9,11.3c-54.3,0-98.6,44.2-98.6,98.6c0,0.2,0,0.3,0,0.5l31.3,471.4c0.2,7.2,6,8.2,6.6,8.3
					c0.4,0.1,0.8,0.1,1.1,0.1c5.5,0,7.3-5.5,8.2-8c0.7-2,1.6-5,2.7-9.1c2.1-7.7,5-18.6,8.7-32.4c14.1-53.7,40.4-153.7,72.6-241.9
					c26.5-72.7,66.6-162.4,106.5-177.1c51.5-18.9,79.2-41.2,82.3-66.3C2851.4,1615.6,2833.8,1599,2826.6,1593.2z M2834.2,1636.2
					c-1.6,13.2-15.5,33.3-72.8,54.3c-36.8,13.5-74.5,74.3-115.2,185.8c-32.4,88.8-58.8,189.3-73,243.2c-0.4,1.4-0.8,2.9-1.1,4.3
					l-28.7-431.6c0.1-46.2,37.7-83.7,83.9-83.7c16.9,0,42.7-5.6,70-11.6c23.6-5.2,48-10.5,68.8-12.8c27.1-3,38,0.6,42.3,4.1
					c2.6,2.1,3.7,4.8,3.7,8.8c0,2.4,1.2,4.7,3.2,6.1C2815.6,1603.3,2836.4,1617.8,2834.2,1636.2z"/>
			</g>
			<g>
				<path style="fill:#121B27;" d="M3309.3,1524.7c-62.1-10-167.9-108.2-266.7-135.1c-329.9-89.8-451.3,83.8-468.4,213.7
					c-4,30.3,13.1,114.2,87.4,156.8c77.7,44.5,135-42.4,320.8-9.8c132.5,23.3,258.1,42.8,365.5,18.4c193.9-44,94.7-310.7,94.7-310.7
					S3425.5,1543.5,3309.3,1524.7z"/>
				<path style="fill:#35E8C6;" d="M3449.5,1455.5c-1.1-3.1-4.2-5-7.5-4.8c-3.3,0.3-6,2.7-6.6,5.9c0,0.2-4,19.4-21.1,36.7
					c-23.2,23.5-58.1,31.6-103.9,24.2c-28.1-4.5-67.9-29.5-110.2-56c-48.3-30.2-103-64.5-155.8-78.9c-79-21.5-150.9-29.2-213.7-22.9
					c-55.7,5.6-104.5,22.1-145.2,49.2c-92.3,61.4-113.8,155.8-118.8,193.5c-2,15.4,0.7,44.9,14.9,77.7c11.3,26,33.7,62.1,76.2,86.5
					c39.3,22.5,73.8,13.6,117.6,2.3c48.6-12.5,109.1-28.2,205.6-11.2c92.3,16.2,177.9,29.7,256.3,29.7c39.1,0,76.5-3.4,112-11.4
					c47.8-10.9,82.5-35.8,103.3-74.1c21.8-40.3,27.8-94.1,18-159.9C3463.5,1493.4,3450.1,1457,3449.5,1455.5z M3439.9,1694.9
					c-18.6,34.4-50.1,56.9-93.6,66.8c-104,23.6-225.7,5.6-362.6-18.5c-31.4-5.5-59.1-7.7-83.9-7.7c-53.8,0-93.8,10.3-128,19.1
					c-42.1,10.9-72.5,18.7-106.6-0.8c-73.4-42.1-87.1-124.3-83.8-149.5c4.7-35.7,25.1-125.1,112.4-183.2
					c38.6-25.7,85.2-41.5,138.5-46.8c61-6.1,131.1,1.4,208.4,22.4c50.7,13.8,104.4,47.5,151.8,77.2c45.4,28.4,84.6,53,115.6,58
					c63.1,10.2,98.3-9.8,116.6-28.4c7.9-8,13.4-16.3,17.2-23.6c4.5,15.2,10.4,38.1,14.3,64.4
					C3462.8,1587.3,3465.1,1648.3,3439.9,1694.9z"/>
			</g>
		</g>
		<g>
			<g>
				<path style="fill:#121B27;" d="M3510.7,2037.3h-50.8c-14.6,0-26.5,11.9-26.5,26.5v277.3c0,14.6,11.9,26.5,26.5,26.5h50.8
					c14.6,0,26.5-11.9,26.5-26.5v-277.3C3537.2,2049.2,3525.3,2037.3,3510.7,2037.3z"/>
				<path style="fill:#35E8C6;" d="M3510.7,2030h-50.8c-18.7,0-33.8,15.2-33.8,33.8v277.3c0,18.7,15.2,33.8,33.8,33.8h50.8
					c18.7,0,33.8-15.2,33.8-33.8v-277.3C3544.5,2045.2,3529.3,2030,3510.7,2030z M3529.9,2341.1c0,10.6-8.6,19.2-19.2,19.2h-50.8
					c-10.6,0-19.2-8.6-19.2-19.2v-277.3c0-10.6,8.6-19.2,19.2-19.2h50.8c10.6,0,19.2,8.6,19.2,19.2V2341.1z"/>
			</g>
			<g>
				<path style="fill:#121B27;" d="M2505.6,2037.3h-50.8c-14.6,0-26.5,11.9-26.5,26.5v277.3c0,14.6,11.9,26.5,26.5,26.5h50.8
					c14.6,0,26.5-11.9,26.5-26.5v-277.3C2532.1,2049.2,2520.3,2037.3,2505.6,2037.3z"/>
				<path style="fill:#35E8C6;" d="M2505.6,2030h-50.8c-18.7,0-33.8,15.2-33.8,33.8v277.3c0,18.7,15.2,33.8,33.8,33.8h50.8
					c18.7,0,33.8-15.2,33.8-33.8v-277.3C2539.5,2045.2,2524.3,2030,2505.6,2030z M2524.8,2341.1c0,10.6-8.6,19.2-19.2,19.2h-50.8
					c-10.6,0-19.2-8.6-19.2-19.2v-277.3c0-10.6,8.6-19.2,19.2-19.2h50.8c10.6,0,19.2,8.6,19.2,19.2V2341.1z"/>
			</g>
			<g>
				<path style="fill:#121B27;" d="M3461.6,1998.4h-50.8c-14.6,0-26.5,11.9-26.5,26.5v355.2c0,14.6,11.9,26.5,26.5,26.5h50.8
					c14.6,0,26.5-11.9,26.5-26.5v-355.2C3488.2,2010.3,3476.3,1998.4,3461.6,1998.4z"/>
				<path style="fill:#35E8C6;" d="M3461.6,1991.1h-50.8c-18.7,0-33.8,15.2-33.8,33.8v355.2c0,18.7,15.2,33.8,33.8,33.8h50.8
					c18.7,0,33.8-15.2,33.8-33.8v-355.2C3495.5,2006.2,3480.3,1991.1,3461.6,1991.1z M3480.8,2380.1c0,10.6-8.6,19.2-19.2,19.2
					h-50.8c-10.6,0-19.2-8.6-19.2-19.2v-355.2c0-10.6,8.6-19.2,19.2-19.2h50.8c10.6,0,19.2,8.6,19.2,19.2V2380.1z"/>
			</g>
			<g>
				<path style="fill:#121B27;" d="M2569.1,2607.6c-12-9.1-16.5-22.3-16.5-48.7v-274h-37.5v274c0,27.1,3.7,57.5,31.2,78.5
					c18.8,14.3,71.6,32.3,82,35.8l0.5,0.2l371.8,101.6l9.9-36.1l-370.8-101.3C2616.4,2629.6,2579.3,2615.3,2569.1,2607.6z"/>
				<path style="fill:#35E8C6;" d="M3012.5,2731.7l-370.6-101.2c-26.4-8.8-59.9-22.3-68.3-28.7c-11.4-8.6-13.6-22.3-13.6-42.9v-274
					c0-4-3.3-7.3-7.3-7.3h-37.5c-4,0-7.3,3.3-7.3,7.3v274c0,28.9,4.1,61.4,34.1,84.3c19.2,14.7,69.2,32,84.1,36.9l0.5,0.2
					c0.1,0,0.3,0.1,0.4,0.1l371.8,101.6c0.6,0.2,1.3,0.3,1.9,0.3c1.3,0,2.5-0.3,3.6-1c1.7-1,2.9-2.6,3.4-4.4l9.9-36.1
					C3018.7,2736.8,3016.4,2732.8,3012.5,2731.7z M2995.5,2765.9l-364.5-99.6l-0.3-0.1c-28.2-9.4-66-24.1-79.9-34.7
					c-14-10.7-28.3-27.7-28.3-72.7v-266.7h22.8v266.7c0,28.6,5.4,43.9,19.3,54.5c12.8,9.8,56.9,25.7,72.8,31c0.1,0,0.3,0.1,0.4,0.1
					l363.7,99.4L2995.5,2765.9z"/>
			</g>
			<g>
				<path style="fill:#121B27;" d="M3010.7,2700.1l-90.2-18.6c-27.9-5.7-55.1,12.2-60.8,40c-5.7,27.9,12.2,55.1,40,60.8l90.2,18.6
					c27.9,5.7,55.1-12.2,60.8-40C3056.5,2733,3038.6,2705.8,3010.7,2700.1z"/>
				<path style="fill:#35E8C6;" d="M3012.2,2692.9l-90.2-18.6c-31.8-6.6-62.9,14-69.5,45.7c-3.2,15.4-0.2,31.1,8.5,44.2
					c8.6,13.1,21.9,22.1,37.3,25.3l90.2,18.6c4,0.8,8,1.2,11.9,1.2c27.3,0,51.9-19.2,57.6-47c3.2-15.4,0.2-31.1-8.5-44.2
					C3040.8,2705,3027.6,2696.1,3012.2,2692.9z M3043.6,2759.4c-4.9,23.8-28.3,39.2-52.2,34.3l-90.2-18.6c-11.6-2.4-21.5-9.1-28-19
					s-8.7-21.6-6.4-33.2c4.3-20.9,22.7-35.2,43.2-35.2c2.9,0,5.9,0.3,8.9,0.9l90.2,18.6c11.6,2.4,21.5,9.1,28,19
					C3043.7,2736.1,3046,2747.9,3043.6,2759.4z"/>
			</g>
			<g>
				<path style="fill:#121B27;" d="M2554.7,1998.4h-50.8c-14.6,0-26.5,11.9-26.5,26.5v355.2c0,14.6,11.9,26.5,26.5,26.5h50.8
					c14.6,0,26.5-11.9,26.5-26.5v-355.2C2581.2,2010.3,2569.3,1998.4,2554.7,1998.4z"/>
				<path style="fill:#35E8C6;" d="M2554.7,1991.1h-50.8c-18.7,0-33.8,15.2-33.8,33.8v355.2c0,18.7,15.2,33.8,33.8,33.8h50.8
					c18.7,0,33.8-15.2,33.8-33.8v-355.2C2588.5,2006.2,2573.3,1991.1,2554.7,1991.1z M2573.9,2380.1c0,10.6-8.6,19.2-19.2,19.2
					h-50.8c-10.6,0-19.2-8.6-19.2-19.2v-355.2c0-10.6,8.6-19.2,19.2-19.2h50.8c10.6,0,19.2,8.6,19.2,19.2V2380.1z"/>
			</g>
		</g>
	</g>
	<g>
		<g>
			<path style="fill:#3A547A;" d="M2989.7,4211.1c-66.4,21.9-137.4,16.7-199.8-14.8c-62.5-31.4-108.9-85.3-130.8-151.7
				c-1.1-3.4-4.8-5.3-8.2-4.1c-3.4,1.1-5.2,4.8-4.1,8.2c23,69.7,71.8,126.2,137.3,159.3c38.9,19.6,81,29.5,123.3,29.5
				c29,0,58.1-4.6,86.4-14c3.4-1.1,5.2-4.8,4.1-8.2C2996.8,4211.8,2993.1,4210,2989.7,4211.1z"/>
			<g>
				<path style="fill:#3A547A;" d="M3176,3958.2C3176,3958.2,3176,3958.2,3176,3958.2c-3.6,0-6.5,2.9-6.5,6.4
					c-0.9,112.2-73.1,211.3-179.8,246.5c-58.7,19.4-122.5,17.3-179.8-5.7c-56.6-22.8-103.6-64.7-132.5-118c-1.7-3.2-5.6-4.3-8.8-2.6
					c-3.2,1.7-4.3,5.6-2.6,8.8c30.3,56,79.6,100,139,123.9c32.8,13.2,67.6,19.8,102.5,19.8c29.1,0,58.2-4.6,86.2-13.8
					c111.9-37,187.7-140.9,188.7-258.7C3182.5,3961.2,3179.6,3958.2,3176,3958.2z"/>
				<path style="fill:#3A547A;" d="M3181.4,3961.2c-1.1-1.7-2.9-2.8-4.9-3c-2-0.2-4,0.5-5.4,2l-36,38.2c-2.5,2.6-2.3,6.7,0.3,9.2
					c2.6,2.5,6.7,2.3,9.2-0.3l30.3-32.1l22.8,36.2c1.2,2,3.3,3,5.5,3c1.2,0,2.4-0.3,3.4-1c3-1.9,3.9-5.9,2-8.9L3181.4,3961.2z"/>
			</g>
		</g>
		<g>
			<g>
				<path style="fill:#121B27;" d="M3077.2,3927.4H3028c-2.6-8.8-6-17.2-10.4-25l34.8-34.8c8.3-8.3,8.3-21.8,0-30.2l-19.6-19.6
					c-8.3-8.3-21.8-8.3-30.2,0l-34.8,34.8c-7.9-4.3-16.3-7.8-25-10.4V3793c0-11.8-9.6-21.3-21.3-21.3h-27.7
					c-11.8,0-21.3,9.6-21.3,21.3v49.2c-8.8,2.6-17.2,6-25,10.4l-34.8-34.8c-8.3-8.3-21.8-8.3-30.2,0l-19.6,19.6
					c-8.3,8.3-8.3,21.8,0,30.2l34.8,34.8c-4.3,7.9-7.8,16.3-10.4,25h-49.2c-11.8,0-21.3,9.6-21.3,21.3v27.7
					c0,11.8,9.6,21.3,21.3,21.3h49.2c2.6,8.8,6,17.2,10.4,25l-34.8,34.8c-8.3,8.3-8.3,21.8,0,30.2l19.6,19.6
					c8.3,8.3,21.8,8.3,30.2,0l34.8-34.8c7.9,4.3,16.3,7.8,25,10.4v49.2c0,11.8,9.6,21.3,21.3,21.3h27.7c11.8,0,21.3-9.6,21.3-21.3
					v-49.2c8.8-2.6,17.2-6,25-10.4l34.8,34.8c8.3,8.3,21.8,8.3,30.2,0l19.6-19.6c8.3-8.3,8.3-21.8,0-30.2l-34.8-34.8
					c4.3-7.9,7.8-16.3,10.4-25h49.2c11.8,0,21.3-9.6,21.3-21.3v-27.7C3098.5,3936.9,3088.9,3927.4,3077.2,3927.4z M2907.6,4022.6
					c-32.9,0-59.6-26.7-59.6-59.6s26.7-59.6,59.6-59.6c32.9,0,59.6,26.7,59.6,59.6S2940.6,4022.6,2907.6,4022.6z"/>
				<path style="fill:#35E8C6;" d="M3077.2,3920.9h-44.4c-2-6-4.4-11.8-7.2-17.3l31.4-31.4c10.8-10.8,10.8-28.5,0-39.3l-19.6-19.6
					c-5.3-5.3-12.2-8.1-19.7-8.1s-14.4,2.9-19.7,8.1l-31.4,31.4c-5.6-2.8-11.4-5.2-17.3-7.2V3793c0-15.3-12.5-27.8-27.8-27.8h-27.7
					c-15.3,0-27.8,12.5-27.8,27.8v44.4c-6,2-11.8,4.4-17.3,7.2l-31.4-31.4c-5.3-5.3-12.2-8.1-19.7-8.1s-14.4,2.9-19.7,8.1
					l-19.6,19.6c-10.8,10.8-10.8,28.5,0,39.3l31.4,31.4c-2.8,5.6-5.2,11.4-7.2,17.3h-44.4c-15.3,0-27.8,12.5-27.8,27.8v27.7
					c0,15.3,12.5,27.8,27.8,27.8h44.4c2,6,4.4,11.8,7.2,17.3l-31.4,31.4c-10.8,10.8-10.8,28.5,0,39.3l19.6,19.6
					c5.3,5.3,12.2,8.1,19.7,8.1s14.4-2.9,19.7-8.1l31.4-31.4c5.6,2.8,11.4,5.2,17.3,7.2v44.4c0,15.3,12.5,27.8,27.8,27.8h27.7
					c15.3,0,27.8-12.5,27.8-27.8v-44.4c6-2,11.8-4.4,17.3-7.2l31.4,31.4c5.3,5.3,12.2,8.1,19.7,8.1s14.4-2.9,19.7-8.1l19.6-19.6
					c10.8-10.8,10.8-28.5,0-39.3l-31.4-31.4c2.8-5.6,5.2-11.4,7.2-17.3h44.4c15.3,0,27.8-12.5,27.8-27.8v-27.7
					C3105,3933.4,3092.5,3920.9,3077.2,3920.9z M3092,3976.4c0,8.2-6.7,14.8-14.8,14.8H3028c-2.9,0-5.4,1.9-6.2,4.7
					c-2.4,8.3-5.7,16.3-9.8,23.7c-1.4,2.5-0.9,5.7,1.1,7.7l34.8,34.8c5.8,5.8,5.8,15.2,0,21l-19.6,19.6c-2.8,2.8-6.5,4.3-10.5,4.3
					c-4,0-7.7-1.5-10.5-4.3l-34.8-34.8c-2-2-5.2-2.5-7.7-1.1c-7.5,4.1-15.5,7.4-23.7,9.8c-2.8,0.8-4.7,3.3-4.7,6.2v49.2
					c0,8.2-6.7,14.8-14.9,14.8h-27.7c-8.2,0-14.8-6.7-14.8-14.8v-49.2c0-2.9-1.9-5.4-4.7-6.2c-8.3-2.4-16.3-5.7-23.7-9.8
					c-1-0.5-2.1-0.8-3.1-0.8c-1.7,0-3.3,0.7-4.6,1.9l-34.8,34.8c-2.8,2.8-6.5,4.3-10.5,4.3c-4,0-7.7-1.5-10.5-4.3l-19.6-19.6
					c-5.8-5.8-5.8-15.2,0-21l34.8-34.8c2-2,2.5-5.2,1.1-7.7c-4.1-7.5-7.4-15.4-9.8-23.7c-0.8-2.8-3.3-4.7-6.2-4.7h-49.2
					c-8.2,0-14.8-6.7-14.8-14.8v-27.7c0-8.2,6.7-14.8,14.8-14.8h49.2c2.9,0,5.4-1.9,6.2-4.7c2.4-8.3,5.7-16.3,9.8-23.7
					c1.4-2.5,0.9-5.7-1.1-7.7l-34.8-34.8c-5.8-5.8-5.8-15.2,0-21l19.6-19.6c2.8-2.8,6.5-4.3,10.5-4.3c4,0,7.7,1.5,10.5,4.3
					l34.8,34.8c2,2,5.2,2.5,7.7,1.1c7.5-4.1,15.5-7.4,23.7-9.8c2.8-0.8,4.7-3.3,4.7-6.2V3793c0-8.2,6.7-14.8,14.8-14.8h27.7
					c8.2,0,14.9,6.7,14.9,14.8v49.2c0,2.9,1.9,5.4,4.7,6.2c8.3,2.4,16.3,5.7,23.7,9.8c2.5,1.4,5.7,0.9,7.7-1.1l34.8-34.8
					c2.8-2.8,6.5-4.3,10.5-4.3c4,0,7.7,1.5,10.5,4.3l19.6,19.6c5.8,5.8,5.8,15.2,0,21l-34.8,34.8c-2,2-2.5,5.2-1.1,7.7
					c4.1,7.5,7.4,15.5,9.8,23.7c0.8,2.8,3.3,4.7,6.2,4.7h49.2c8.2,0,14.8,6.7,14.8,14.8V3976.4z"/>
				<path style="fill:#3A547A;" d="M2907.6,3896.9c-36.5,0-66.1,29.7-66.1,66.1s29.7,66.1,66.1,66.1c36.5,0,66.1-29.7,66.1-66.1
					S2944.1,3896.9,2907.6,3896.9z M2907.6,4016.2c-29.3,0-53.1-23.8-53.1-53.1s23.8-53.1,53.1-53.1c29.3,0,53.1,23.8,53.1,53.1
					S2936.9,4016.2,2907.6,4016.2z"/>
			</g>
			<g>
				<path style="fill:#121B27;" d="M2907.6,3877.8c-46.8,0-84.7,37.9-84.7,84.7s37.9,84.7,84.7,84.7c46.8,0,84.7-37.9,84.7-84.7
					S2954.4,3877.8,2907.6,3877.8z M2907.6,4011c-26.5,0-48-21.5-48-48s21.5-48,48-48c26.5,0,48,21.5,48,48S2934.1,4011,2907.6,4011
					z"/>
				<path style="fill:#35E8C6;" d="M2907.6,3908.5c-30,0-54.5,24.4-54.5,54.5s24.4,54.5,54.5,54.5c30,0,54.5-24.4,54.5-54.5
					S2937.7,3908.5,2907.6,3908.5z M2907.6,4004.5c-22.9,0-41.5-18.6-41.5-41.5s18.6-41.5,41.5-41.5c22.9,0,41.5,18.6,41.5,41.5
					S2930.5,4004.5,2907.6,4004.5z"/>
				<path style="fill:#35E8C6;" d="M2907.6,3871.3c-50.3,0-91.2,40.9-91.2,91.2s40.9,91.2,91.2,91.2c50.3,0,91.2-40.9,91.2-91.2
					S2957.9,3871.3,2907.6,3871.3z M2907.6,4040.8c-43.1,0-78.2-35.1-78.2-78.2s35.1-78.2,78.2-78.2c43.1,0,78.2,35.1,78.2,78.2
					S2950.8,4040.8,2907.6,4040.8z"/>
			</g>
		</g>
		<g>
			<g>
				<path style="fill:#3A547A;" d="M3010.2,3707.6c-60.1-24.2-127.1-26.3-188.7-6c-111.9,37-187.7,140.9-188.7,258.7
					c0,3.6,2.9,6.5,6.4,6.5c0,0,0,0,0.1,0c3.6,0,6.5-2.9,6.5-6.4c0.9-112.2,73.1-211.3,179.8-246.5c58.7-19.4,122.5-17.3,179.8,5.7
					c56.6,22.8,103.6,64.7,132.5,118c1.7,3.2,5.6,4.3,8.8,2.6c3.2-1.7,4.3-5.6,2.6-8.8C3118.9,3775.5,3069.5,3731.5,3010.2,3707.6z"
					/>
				<path style="fill:#3A547A;" d="M2670.6,3917.8l-30.3,32.1l-22.8-36.2c-1.9-3-5.9-3.9-8.9-2c-3,1.9-3.9,5.9-2,8.9l27.2,43.3
					c1.1,1.7,2.9,2.8,4.9,3c0.2,0,0.4,0,0.6,0c1.8,0,3.5-0.7,4.7-2l36-38.2c2.5-2.6,2.3-6.7-0.3-9.2
					C2677.2,3915,2673.1,3915.2,2670.6,3917.8z"/>
			</g>
		</g>
	</g>
	<g>
		<g>
			<path style="fill:#121B27;" d="M3948.5,3412c0,0-290.5,226.4-290.5,229.4v352.7c0,12.3,10,22.3,22.3,22.3h536.4
				c12.3,0,22.3-10,22.3-22.3v-352.7C4239,3638.4,3948.5,3412,3948.5,3412z"/>
			<path style="fill:#3A547A;" d="M4230.6,3625.7c-7.6-6.2-18.6-15-33-26.4c-24.1-19.2-57.7-45.7-99.9-78.7
				c-71.8-56.3-144.6-113-145.3-113.6c-2.3-1.8-5.6-1.8-8,0c-0.7,0.6-73.5,57.3-145.3,113.6c-42.2,33.1-75.8,59.6-99.9,78.7
				c-14.3,11.4-25.4,20.3-33,26.4c-14,11.4-14.9,12.1-14.9,15.7v352.7c0,15.9,12.9,28.8,28.8,28.8h536.4c15.9,0,28.8-12.9,28.8-28.8
				v-352.7C4245.5,3637.8,4244.7,3637.1,4230.6,3625.7z M4232.5,3994.1c0,8.7-7.1,15.8-15.9,15.8h-536.4c-8.7,0-15.8-7.1-15.8-15.8
				v-350c18.3-16,176-139.6,284-223.9c108.1,84.3,265.8,207.8,284,223.9V3994.1z"/>
		</g>
		<g>
			<polygon style="fill:#121B27;" points="3948.5,3915.1 4216.8,3736.5 3680.2,3736.5 			"/>
			<path style="fill:#3A547A;" d="M4213.2,3731.1l-264.7,176.2l-264.7-176.2c-3-2-7-1.2-9,1.8c-2,3-1.2,7,1.8,9l268.3,178.6
				c1.1,0.7,2.3,1.1,3.6,1.1s2.5-0.4,3.6-1.1l268.3-178.6c3-2,3.8-6,1.8-9C4220.2,3729.9,4216.2,3729.1,4213.2,3731.1z"/>
		</g>
		<g>
			<path style="fill:#121B27;" d="M4129.1,3508.2h-361.2c-12.3,0-22.3,10-22.3,22.3V3780l167.5,111.5h70.9l167.5-111.5v-249.5
				C4151.4,3518.2,4141.4,3508.2,4129.1,3508.2z"/>
			<path style="fill:#35E8C6;" d="M4129.1,3500.9h-361.2c-16.4,0-29.7,13.3-29.7,29.7V3780c0,2.5,1.2,4.7,3.3,6.1l167.5,111.5
				c1.2,0.8,2.6,1.2,4.1,1.2h70.9c1.4,0,2.9-0.4,4.1-1.2l167.5-111.5c2-1.4,3.3-3.6,3.3-6.1v-249.5
				C4158.8,3514.2,4145.4,3500.9,4129.1,3500.9z M4144.1,3776.1l-162.4,108.1h-66.5l-162.4-108.1v-245.5c0-8.3,6.7-15,15-15h361.2
				c8.3,0,15,6.7,15,15V3776.1z"/>
		</g>
		<g>
			<polygon style="fill:#121B27;" points="3680.2,3993.4 4216.8,3993.4 3948.5,3814.7 			"/>
			<path style="fill:#3A547A;" d="M4220.4,3988l-268.3-178.6c-2.2-1.4-5-1.4-7.2,0L3676.6,3988c-3,2-3.8,6-1.8,9c2,3,6,3.8,9,1.8
				l264.7-176.2l264.7,176.2c1.1,0.7,2.4,1.1,3.6,1.1c2.1,0,4.2-1,5.4-2.9C4224.2,3994,4223.4,3989.9,4220.4,3988z"/>
		</g>
		<g>
			<path style="fill:#BBFFF2;" d="M4091.3,3680.7h-285.6c-3.6,0-6.5,2.9-6.5,6.5s2.9,6.5,6.5,6.5h285.6c3.6,0,6.5-2.9,6.5-6.5
				S4094.9,3680.7,4091.3,3680.7z"/>
			<path style="fill:#BBFFF2;" d="M4091.3,3722.6h-285.6c-3.6,0-6.5,2.9-6.5,6.5s2.9,6.5,6.5,6.5h285.6c3.6,0,6.5-2.9,6.5-6.5
				S4094.9,3722.6,4091.3,3722.6z"/>
			<path style="fill:#BBFFF2;" d="M3976,3764.5h-170.3c-3.6,0-6.5,2.9-6.5,6.5s2.9,6.5,6.5,6.5H3976c3.6,0,6.5-2.9,6.5-6.5
				S3979.6,3764.5,3976,3764.5z"/>
		</g>
		<g>
			<rect x="3805.7" y="3546.2" style="fill:#121B27;" width="285.6" height="96.9"/>
			<path style="fill:#BBFFF2;" d="M4091.3,3538.8h-285.6c-4,0-7.3,3.3-7.3,7.3v96.9c0,4,3.3,7.3,7.3,7.3h285.6c4,0,7.3-3.3,7.3-7.3
				v-96.9C4098.6,3542.1,4095.3,3538.8,4091.3,3538.8z M4083.9,3635.7h-271v-82.2h271V3635.7z"/>
		</g>
	</g>
	<g>
		<g>
			<g>
				<circle style="fill:#121B27;" cx="1561" cy="858.8" r="491.4"/>
				<path style="fill:#3A547A;" d="M1917.6,502.2c-46.3-46.3-100.3-82.7-160.3-108.1c-62.2-26.3-128.2-39.6-196.3-39.6
					s-134.1,13.3-196.3,39.6c-60.1,25.4-114,61.8-160.3,108.1c-46.3,46.3-82.7,100.3-108.1,160.3c-26.3,62.2-39.6,128.2-39.6,196.3
					c0,68.1,13.3,134.1,39.6,196.3c25.4,60.1,61.8,114,108.1,160.3c46.3,46.3,100.3,82.7,160.3,108.1
					c62.2,26.3,128.2,39.6,196.3,39.6s134.1-13.3,196.3-39.6c60.1-25.4,114-61.8,160.3-108.1s82.7-100.3,108.1-160.3
					c26.3-62.2,39.6-128.2,39.6-196.3c0-68.1-13.3-134.1-39.6-196.3C2000.3,602.5,1963.9,548.5,1917.6,502.2z M1561,1350.2
					c-271.4,0-491.4-220-491.4-491.4c0-271.4,220-491.4,491.4-491.4c271.4,0,491.4,220,491.4,491.4
					C2052.4,1130.2,1832.4,1350.2,1561,1350.2z"/>
			</g>
			<g>
				<path style="fill:#121B27;" d="M1807.4,710.3l-151.8-118.7l-295.4,11l-66.3,334.1l-49.2,179.2c0,0,154,26.1,318.5,26.1
					c143.6,0,335.9-26.1,335.9-26.1l-64-107.4L1807.4,710.3z"/>
				<path style="fill:#5083C6;" d="M1841.3,1006.4l-27.5-296.7c-0.2-1.8-1.1-3.4-2.5-4.5l-151.8-118.7c-1.2-0.9-2.7-1.4-4.2-1.4
					l-295.4,11c-3,0.1-5.5,2.3-6.1,5.2l-66.2,333.8l-49.1,179c-0.5,1.8-0.2,3.7,0.8,5.2c1,1.5,2.6,2.6,4.4,2.9
					c1.5,0.3,156.4,26.2,319.5,26.2c142.4,0,334.8-25.9,336.7-26.1c2.2-0.3,4-1.6,5-3.6s0.8-4.3-0.3-6.1L1841.3,1006.4z
					 M1293.9,936.7L1293.9,936.7L1293.9,936.7z M1563.1,1135.4c-142.2,0-278.2-19.8-310.3-24.8l47.3-172.2c0-0.2,0.1-0.3,0.1-0.5
					l65.3-329l287.9-10.8l147.8,115.5l27.3,295.4c0.1,1,0.4,1.9,0.9,2.7l58.9,98.9C1847.4,1115.9,1686.3,1135.4,1563.1,1135.4z"/>
			</g>
			<g>
				<g>
					<path style="fill:#121B27;" d="M1360.3,1182.8c-61.4,0-101.9,14.9-130.7,38.9c87.4,79.9,203.7,128.6,331.4,128.6
						s244-48.7,331.4-128.6c-28.9-24-69.3-38.9-130.7-38.9H1360.3z"/>
					<path style="fill:#5083C6;" d="M1900.7,1211.7c-33.9-28.2-79.4-41.9-139-41.9h-401.3c-59.7,0-105.1,13.7-139,41.9
						c-2.9,2.4-4.6,5.9-4.7,9.7c-0.1,3.7,1.5,7.4,4.2,9.9c93.1,85.1,213.9,132,340.1,132c126.2,0,247-46.9,340.1-132
						c2.8-2.5,4.3-6.1,4.2-9.9C1905.2,1217.6,1903.5,1214.1,1900.7,1211.7z M1561,1350.2c-127.7,0-244-48.7-331.4-128.6
						c28.9-24,69.3-38.9,130.7-38.9h401.3c61.4,0,101.9,14.9,130.7,38.9C1805,1301.5,1688.7,1350.2,1561,1350.2z"/>
				</g>
				<g>
					<path style="fill:#121B27;" d="M1438.1,1217.6c0,15.5,55,28,122.9,28c67.8,0,122.9-12.5,122.9-28v-195.3h-245.7V1217.6z"/>
					<path style="fill:#5083C6;" d="M1683.8,1009.3h-245.7c-7.2,0-13,5.8-13,13v195.3c0,11.1,9,18.3,16.5,22.3
						c7.2,3.9,17.2,7.3,29.6,10.1c24.1,5.5,56,8.5,89.8,8.5c33.8,0,65.6-3,89.8-8.5c12.4-2.8,22.4-6.2,29.6-10.1
						c7.5-4,16.5-11.2,16.5-22.3v-195.3C1696.8,1015.1,1691,1009.3,1683.8,1009.3z M1683.8,1217.6c0,15.5-55,28-122.9,28
						c-67.8,0-122.9-12.5-122.9-28v-195.3h245.7V1217.6z"/>
				</g>
				<path style="fill:#121B27;" d="M1438.1,1139.4c33.6,19.9,73.7,31.5,116.7,31.5c48.4,0,93.1-14.6,129-39.3v-109.3h-245.7V1139.4z
					"/>
			</g>
			<g>
				<g>
					<path style="fill:#121B27;" d="M1339.5,985.2c0,47.3,129.3,117.6,223.6,117.6c102.6,0,212.6-70.3,212.6-117.6V571.9h-436.1
						V985.2z"/>
					<path style="fill:#5083C6;" d="M1775.7,558.9h-436.1c-7.2,0-13,5.8-13,13v413.2c0,39.4,58.3,74.7,83.3,88
						c50.1,26.7,107.4,42.6,153.2,42.6c49.4,0,104.6-15.6,151.3-42.8c21.3-12.4,39.3-26.5,52.1-40.8c14.7-16.3,22.1-32.1,22.1-47
						V571.9C1788.6,564.8,1782.8,558.9,1775.7,558.9z M1775.7,985.2c0,47.3-110,117.6-212.6,117.6c-94.2,0-223.6-70.3-223.6-117.6
						V571.9h436.1V985.2z"/>
				</g>
			</g>
			<path style="fill:#121B27;" d="M1340.6,610.3l53.6-21.9c0,0-45.1,71.9,64.6,112.2c109.7,40.2,153.6,13.4,153.6,13.4l-17.1-24.4
				c0,0,40.2,37.8,113.4,45.1c30.2,3,51.8-4.3,66.9-14V571.9h-389.3L1340.6,610.3z"/>
			<g>
				<path style="fill:#121B27;" d="M1800.7,543.1c-4.2-6.8-9.2-13.8-15.1-21.1c-43.8-54.4-226.8-84.1-303.6-57.3
					c-47.6,16.6-70.4,37-80.8,50.1c-14.6,3.5-27.8,8-35,11.7c-69.5,35.9-113.4,157.3-117.5,307.2c-4.1,149.9-4.1,278.5-4.1,278.5
					c0,15.2,134.6,32.2,132.3,12.9c-22.8-192.8,10.5-409.3,32-490.9c11.2,10.1,27.2,19.7,49.8,28c109.7,40.2,153.6,13.4,153.6,13.4
					l-17.1-24.4c0,0,40.2,37.8,113.4,45.1c15.2,1.5,28.2,0.4,39.4-2.3c8.6,46.2,13.4,91.2,18.2,134.3c6.8,60.4,14.5,236.9,0.3,296.8
					c-4.5,18.9,132.3,2.3,132.3-12.9c0,0,0-128.6-4.1-278.5C1891.5,710,1849.4,589.3,1800.7,543.1z"/>
				<path style="fill:#5083C6;" d="M1871,657.3c-17.5-52.7-40.6-94.7-65.2-118.4c-4.4-7-9.5-14.1-15.1-21.1
					c-21.1-26.2-74.7-49.1-143.3-61.4c-65.9-11.8-130-11-167.4,2.1c-46.4,16.2-70.3,36.1-82.4,50.5c-14.1,3.5-26.8,7.9-34.3,11.8
					c-70.4,36.4-116.7,156.2-121,312.8c-4,148.3-4.1,277.4-4.1,278.7c0,6.6,6.7,10.1,8.9,11.3c13.9,7.3,45,12.6,67.4,14.9
					c8.6,0.9,20.3,1.8,31.5,1.8c13.4,0,26.2-1.3,32.3-5.6c3.7-2.5,5.6-6.3,5.1-10.3c-12.5-105.9-7.2-213.9-0.6-285.8
					c7.7-83.3,20.1-152.3,30-192.9c11.7,8.7,26.4,16.3,43.8,22.6c47.7,17.5,83.4,22.6,108.8,22.6c33.9,0,49.4-9.1,50.4-9.7
					c1.5-0.9,2.6-2.5,3-4.2c0.1-0.5,0.2-1,0.1-1.6c19.8,11.1,49.8,23.5,89.2,27.4c12.2,1.2,23.9,0.9,34.8-1.1
					c7.2,40.4,11.6,79.8,15.9,118l1,9.3c6.9,61.5,14.2,236.6,0.4,294.6c-0.9,4,0.4,7.8,3.8,10.5c9.5,7.7,39.3,6.6,62.5,4.4
					c22.3-2.2,53.7-7.2,68.6-14.4c2.5-1.2,10.2-4.9,10.2-11.8c0-1.3,0-130.4-4.1-278.7C1899.8,774.2,1889,711.6,1871,657.3z
					 M1833.2,1124.6c-33.5,3.9-54.1,2.4-59.8-0.1c7.6-34.5,8.3-99.2,7.5-147.9c-1.1-62.6-4.9-121.2-8.1-149.2l-1-9.3
					c-4.5-40.5-9.2-82.3-17.2-125.5c-0.3-1.8-1.4-3.3-2.9-4.3c-1.5-1-3.3-1.3-5.1-0.9c-11.4,2.8-23.9,3.5-37.2,2.2
					c-69.9-7-109.2-43-109.6-43.4c-2.4-2.3-6.2-2.4-8.7-0.2c-2.5,2.2-3,5.9-1.1,8.6l12.5,17.8c-5.5,1.8-14.6,4.1-27.6,4.8
					c-39.4,2.3-83.7-10.4-113.9-21.5c-20.2-7.4-36.2-16.4-47.7-26.7c-1.7-1.5-4-2-6.2-1.4c-2.2,0.6-3.8,2.4-4.4,4.6
					c-10.3,39.2-24.4,113.6-32.8,204.8c-6.7,72.2-12,180.5,0.4,287c-3.1,1.5-14.1,4-40.3,2.3c-38.8-2.4-72.9-10.9-78.9-15.8
					c0-14.2,0.3-137,4.1-277c2-73.7,13.7-140.9,33.8-194.2c20.2-53.6,47.9-90.7,80.2-107.4c6.9-3.6,19.8-7.9,33.5-11.2
					c1.4-0.3,2.6-1.1,3.5-2.3c10.5-13.2,32.5-32.2,77.9-48c35.4-12.4,97.1-13,160.9-1.5c64.7,11.6,116.6,33.3,135.5,56.8
					c5.5,6.8,10.5,13.7,14.7,20.5c0.3,0.5,0.6,0.9,1,1.3c23.3,22.1,45.5,62.4,62.4,113.6c17.6,53.2,28.2,114.4,29.8,172.5
					c3.8,139.8,4.1,262.5,4.1,276.9C1888.1,1114.2,1867.4,1120.6,1833.2,1124.6z"/>
			</g>
		</g>
		<path style="fill:#5083C6;" d="M1634.3,994.1c-18.8,19.6-44.1,30.4-71.2,30.4s-52.4-10.8-71.2-30.4c-2.5-2.6-6.6-2.7-9.2-0.2
			c-2.6,2.5-2.7,6.6-0.2,9.2c21.3,22.2,49.9,34.4,80.6,34.4s59.2-12.2,80.6-34.4c2.5-2.6,2.4-6.7-0.2-9.2
			C1640.9,991.5,1636.8,991.6,1634.3,994.1z"/>
	</g>
	<g>
		<g>
			<circle style="fill:#121B27;" cx="1087.4" cy="1361.3" r="287.4"/>
			<path style="fill:#3A547A;" d="M1299.8,1148.9c-27.6-27.6-59.7-49.2-95.5-64.4c-37-15.7-76.4-23.6-116.9-23.6
				s-79.9,7.9-116.9,23.6c-35.8,15.1-67.9,36.8-95.5,64.4c-27.6,27.6-49.2,59.7-64.4,95.5c-15.7,37-23.6,76.4-23.6,116.9
				s7.9,79.9,23.6,116.9c15.1,35.8,36.8,67.9,64.4,95.5c27.6,27.6,59.7,49.2,95.5,64.4c37,15.7,76.4,23.6,116.9,23.6
				s79.9-7.9,116.9-23.6c35.8-15.1,67.9-36.8,95.5-64.4c27.6-27.6,49.2-59.7,64.4-95.5c15.7-37,23.6-76.4,23.6-116.9
				s-7.9-79.9-23.6-116.9C1349,1208.6,1327.3,1176.5,1299.8,1148.9z M1087.4,1648.7c-158.7,0-287.4-128.7-287.4-287.4
				s128.7-287.4,287.4-287.4s287.4,128.7,287.4,287.4S1246.1,1648.7,1087.4,1648.7z"/>
		</g>
		<g>
			<g>
				<path style="fill:#121B27;" d="M1231.6,1205.7H943.2c-14.6,0-26.4,11.8-26.4,26.4v204.1c0,14.6,11.8,26.4,26.4,26.4h83.4v92.6
					l92.6-92.6h112.3c14.6,0,26.4-11.8,26.4-26.4V1232C1257.9,1217.5,1246.1,1205.7,1231.6,1205.7z"/>
				<path style="fill:#3A547A;" d="M1231.6,1192.7H943.2c-21.7,0-39.3,17.6-39.3,39.3v204.1c0,21.7,17.6,39.3,39.3,39.3h70.5v79.6
					c0,5.2,3.2,10,8,12c1.6,0.7,3.3,1,5,1c3.4,0,6.7-1.3,9.2-3.8l88.8-88.8h107c21.7,0,39.3-17.6,39.3-39.3V1232
					C1270.9,1210.3,1253.3,1192.7,1231.6,1192.7z M1257.9,1436.1c0,14.6-11.8,26.4-26.4,26.4h-112.3l-92.6,92.6v-92.6h-83.4
					c-14.6,0-26.4-11.8-26.4-26.4V1232c0-14.6,11.8-26.4,26.4-26.4h288.4c14.6,0,26.4,11.8,26.4,26.4V1436.1z"/>
			</g>
			<g>
				<g>
					<path style="fill:#35E8C6;" d="M1179.2,1271.9H995.6c-3.6,0-6.5,2.9-6.5,6.5s2.9,6.5,6.5,6.5h183.6c3.6,0,6.5-2.9,6.5-6.5
						S1182.8,1271.9,1179.2,1271.9z"/>
					<path style="fill:#3A547A;" d="M1179.2,1332.3H995.6c-3.6,0-6.5,2.9-6.5,6.5s2.9,6.5,6.5,6.5h183.6c3.6,0,6.5-2.9,6.5-6.5
						S1182.8,1332.3,1179.2,1332.3z"/>
				</g>
				<g>
					<path style="fill:#35E8C6;" d="M1179.2,1332.3H995.6c-3.6,0-6.5,2.9-6.5,6.5s2.9,6.5,6.5,6.5h183.6c3.6,0,6.5-2.9,6.5-6.5
						S1182.8,1332.3,1179.2,1332.3z"/>
				</g>
				<g>
					<path style="fill:#35E8C6;" d="M1096,1392.6H995.6c-3.6,0-6.5,2.9-6.5,6.5s2.9,6.5,6.5,6.5H1096c3.6,0,6.5-2.9,6.5-6.5
						S1099.6,1392.6,1096,1392.6z"/>
				</g>
			</g>
		</g>
	</g>
</g>
</svg>
