<?xml version="1.0" encoding="iso-8859-1"?>
<!-- Generator: Adobe Illustrator 19.0.0, SVG Export Plug-In . SVG Version: 6.00 Build 0)  -->
<svg fill="#fcd48d" version="1.1" id="Capa_1" xmlns="http://www.w3.org/2000/svg" xmlns:xlink="http://www.w3.org/1999/xlink" x="0px" y="0px"
	 viewBox="0 0 512 512" style="enable-background:new 0 0 512 512;" xml:space="preserve">
<g>
	<g>
		<path d="M452.412,173.757l-43.974,14.658l14.658-43.974L278.655,0L65.816,212.839l77.383,77.384L25.402,389.084
			c-31.659,25.903-34.135,73.622-5.12,102.637c28.966,28.966,76.697,26.584,102.631-5.112l98.865-117.808l77.383,77.384L512,233.345
			L452.412,173.757z M299.161,403.758l-79.319-79.319L99.694,467.611C92.213,476.755,81.116,482,69.252,482
			c-10.488,0-20.347-4.082-27.758-11.493c-7.94-7.94-12.005-18.5-11.444-29.732c0.561-11.249,5.657-21.361,14.35-28.473
			l143.161-120.145l-79.318-79.319l21.213-21.213l190.92,190.919L299.161,403.758z M341.587,361.332L150.668,170.413l21.213-21.213
			L362.8,340.118L341.587,361.332z M193.095,127.986l85.56-85.56l21.213,21.213l-42.427,42.426l21.213,21.213l42.426-42.427
			l21.213,21.213l-42.427,42.426l21.213,21.213l42.427-42.426l25.265,25.265l-27.769,83.305l83.305-27.769l25.265,25.265
			l-85.56,85.56L193.095,127.986z"/>
	</g>
</g>
<g>
</g>
<g>
</g>
<g>
</g>
<g>
</g>
<g>
</g>
<g>
</g>
<g>
</g>
<g>
</g>
<g>
</g>
<g>
</g>
<g>
</g>
<g>
</g>
<g>
</g>
<g>
</g>
<g>
</g>
</svg>
