<?xml version="1.0" encoding="iso-8859-1"?>
<!-- Generator: Adobe Illustrator 19.0.0, SVG Export Plug-In . SVG Version: 6.00 Build 0)  -->
<svg fill="#fcd48d" version="1.1" id="Layer_1" xmlns="http://www.w3.org/2000/svg" xmlns:xlink="http://www.w3.org/1999/xlink" x="0px" y="0px"
	 viewBox="0 0 512.001 512.001" style="enable-background:new 0 0 512.001 512.001;" xml:space="preserve">
<g>
	<g>
		<path d="M256.001,80.553c-48.118,0-87.266,39.147-87.266,87.266s39.147,87.266,87.266,87.266s87.266-39.147,87.266-87.266
			S304.119,80.553,256.001,80.553z M256.001,214.808c-25.91,0-46.989-21.079-46.989-46.989s21.079-46.989,46.989-46.989
			s46.989,21.079,46.989,46.989S281.91,214.808,256.001,214.808z"/>
	</g>
</g>
<g>
	<g>
		<path d="M395.269,261.357c18.021-26.744,28.552-58.933,28.552-93.538C423.821,75.283,348.537,0,256.002,0
			S88.183,75.283,88.183,167.819c0,34.604,10.531,66.794,28.552,93.538L14.656,438.165l82.408,4.945L142.553,512l102.053-176.757
			c3.767,0.254,19.024,0.254,22.792,0l102.051,176.759l45.488-68.893l82.408-4.947L395.269,261.357z M140.255,435.426
			l-20.677-31.314l-37.457-2.249l60.903-105.489l58.135,33.566L140.255,435.426z M256.001,295.361
			c-70.327,0-127.542-57.215-127.542-127.542S185.674,40.276,256.001,40.276s127.542,57.215,127.542,127.542
			S326.327,295.361,256.001,295.361z M392.422,404.11l-20.677,31.315l-60.905-105.49l58.136-33.564l60.905,105.489L392.422,404.11z"
			/>
	</g>
</g>
<g>
</g>
<g>
</g>
<g>
</g>
<g>
</g>
<g>
</g>
<g>
</g>
<g>
</g>
<g>
</g>
<g>
</g>
<g>
</g>
<g>
</g>
<g>
</g>
<g>
</g>
<g>
</g>
<g>
</g>
</svg>
