<?xml version="1.0" encoding="iso-8859-1"?>
<!-- Generator: Adobe Illustrator 19.0.0, SVG Export Plug-In . SVG Version: 6.00 Build 0)  -->
<svg fill="#fcd48d" version="1.1" id="Capa_1" xmlns="http://www.w3.org/2000/svg" xmlns:xlink="http://www.w3.org/1999/xlink" x="0px" y="0px"
	 viewBox="0 0 512 512" style="enable-background:new 0 0 512 512;" xml:space="preserve">
<g>
	<g>
		<path d="M213.431,61c-24.813,0-45,20.187-45,45s20.187,45,45,45c24.813,0,45-20.187,45-45S238.244,61,213.431,61z M213.431,121
			c-8.271,0-15-6.729-15-15s6.729-15,15-15s15,6.729,15,15S221.702,121,213.431,121z"/>
	</g>
</g>
<g>
	<g>
		<path d="M123.431,121c-24.813,0-45,20.187-45,45s20.187,45,45,45c24.813,0,45-20.187,45-45S148.244,121,123.431,121z M123.431,181
			c-8.271,0-15-6.729-15-15s6.729-15,15-15s15,6.729,15,15S131.702,181,123.431,181z"/>
	</g>
</g>
<g>
	<g>
		<path d="M123.431,301c-24.813,0-45,20.187-45,45s20.187,45,45,45c24.813,0,45-20.187,45-45S148.244,301,123.431,301z M123.431,361
			c-8.271,0-15-6.729-15-15s6.729-15,15-15s15,6.729,15,15S131.702,361,123.431,361z"/>
	</g>
</g>
<g>
	<g>
		<path d="M488.942,81.374c13.798-38.44,12.499-63.738-3.86-75.193c-28.564-20.003-76.879,21.025-115.684,65.915
			C327.389,25.96,271.895,0,213.431,0C139.428,0,69.948,41.941,27.57,112.192C5.246,149.201,9.968,196.487,39.602,232.66
			c11.764,14.362,11.777,32.302,0,46.68C9.968,315.513,5.246,362.799,27.57,399.808C69.948,470.059,139.428,512,213.431,512
			c124.065,0,225-114.841,225-256c0-22.85-2.669-45.447-7.921-67.282c0.159-0.226,0.318-0.45,0.477-0.676
			C457.009,150.879,477.591,112.997,488.942,81.374z M213.43,481.998c-63.396,0-123.273-36.519-160.172-97.688
			c-15.681-25.994-11.932-59.735,9.551-85.959c20.759-25.341,20.923-59.161,0-84.702c-21.483-26.224-25.231-59.965-9.55-85.96
			C90.157,66.519,150.035,30,213.431,30c51.223,0,100.04,23.662,136.723,65.587c-6.377,8.201-12.263,16.197-17.465,23.626
			c-26.022,37.164-46.604,75.046-57.955,106.668c-5.544,15.445-8.645,28.763-9.317,39.919c-20.253-1.33-40.712,7.629-53.179,25.434
			l-8.604,12.287c-23.72,33.876-15.458,80.734,18.418,104.455l54.239,37.978l-6.289-35.663c-1.539-8.729-0.512-17.656,2.885-25.741
			c15.191-2.926,28.594-11.555,37.648-24.487c12.497-17.847,13.947-40.045,5.739-58.693c10.248-4.448,21.691-11.903,34.299-22.387
			c17.789-14.792,36.87-34.714,55.525-57.821c1.547,11.475,2.332,23.115,2.332,34.836
			C408.43,380.615,320.953,481.998,213.43,481.998z M364.632,178.203c8.357,5.852,14.95,13.557,19.376,22.548
			c-16.184,20.194-32.717,37.875-48.144,51.354c-22.96,20.062-35.939,24.182-39.858,24.182c-0.018,0-0.036,0-0.054,0
			c-1.354-3.607-1.977-17.207,9.073-45.775c7.39-19.105,18.349-40.687,31.789-62.8C346.778,168.798,356.273,172.351,364.632,178.203
			z M285.962,342.856c-5.409,7.726-13.926,12.38-23.367,12.771l-8.012,0.332l-4.175,6.847c-4.201,6.89-7.241,14.336-9.067,22.055
			l-2.082-1.458c-20.325-14.232-25.283-42.348-11.051-62.673l8.604-12.287c9.521-13.596,28.275-16.825,41.782-7.368
			C292.175,310.585,295.474,329.272,285.962,342.856z M406.412,170.834c-0.981,1.4-1.97,2.784-2.959,4.17
			c-5.876-8.222-13.137-15.441-21.616-21.377c-8.478-5.936-17.746-10.291-27.482-13c0.965-1.403,1.926-2.807,2.907-4.207
			c4.293-6.128,8.663-12.125,13.081-17.954c10.278,0.968,20.1,4.563,28.702,10.587c8.604,6.024,15.343,14.01,19.767,23.346
			C414.845,158.545,410.704,164.704,406.412,170.834z M416.252,104.478c-7.685-5.382-16.016-9.466-24.757-12.203
			c12.32-14.29,24.636-26.917,36.318-37.125c22.959-20.062,35.938-24.182,39.857-24.182c0.018,0,0.037,0,0.054,0
			c1.354,3.608,1.977,17.207-9.073,45.775c-5.597,14.469-13.25,30.362-22.466,46.827
			C430.623,116.291,423.936,109.859,416.252,104.478z"/>
	</g>
</g>
<g>
</g>
<g>
</g>
<g>
</g>
<g>
</g>
<g>
</g>
<g>
</g>
<g>
</g>
<g>
</g>
<g>
</g>
<g>
</g>
<g>
</g>
<g>
</g>
<g>
</g>
<g>
</g>
<g>
</g>
</svg>
