<?xml version="1.0" encoding="iso-8859-1"?>
<!-- Generator: Adobe Illustrator 19.0.0, SVG Export Plug-In . SVG Version: 6.00 Build 0)  -->
<svg fill="#fcd48d" version="1.1" id="Layer_1" xmlns="http://www.w3.org/2000/svg" xmlns:xlink="http://www.w3.org/1999/xlink" x="0px" y="0px"
	 viewBox="0 0 512 512" style="enable-background:new 0 0 512 512;" xml:space="preserve">
<g>
	<g>
		<rect x="208.372" y="95.256" width="95.256" height="35.721"/>
	</g>
</g>
<g>
	<g>
		<path d="M410.791,23.815H101.209C45.402,23.815,0,69.217,0,125.024s45.402,101.209,101.209,101.209h32.692
			c2.78,8.16,5.757,15.983,8.939,23.408c12.477,29.114,27.794,52.039,45.525,68.14c7.236,6.57,14.818,11.956,22.709,16.183
			c-9.165,14.095-11.029,31.584-5.584,47.059h-38.792v107.163h178.605V381.023h-38.793c5.445-15.474,3.582-32.964-5.583-47.059
			c7.891-4.227,15.473-9.613,22.709-16.183c17.732-16.101,33.049-39.026,45.525-68.14c3.182-7.424,6.158-15.248,8.939-23.408h32.692
			c55.807,0,101.209-45.402,101.209-101.209S466.597,23.815,410.791,23.815z M101.209,190.512c-36.11,0-65.488-29.378-65.488-65.488
			s29.378-65.488,65.488-65.488h6.173c1.118,47.317,6.676,91.933,16.182,130.977H101.209z M309.581,416.745v35.721H202.419v-35.721
			H309.581z M243.37,350.535c6.964-6.966,18.295-6.964,25.258,0c6.964,6.963,6.964,18.294,0,25.258
			c-6.964,6.964-18.294,6.964-25.258,0C236.406,368.829,236.406,357.499,243.37,350.535z M256,309.582
			c-63.003,0-109.401-104.1-112.903-250.046h225.807C365.401,205.482,319.003,309.582,256,309.582z M410.791,190.512h-22.353
			c9.504-39.044,15.062-83.66,16.182-130.977h6.171c36.11,0,65.488,29.378,65.488,65.488S446.901,190.512,410.791,190.512z"/>
	</g>
</g>
<g>
</g>
<g>
</g>
<g>
</g>
<g>
</g>
<g>
</g>
<g>
</g>
<g>
</g>
<g>
</g>
<g>
</g>
<g>
</g>
<g>
</g>
<g>
</g>
<g>
</g>
<g>
</g>
<g>
</g>
</svg>
