<svg fill="#fcd48d" id="Capa_1" enable-background="new 0 0 512 512" height="512" viewBox="0 0 512 512" width="512" xmlns="http://www.w3.org/2000/svg"><g><path d="m512 422.183v-422.183h-512v422.183h209.625v22.817c0 20.402-16.598 37-37 37h-40.295v30h247.34v-30h-40.296c-20.402 0-37-16.598-37-37v-22.817zm-30-392.183v291h-452v-291zm-452 362.183v-41.183h452v41.183zm253.554 89.817h-55.108c7.056-10.61 11.179-23.33 11.179-37v-22.817h32.749v22.817c.001 13.67 4.124 26.39 11.18 37z"/><path d="m256 285.5v-30c-44.112 0-80-35.888-80-80s35.888-80 80-80 80 35.888 80 80v34.714c0 8.429-6.857 15.286-15.286 15.286s-15.286-6.857-15.286-15.286v-34.714c0-27.255-22.174-49.429-49.429-49.429s-49.429 22.174-49.429 49.429 22.174 49.429 49.429 49.429c7.351 0 14.325-1.625 20.601-4.515 4.64 20.073 22.65 35.087 44.113 35.087 24.971 0 45.286-20.315 45.286-45.286v-34.715c0-60.654-49.346-110-110-110s-110 49.346-110 110 49.347 110 110.001 110zm0-90.571c-10.713 0-19.429-8.716-19.429-19.429s8.716-19.429 19.429-19.429 19.429 8.716 19.429 19.429-8.716 19.429-19.429 19.429z"/></g></svg>