<?xml version="1.0" encoding="iso-8859-1"?>
<!-- Generator: Adobe Illustrator 19.0.0, SVG Export Plug-In . SVG Version: 6.00 Build 0)  -->
<svg version="1.1" id="Layer_1" xmlns="http://www.w3.org/2000/svg" xmlns:xlink="http://www.w3.org/1999/xlink" x="0px" y="0px"
	 viewBox="0 0 512 512" style="enable-background:new 0 0 512 512;" xml:space="preserve">
<g>
	<g>
		<circle cx="206.515" cy="351.256" r="160.744"/>
	</g>
</g>
<g>
	<g>
		<rect x="367.259" y="154.791" width="35.721" height="35.721"/>
	</g>
</g>
<g>
	<g>
		<rect x="423.956" y="122.047" transform="matrix(0.5 -0.866 0.866 0.5 99.7411 452.5732)" width="35.72" height="35.72"/>
	</g>
</g>
<g>
	<g>
		<rect x="423.972" y="56.543" transform="matrix(0.866 -0.5 0.5 0.866 21.995 230.8896)" width="35.72" height="35.72"/>
	</g>
</g>
<g>
	<g>
		<rect x="310.546" y="122.037" transform="matrix(0.866 -0.5 0.5 0.866 -25.9497 182.9503)" width="35.72" height="35.72"/>
	</g>
</g>
<g>
	<g>
		<path d="M158.885,107.163v53.478c15.255-3.813,31.207-5.85,47.628-5.85c16.421,0,32.373,2.037,47.628,5.85v-53.478H158.885z"/>
	</g>
</g>
<g>
	<g>
		<path d="M295.816,0c-46.569,0-86.289,29.863-101.033,71.442h39.204c12.373-21.333,35.446-35.721,61.831-35.721
			c39.393,0,71.442,32.049,71.442,71.442h35.721C402.978,48.073,354.905,0,295.816,0z"/>
	</g>
</g>
<g>
</g>
<g>
</g>
<g>
</g>
<g>
</g>
<g>
</g>
<g>
</g>
<g>
</g>
<g>
</g>
<g>
</g>
<g>
</g>
<g>
</g>
<g>
</g>
<g>
</g>
<g>
</g>
<g>
</g>
</svg>
