<?xml version="1.0" encoding="iso-8859-1"?>
<!-- Generator: Adobe Illustrator 19.0.0, SVG Export Plug-In . SVG Version: 6.00 Build 0)  -->
<svg version="1.1" id="Layer_1" xmlns="http://www.w3.org/2000/svg" xmlns:xlink="http://www.w3.org/1999/xlink" x="0px" y="0px"
	 viewBox="0 0 512 512" style="enable-background:new 0 0 512 512;" xml:space="preserve">
<g>
	<g>
		<polygon points="360.421,20.211 360.421,101.053 441.263,101.053 		"/>
	</g>
</g>
<g>
	<g>
		<polygon points="320,141.474 320,0 84.21,0 84.21,175.158 306.526,175.158 306.526,485.053 461.474,485.053 461.474,141.474 		"/>
	</g>
</g>
<g>
	<g>
		<path d="M50.526,215.579V512h215.579V215.579H50.526z M138.105,464.842H97.684v-40.421h40.421V464.842z M138.105,384H97.684
			v-40.421h40.421V384z M218.947,464.842h-40.421v-40.421h40.421V464.842z M218.947,384h-40.421v-40.421h40.421V384z
			 M218.947,303.158H97.684v-40.421h121.263V303.158z"/>
	</g>
</g>
<g>
</g>
<g>
</g>
<g>
</g>
<g>
</g>
<g>
</g>
<g>
</g>
<g>
</g>
<g>
</g>
<g>
</g>
<g>
</g>
<g>
</g>
<g>
</g>
<g>
</g>
<g>
</g>
<g>
</g>
</svg>
