<?xml version="1.0" encoding="iso-8859-1"?>
<!-- Generator: Adobe Illustrator 19.0.0, SVG Export Plug-In . SVG Version: 6.00 Build 0)  -->
<svg version="1.1" id="Layer_1" xmlns="http://www.w3.org/2000/svg" xmlns:xlink="http://www.w3.org/1999/xlink" x="0px" y="0px"
	 viewBox="0 0 512 512" style="enable-background:new 0 0 512 512;" xml:space="preserve">
<g>
	<g>
		<path d="M0,263.529v240.941h512V263.529H0z M97.882,451.765H52.706v-45.176h45.177V451.765z M97.882,361.412H52.706v-45.176
			h45.177V361.412z M188.235,451.765h-45.176v-45.176h45.176V451.765z M188.235,361.412h-45.176v-45.176h45.176V361.412z
			 M278.588,451.765h-45.177v-45.176h45.177V451.765z M278.588,361.412h-45.177v-45.176h45.177V361.412z M368.941,451.765h-45.176
			v-45.176h45.176V451.765z M368.941,361.412h-45.176v-45.176h45.176V361.412z M459.294,451.765h-45.176v-45.176h45.176V451.765z
			 M459.294,361.412h-45.176v-45.176h45.176V361.412z"/>
	</g>
</g>
<g>
	<g>
		<path d="M0,7.529v150.588h75.294v60.235h90.353v-60.235h75.294V7.529H0z M188.235,105.412H52.706V60.235h135.529V105.412z"/>
	</g>
</g>
<g>
</g>
<g>
</g>
<g>
</g>
<g>
</g>
<g>
</g>
<g>
</g>
<g>
</g>
<g>
</g>
<g>
</g>
<g>
</g>
<g>
</g>
<g>
</g>
<g>
</g>
<g>
</g>
<g>
</g>
</svg>
