<?xml version="1.0" encoding="iso-8859-1"?>
<!-- Generator: Adobe Illustrator 19.0.0, SVG Export Plug-In . SVG Version: 6.00 Build 0)  -->
<svg version="1.1" id="Layer_1" xmlns="http://www.w3.org/2000/svg" xmlns:xlink="http://www.w3.org/1999/xlink" x="0px" y="0px"
	 viewBox="0 0 512 512" style="enable-background:new 0 0 512 512;" xml:space="preserve">
<g>
	<g>
		<path d="M486.4,89.6H25.6C11.461,89.6,0,101.061,0,115.2v38.4h512v-38.4C512,101.061,500.539,89.6,486.4,89.6z"/>
	</g>
</g>
<g>
	<g>
		<path d="M0,204.8v192c0,14.139,11.461,25.6,25.6,25.6h460.8c14.139,0,25.6-11.461,25.6-25.6v-192H0z M147.2,371.2
			c-14.116,0-25.6-11.484-25.6-25.6c0,14.116-11.484,25.6-25.6,25.6s-25.6-11.484-25.6-25.6c0-14.116,11.484-25.6,25.6-25.6
			s25.6,11.484,25.6,25.6c0-14.116,11.484-25.6,25.6-25.6s25.6,11.484,25.6,25.6C172.8,359.716,161.316,371.2,147.2,371.2z"/>
	</g>
</g>
<g>
</g>
<g>
</g>
<g>
</g>
<g>
</g>
<g>
</g>
<g>
</g>
<g>
</g>
<g>
</g>
<g>
</g>
<g>
</g>
<g>
</g>
<g>
</g>
<g>
</g>
<g>
</g>
<g>
</g>
</svg>
