<?xml version="1.0" encoding="iso-8859-1"?>
<!-- Generator: Adobe Illustrator 19.0.0, SVG Export Plug-In . SVG Version: 6.00 Build 0)  -->
<svg version="1.1" id="Layer_1" xmlns="http://www.w3.org/2000/svg" xmlns:xlink="http://www.w3.org/1999/xlink" x="0px" y="0px"
	 viewBox="0 0 512 512" style="enable-background:new 0 0 512 512;" xml:space="preserve">
<g>
	<g>
		<path d="M256,196.683c-10.329,0-18.732,8.403-18.732,18.732c0,10.329,8.403,18.732,18.732,18.732s18.732-8.403,18.732-18.732
			C274.732,205.086,266.329,196.683,256,196.683z"/>
	</g>
</g>
<g>
	<g>
		<path d="M443.317,34.342H68.683C30.811,34.342,0,65.153,0,103.024v374.634h37.463c0-44.758,36.413-81.171,81.171-81.171h324.683
			c37.872,0,68.683-30.811,68.683-68.683v-224.78C512,65.153,481.189,34.342,443.317,34.342z M330.927,271.61
			c-14.382,0-27.513-5.437-37.463-14.355c-9.95,8.919-23.081,14.355-37.463,14.355c-30.986,0-56.195-25.209-56.195-56.195
			c0-30.986,25.209-56.195,56.195-56.195s56.195,25.209,56.195,56.195c0,10.329,8.403,18.732,18.732,18.732
			s18.732-8.403,18.732-18.732c0-51.643-42.015-93.659-93.659-93.659s-93.659,42.015-93.659,93.659s42.015,93.659,93.659,93.659
			c17.86,0,35.219-5.04,50.202-14.576l20.114,31.605c-21.003,13.368-45.318,20.434-70.316,20.434
			c-72.301,0-131.122-58.821-131.122-131.122S183.699,84.293,256,84.293s131.122,58.821,131.122,131.122
			C387.122,246.401,361.913,271.61,330.927,271.61z"/>
	</g>
</g>
<g>
</g>
<g>
</g>
<g>
</g>
<g>
</g>
<g>
</g>
<g>
</g>
<g>
</g>
<g>
</g>
<g>
</g>
<g>
</g>
<g>
</g>
<g>
</g>
<g>
</g>
<g>
</g>
<g>
</g>
</svg>
