<?xml version="1.0" encoding="iso-8859-1"?>
<!-- Generator: Adobe Illustrator 19.0.0, SVG Export Plug-In . SVG Version: 6.00 Build 0)  -->
<svg version="1.1" id="Layer_1" xmlns="http://www.w3.org/2000/svg" xmlns:xlink="http://www.w3.org/1999/xlink" x="0px" y="0px"
	 viewBox="0 0 512 512" style="enable-background:new 0 0 512 512;" xml:space="preserve">
<g>
	<g>
		<path d="M256,0C114.615,0,0,114.615,0,256s114.615,256,256,256s256-114.615,256-256S397.385,0,256,0z M327.117,234.667v42.667
			H180.311c3.804,16.148,11.975,31.467,24.543,44.035c17.461,17.461,40.677,27.076,65.368,27.076
			c24.693,0,47.908-9.616,65.368-27.076l30.17,30.17c-25.518,25.518-59.45,39.573-95.536,39.573c-0.003,0,0,0-0.001,0
			c-36.089,0-70.017-14.054-95.538-39.573c-20.907-20.907-33.485-47.021-37.797-74.204h-23.11v-42.667h23.11
			c4.312-27.183,16.89-53.298,37.797-74.204c52.681-52.681,138.395-52.681,191.076,0l-30.17,30.17
			c-36.045-36.045-94.692-36.045-130.736,0c-12.568,12.568-20.739,27.887-24.543,44.035H327.117z"/>
	</g>
</g>
<g>
</g>
<g>
</g>
<g>
</g>
<g>
</g>
<g>
</g>
<g>
</g>
<g>
</g>
<g>
</g>
<g>
</g>
<g>
</g>
<g>
</g>
<g>
</g>
<g>
</g>
<g>
</g>
<g>
</g>
</svg>
