<?xml version="1.0" encoding="iso-8859-1"?>
<!-- Generator: Adobe Illustrator 19.0.0, SVG Export Plug-In . SVG Version: 6.00 Build 0)  -->
<svg version="1.1" id="Layer_1" xmlns="http://www.w3.org/2000/svg" xmlns:xlink="http://www.w3.org/1999/xlink" x="0px" y="0px"
	 viewBox="0 0 512.005 512.005" style="enable-background:new 0 0 512.005 512.005;" xml:space="preserve">
<g>
	<g>
		<path d="M119.333,255.203C53.426,255.203,0,308.633,0,374.536c0,65.905,53.427,119.333,119.333,119.333
			c65.903,0,119.332-53.428,119.332-119.333C238.664,308.631,185.236,255.203,119.333,255.203z M119.331,414.315
			c-21.968-0.001-39.776-17.811-39.776-39.78c0-21.966,17.808-39.775,39.778-39.776c21.966,0,39.776,17.81,39.777,39.778
			S141.3,414.313,119.331,414.315z"/>
	</g>
</g>
<g>
	<g>
		<path d="M419.049,18.136l-219.821,219.82c23.184,13.657,42.618,33.018,56.365,56.143l219.71-219.71L419.049,18.136z"/>
	</g>
</g>
<g>
	<g>
		
			<rect x="405.783" y="189.656" transform="matrix(0.7071 -0.7071 0.7071 0.7071 -25.4344 363.1735)" width="39.777" height="45.266"/>
	</g>
</g>
<g>
	<g>
		
			<rect x="462.049" y="133.384" transform="matrix(0.7071 -0.7071 0.7071 0.7071 30.8356 386.4774)" width="39.777" height="45.266"/>
	</g>
</g>
<g>
</g>
<g>
</g>
<g>
</g>
<g>
</g>
<g>
</g>
<g>
</g>
<g>
</g>
<g>
</g>
<g>
</g>
<g>
</g>
<g>
</g>
<g>
</g>
<g>
</g>
<g>
</g>
<g>
</g>
</svg>
