<?xml version="1.0" encoding="iso-8859-1"?>
<!-- Generator: Adobe Illustrator 19.0.0, SVG Export Plug-In . SVG Version: 6.00 Build 0)  -->
<svg version="1.1" id="Layer_1" xmlns="http://www.w3.org/2000/svg" xmlns:xlink="http://www.w3.org/1999/xlink" x="0px" y="0px"
	 viewBox="0 0 512 512" style="enable-background:new 0 0 512 512;" xml:space="preserve">
<g>
	<g>
		<path d="M332.8,153.6H179.2c-14.139,0-25.6,11.461-25.6,25.6v307.2c0,14.139,11.461,25.6,25.6,25.6h153.6
			c14.139,0,25.6-11.461,25.6-25.6V179.2C358.4,165.061,346.939,153.6,332.8,153.6z M320,454.4H192V211.2h128V454.4z"/>
	</g>
</g>
<g>
	<g>
		<path d="M256,0C128.754,0,25.6,103.154,25.6,230.4c0,74.219,35.1,140.237,89.6,182.374V179.2c0-35.29,28.71-64,64-64h153.6
			c35.29,0,64,28.71,64,64v233.574c54.5-42.138,89.6-108.155,89.6-182.374C486.4,103.154,383.246,0,256,0z"/>
	</g>
</g>
<g>
</g>
<g>
</g>
<g>
</g>
<g>
</g>
<g>
</g>
<g>
</g>
<g>
</g>
<g>
</g>
<g>
</g>
<g>
</g>
<g>
</g>
<g>
</g>
<g>
</g>
<g>
</g>
<g>
</g>
</svg>
