<?xml version="1.0" encoding="iso-8859-1"?>
<!-- Generator: Adobe Illustrator 19.0.0, SVG Export Plug-In . SVG Version: 6.00 Build 0)  -->
<svg version="1.1" id="Layer_1" xmlns="http://www.w3.org/2000/svg" xmlns:xlink="http://www.w3.org/1999/xlink" x="0px" y="0px"
	 viewBox="0 0 512 512" style="enable-background:new 0 0 512 512;" xml:space="preserve">
<g>
	<g>
		<path d="M255.999,113.661c-29.247,0-53.042,23.795-53.042,53.042s23.795,53.042,53.042,53.042s53.042-23.795,53.042-53.042
			S285.247,113.661,255.999,113.661z"/>
	</g>
</g>
<g>
	<g>
		<path d="M255.999,0C163.931,0,89.296,74.638,89.296,166.703c0,92.069,74.635,166.703,166.703,166.703
			s166.703-74.635,166.703-166.703C422.702,74.638,348.066,0,255.999,0z M255.999,265.21c-54.316,0-98.506-44.19-98.506-98.506
			c0-54.316,44.19-98.506,98.506-98.506s98.506,44.19,98.506,98.506C354.506,221.02,310.316,265.21,255.999,265.21z"/>
	</g>
</g>
<g>
	<g>
		<path d="M101.896,312.382L21.643,451.385l67.654,4.06L126.642,512l80.19-138.891C166.051,363.393,129.797,341.881,101.896,312.382
			z"/>
	</g>
</g>
<g>
	<g>
		<path d="M410.103,312.382c-27.902,29.497-64.155,51.011-104.935,60.725l80.19,138.891l37.345-56.558l67.654-4.061L410.103,312.382
			z"/>
	</g>
</g>
<g>
</g>
<g>
</g>
<g>
</g>
<g>
</g>
<g>
</g>
<g>
</g>
<g>
</g>
<g>
</g>
<g>
</g>
<g>
</g>
<g>
</g>
<g>
</g>
<g>
</g>
<g>
</g>
<g>
</g>
</svg>
