<?xml version="1.0" encoding="iso-8859-1"?>
<!-- Generator: Adobe Illustrator 19.0.0, SVG Export Plug-In . SVG Version: 6.00 Build 0)  -->
<svg version="1.1" id="Layer_1" xmlns="http://www.w3.org/2000/svg" xmlns:xlink="http://www.w3.org/1999/xlink" x="0px" y="0px"
	 viewBox="0 0 512 512" style="enable-background:new 0 0 512 512;" xml:space="preserve">
<g>
	<g>
		<path d="M0,102.4v307.2h512V102.4H0z M44.8,371.2V288c45.876,0,83.2,37.323,83.2,83.2C128,371.2,69.503,371.2,44.8,371.2z
			 M44.8,224c0,0,0-58.497,0-83.2H128C128,186.678,90.676,224,44.8,224z M256,307.203c-28.276,0-51.2-22.925-51.2-51.2
			c0-28.278,22.924-51.2,51.2-51.2s51.2,22.922,51.2,51.2C307.2,284.278,284.276,307.203,256,307.203z M473.6,371.2h-83.2
			c0-45.878,37.324-83.2,83.2-83.2C473.6,288,473.6,346.497,473.6,371.2z M473.6,224c-45.876,0-83.2-37.324-83.2-83.2
			c0,0,58.497,0,83.2,0V224z"/>
	</g>
</g>
<g>
</g>
<g>
</g>
<g>
</g>
<g>
</g>
<g>
</g>
<g>
</g>
<g>
</g>
<g>
</g>
<g>
</g>
<g>
</g>
<g>
</g>
<g>
</g>
<g>
</g>
<g>
</g>
<g>
</g>
</svg>
