<?xml version="1.0" encoding="iso-8859-1"?>
<!-- Generator: Adobe Illustrator 19.0.0, SVG Export Plug-In . SVG Version: 6.00 Build 0)  -->
<svg version="1.1" id="Layer_1" xmlns="http://www.w3.org/2000/svg" xmlns:xlink="http://www.w3.org/1999/xlink" x="0px" y="0px"
	 viewBox="0 0 512 512" style="enable-background:new 0 0 512 512;" xml:space="preserve">
<g>
	<g>
		<path d="M305.951,49.951C305.951,22.363,283.588,0,256,0s-49.951,22.363-49.951,49.951h-49.951v49.951h199.805V49.951H305.951z"/>
	</g>
</g>
<g>
	<g>
		<path d="M293.465,343.415h-18.733v37.463h18.733c10.329,0,18.732-8.403,18.732-18.732
			C312.196,351.818,303.795,343.415,293.465,343.415z"/>
	</g>
</g>
<g>
	<g>
		<path d="M218.538,268.488c-10.329,0-18.732,8.403-18.732,18.732c0,10.329,8.403,18.732,18.732,18.732h18.73v-37.463H218.538z"/>
	</g>
</g>
<g>
	<g>
		<path d="M393.366,99.902v37.463H118.634V99.902H68.683V512h374.634V99.902H393.366z M293.465,418.341h-18.733v31.219h-37.463
			v-31.219h-18.73c-14.987,0-29.692-2.513-43.709-7.468l12.487-35.32c9.995,3.534,20.5,5.325,31.222,5.325h18.73v-37.463h-18.73
			c-30.986,0-56.195-25.209-56.195-56.195c0-30.986,25.209-56.195,56.195-56.195h18.73v-31.22h37.463v31.22h18.733
			c14.987,0,29.691,2.513,43.709,7.468l-12.488,35.321c-9.995-3.534-20.499-5.325-31.221-5.325h-18.733v37.463h18.733
			c30.987,0,56.195,25.209,56.195,56.195C349.66,393.132,324.452,418.341,293.465,418.341z"/>
	</g>
</g>
<g>
</g>
<g>
</g>
<g>
</g>
<g>
</g>
<g>
</g>
<g>
</g>
<g>
</g>
<g>
</g>
<g>
</g>
<g>
</g>
<g>
</g>
<g>
</g>
<g>
</g>
<g>
</g>
<g>
</g>
</svg>
