<?xml version="1.0" encoding="iso-8859-1"?>
<!-- Generator: Adobe Illustrator 19.0.0, SVG Export Plug-In . SVG Version: 6.00 Build 0)  -->
<svg version="1.1" id="Layer_1" xmlns="http://www.w3.org/2000/svg" xmlns:xlink="http://www.w3.org/1999/xlink" x="0px" y="0px"
	 viewBox="0 0 512.001 512.001" style="enable-background:new 0 0 512.001 512.001;" xml:space="preserve">
<g>
	<g>
		<path d="M314.127,362.738l-41.219,41.218L108.043,239.091l41.218-41.218l-92.738-92.737l-30.914,30.912
			c-34.146,34.146-34.144,89.506,0.001,123.652L252.3,486.392c34.146,34.144,89.506,34.144,123.652-0.001l30.912-30.912
			L314.127,362.738z"/>
	</g>
</g>
<g>
	<g>
		<circle cx="293.516" cy="218.483" r="43.717"/>
	</g>
</g>
<g>
	<g>
		<path d="M386.255,125.743c-51.136-51.136-134.339-51.136-185.475,0.001l30.912,30.912c34.092-34.092,89.56-34.092,123.651,0
			c34.091,34.089,34.091,89.559,0.001,123.65l30.911,30.912C437.39,260.082,437.389,176.879,386.255,125.743z"/>
	</g>
</g>
<g>
	<g>
		<path d="M448.082,63.92c-85.226-85.226-223.899-85.225-309.126,0l30.911,30.914c68.182-68.181,179.12-68.182,247.301-0.001
			s68.18,179.12-0.001,247.301l30.912,30.912C533.307,287.819,533.308,149.146,448.082,63.92z"/>
	</g>
</g>
<g>
</g>
<g>
</g>
<g>
</g>
<g>
</g>
<g>
</g>
<g>
</g>
<g>
</g>
<g>
</g>
<g>
</g>
<g>
</g>
<g>
</g>
<g>
</g>
<g>
</g>
<g>
</g>
<g>
</g>
</svg>
