<?xml version="1.0" encoding="iso-8859-1"?>
<!-- Generator: Adobe Illustrator 19.0.0, SVG Export Plug-In . SVG Version: 6.00 Build 0)  -->
<svg version="1.1" id="Layer_1" xmlns="http://www.w3.org/2000/svg" xmlns:xlink="http://www.w3.org/1999/xlink" x="0px" y="0px"
	 viewBox="0 0 512 512" style="enable-background:new 0 0 512 512;" xml:space="preserve">
<g>
	<g>
		<path d="M337.171,256V81.171H162.341V256H0v174.829h512V256H337.171z M98.654,369.642c-13.772,0-24.976-11.204-24.976-24.976
			c0-13.772,11.204-24.976,24.976-24.976c13.772,0,24.976,11.204,24.976,24.976C123.629,358.437,112.425,369.642,98.654,369.642z
			 M248.507,199.807c-13.772,0-24.976-11.204-24.976-24.976s11.204-24.976,24.976-24.976s24.976,11.204,24.976,24.976
			S262.279,199.807,248.507,199.807z M398.361,369.642c-13.772,0-24.976-11.204-24.976-24.976c0-13.772,11.204-24.976,24.976-24.976
			c13.772,0,24.976,11.204,24.976,24.976C423.337,358.437,412.133,369.642,398.361,369.642z"/>
	</g>
</g>
<g>
</g>
<g>
</g>
<g>
</g>
<g>
</g>
<g>
</g>
<g>
</g>
<g>
</g>
<g>
</g>
<g>
</g>
<g>
</g>
<g>
</g>
<g>
</g>
<g>
</g>
<g>
</g>
<g>
</g>
</svg>
