<?xml version="1.0" encoding="iso-8859-1"?>
<!-- Generator: Adobe Illustrator 19.0.0, SVG Export Plug-In . SVG Version: 6.00 Build 0)  -->
<svg version="1.1" id="Layer_1" xmlns="http://www.w3.org/2000/svg" xmlns:xlink="http://www.w3.org/1999/xlink" x="0px" y="0px"
	 viewBox="0 0 512 512" style="enable-background:new 0 0 512 512;" xml:space="preserve">
<g>
	<g>
		<path d="M512,104.931l-92.326-12.599l-12.633,92.334l34.629-26.307c15.775,29.965,24.092,63.481,24.092,97.64
			c0,115.662-94.098,209.76-209.76,209.76v43.399c139.592,0,253.159-113.567,253.159-253.159c0-43.636-11.247-86.421-32.539-124.193
			L512,104.931z"/>
	</g>
</g>
<g>
	<g>
		<path d="M2.841,256.001c0,43.634,11.247,86.421,32.539,124.191L0,407.069l92.326,12.599l12.633-92.332L70.332,353.64
			c-15.775-29.967-24.093-63.479-24.093-97.638C46.24,140.339,140.338,46.241,256,46.241V2.842
			C116.408,2.842,2.841,116.409,2.841,256.001z"/>
	</g>
</g>
<g>
</g>
<g>
</g>
<g>
</g>
<g>
</g>
<g>
</g>
<g>
</g>
<g>
</g>
<g>
</g>
<g>
</g>
<g>
</g>
<g>
</g>
<g>
</g>
<g>
</g>
<g>
</g>
<g>
</g>
</svg>
