<?xml version="1.0" encoding="iso-8859-1"?>
<!-- Generator: Adobe Illustrator 19.0.0, SVG Export Plug-In . SVG Version: 6.00 Build 0)  -->
<svg version="1.1" id="Layer_1" xmlns="http://www.w3.org/2000/svg" xmlns:xlink="http://www.w3.org/1999/xlink" x="0px" y="0px"
	 viewBox="0 0 512 512" style="enable-background:new 0 0 512 512;" xml:space="preserve">
<g>
	<g>
		<path d="M199.111,142.222c-50.974,0-92.444,41.471-92.444,92.444s41.471,92.444,92.444,92.444
			c50.974,0,92.444-41.471,92.444-92.444S250.085,142.222,199.111,142.222z M199.111,263.111c-15.684,0-28.444-12.76-28.444-28.444
			c0-7.187,2.699-13.739,7.111-18.752v-38.137h42.667v38.137c4.412,5.012,7.111,11.565,7.111,18.752
			C227.556,250.351,214.795,263.111,199.111,263.111z"/>
	</g>
</g>
<g>
	<g>
		<path d="M469.333,35.556H42.667C19.103,35.556,0,54.659,0,78.222v312.889c0,23.563,19.103,42.667,42.667,42.667h14.222v42.667
			h42.667v-42.667h312.889v42.667h42.667v-42.667h14.222c23.563,0,42.667-19.103,42.667-42.667V78.222
			C512,54.659,492.897,35.556,469.333,35.556z M199.111,369.778C124.611,369.778,64,309.167,64,234.667
			S124.611,99.556,199.111,99.556s135.111,60.611,135.111,135.111S273.611,369.778,199.111,369.778z M440.889,196.53v109.248
			h-42.667V196.53c-4.412-5.012-7.111-11.566-7.111-18.752c0-15.684,12.76-28.444,28.444-28.444
			c15.684,0,28.444,12.76,28.444,28.444C448,184.964,445.301,191.516,440.889,196.53z"/>
	</g>
</g>
<g>
</g>
<g>
</g>
<g>
</g>
<g>
</g>
<g>
</g>
<g>
</g>
<g>
</g>
<g>
</g>
<g>
</g>
<g>
</g>
<g>
</g>
<g>
</g>
<g>
</g>
<g>
</g>
<g>
</g>
</svg>
