<?xml version="1.0" encoding="iso-8859-1"?>
<!-- Generator: Adobe Illustrator 19.0.0, SVG Export Plug-In . SVG Version: 6.00 Build 0)  -->
<svg version="1.1" id="Layer_1" xmlns="http://www.w3.org/2000/svg" xmlns:xlink="http://www.w3.org/1999/xlink" x="0px" y="0px"
	 viewBox="0 0 512 512" style="enable-background:new 0 0 512 512;" xml:space="preserve">
<g>
	<g>
		<path d="M455.111,0H56.889L28.444,512h455.111L455.111,0z M376.889,118.308v66.581c0,66.658-54.231,120.889-120.889,120.889
			s-120.889-54.231-120.889-120.889v-66.581c-4.412-5.013-7.111-11.565-7.111-18.752c0-15.684,12.76-28.444,28.444-28.444
			s28.444,12.76,28.444,28.444c0,7.187-2.699,13.739-7.111,18.752v66.581c0,43.132,35.091,78.222,78.222,78.222
			s78.222-35.091,78.222-78.222v-66.581c-4.412-5.012-7.111-11.565-7.111-18.752c0-15.684,12.76-28.444,28.444-28.444
			c15.684,0,28.444,12.76,28.444,28.444C384,106.742,381.301,113.294,376.889,118.308z"/>
	</g>
</g>
<g>
</g>
<g>
</g>
<g>
</g>
<g>
</g>
<g>
</g>
<g>
</g>
<g>
</g>
<g>
</g>
<g>
</g>
<g>
</g>
<g>
</g>
<g>
</g>
<g>
</g>
<g>
</g>
<g>
</g>
</svg>
