<?xml version="1.0" encoding="iso-8859-1"?>
<!-- Generator: Adobe Illustrator 19.0.0, SVG Export Plug-In . SVG Version: 6.00 Build 0)  -->
<svg version="1.1" id="Layer_1" xmlns="http://www.w3.org/2000/svg" xmlns:xlink="http://www.w3.org/1999/xlink" x="0px" y="0px"
	 viewBox="0 0 512 512" style="enable-background:new 0 0 512 512;" xml:space="preserve">
<g>
	<g>
		<path d="M121.263,390.737c-11.144,0-20.211-9.065-20.211-20.211V87.579c0-33.432-27.199-60.632-60.632-60.632H0v40.421h40.421
			c11.144,0,20.211,9.066,20.211,20.211v282.947c0,33.434,27.199,60.632,60.632,60.632h336.842v-40.421H121.263z"/>
	</g>
</g>
<g>
	<g>
		<path d="M154.947,431.158c-14.859,0-26.947,12.089-26.947,26.947s12.089,26.947,26.947,26.947s26.947-12.089,26.947-26.947
			S169.806,431.158,154.947,431.158z"/>
	</g>
</g>
<g>
	<g>
		<path d="M384,431.158c-14.859,0-26.947,12.089-26.947,26.947s12.089,26.947,26.947,26.947c14.859,0,26.947-12.089,26.947-26.947
			S398.859,431.158,384,431.158z"/>
	</g>
</g>
<g>
	<g>
		<polygon points="141.474,114.526 141.474,202.105 484.632,202.105 512,114.526 		"/>
	</g>
</g>
<g>
	<g>
		<polygon points="141.474,242.526 141.474,330.105 444.632,330.105 472.001,242.526 		"/>
	</g>
</g>
<g>
</g>
<g>
</g>
<g>
</g>
<g>
</g>
<g>
</g>
<g>
</g>
<g>
</g>
<g>
</g>
<g>
</g>
<g>
</g>
<g>
</g>
<g>
</g>
<g>
</g>
<g>
</g>
<g>
</g>
</svg>
