<?xml version="1.0" encoding="iso-8859-1"?>
<!-- Generator: Adobe Illustrator 19.0.0, SVG Export Plug-In . SVG Version: 6.00 Build 0)  -->
<svg version="1.1" id="Layer_1" xmlns="http://www.w3.org/2000/svg" xmlns:xlink="http://www.w3.org/1999/xlink" x="0px" y="0px"
	 viewBox="0 0 512 512" style="enable-background:new 0 0 512 512;" xml:space="preserve">
<g>
	<g>
		<path d="M384,0H128c-14.139,0-25.6,11.461-25.6,25.6v460.8c0,14.139,11.461,25.6,25.6,25.6h256c14.14,0,25.6-11.461,25.6-25.6
			V25.6C409.6,11.461,398.14,0,384,0z M274.103,478.903c-4.836,4.835-11.265,7.497-18.103,7.497h-0.006
			c-14.112-0.005-25.594-11.489-25.594-25.6c0-14.116,11.484-25.6,25.6-25.6c14.117,0,25.6,11.484,25.6,25.6
			C281.603,467.634,278.94,474.065,274.103,478.903z M371.2,409.6H140.8V76.8h230.4V409.6z"/>
	</g>
</g>
<g>
	<g>
		<rect x="185.6" y="128" width="51.2" height="51.2"/>
	</g>
</g>
<g>
	<g>
		<rect x="275.2" y="128" width="51.2" height="51.2"/>
	</g>
</g>
<g>
	<g>
		<rect x="185.6" y="217.6" width="51.2" height="51.2"/>
	</g>
</g>
<g>
	<g>
		<rect x="275.2" y="217.6" width="51.2" height="51.2"/>
	</g>
</g>
<g>
	<g>
		<rect x="185.6" y="307.2" width="51.2" height="51.2"/>
	</g>
</g>
<g>
	<g>
		<rect x="275.2" y="307.2" width="51.2" height="51.2"/>
	</g>
</g>
<g>
</g>
<g>
</g>
<g>
</g>
<g>
</g>
<g>
</g>
<g>
</g>
<g>
</g>
<g>
</g>
<g>
</g>
<g>
</g>
<g>
</g>
<g>
</g>
<g>
</g>
<g>
</g>
<g>
</g>
</svg>
