<?xml version="1.0" encoding="iso-8859-1"?>
<!-- Generator: Adobe Illustrator 19.0.0, SVG Export Plug-In . SVG Version: 6.00 Build 0)  -->
<svg version="1.1" id="Layer_1" xmlns="http://www.w3.org/2000/svg" xmlns:xlink="http://www.w3.org/1999/xlink" x="0px" y="0px"
	 viewBox="0 0 512 512" style="enable-background:new 0 0 512 512;" xml:space="preserve">
<g>
	<g>
		<path d="M224,230.4H121.6c-42.415,0-76.8,34.385-76.8,76.8V384c0,42.415,34.385,76.8,76.8,76.8V307.2H224
			c21.207,0,38.4-17.193,38.4-38.4S245.207,230.4,224,230.4z"/>
	</g>
</g>
<g>
	<g>
		<path d="M441.6,0h-256C171.461,0,160,11.461,160,25.6V192h38.4V76.8h230.4v332.8H198.4v-64H160v140.8
			c0,14.139,11.461,25.6,25.6,25.6h256c14.14,0,25.6-11.461,25.6-25.6V25.6C467.2,11.461,455.74,0,441.6,0z M331.703,478.903
			c-4.836,4.835-11.265,7.497-18.103,7.497h-0.006C299.482,486.395,288,474.911,288,460.8c0-14.116,11.484-25.6,25.6-25.6
			c14.117,0,25.6,11.484,25.6,25.6C339.203,467.634,336.54,474.065,331.703,478.903z"/>
	</g>
</g>
<g>
</g>
<g>
</g>
<g>
</g>
<g>
</g>
<g>
</g>
<g>
</g>
<g>
</g>
<g>
</g>
<g>
</g>
<g>
</g>
<g>
</g>
<g>
</g>
<g>
</g>
<g>
</g>
<g>
</g>
</svg>
