<?xml version="1.0" encoding="iso-8859-1"?>
<!-- Generator: Adobe Illustrator 19.0.0, SVG Export Plug-In . SVG Version: 6.00 Build 0)  -->
<svg version="1.1" id="Layer_1" xmlns="http://www.w3.org/2000/svg" xmlns:xlink="http://www.w3.org/1999/xlink" x="0px" y="0px"
	 viewBox="0 0 512 512" style="enable-background:new 0 0 512 512;" xml:space="preserve">
<g>
	<g>
		<path d="M16,0v208c0,35.347,28.654,64,64,64s64-28.653,64-64V0H16z"/>
	</g>
</g>
<g>
	<g>
		<path d="M192,0v208c0,35.347,28.654,64,64,64c35.347,0,64-28.653,64-64V0H192z"/>
	</g>
</g>
<g>
	<g>
		<path d="M368,0v208c0,35.347,28.653,64,64,64s64-28.653,64-64V0H368z"/>
	</g>
</g>
<g>
	<g>
		<path d="M432,320c-35.67,0-67.475-16.782-88-42.843C323.475,303.218,291.67,320,256,320s-67.475-16.782-88-42.843
			C147.475,303.218,115.67,320,80,320c-17.17,0-33.443-3.894-48-10.829V512h176V384h96v128h176V309.171
			C465.442,316.106,449.168,320,432,320z"/>
	</g>
</g>
<g>
</g>
<g>
</g>
<g>
</g>
<g>
</g>
<g>
</g>
<g>
</g>
<g>
</g>
<g>
</g>
<g>
</g>
<g>
</g>
<g>
</g>
<g>
</g>
<g>
</g>
<g>
</g>
<g>
</g>
</svg>
