<?xml version="1.0" encoding="iso-8859-1"?>
<!-- Generator: Adobe Illustrator 19.0.0, SVG Export Plug-In . SVG Version: 6.00 Build 0)  -->
<svg version="1.1" id="Layer_1" xmlns="http://www.w3.org/2000/svg" xmlns:xlink="http://www.w3.org/1999/xlink" x="0px" y="0px"
	 viewBox="0 0 512 512" style="enable-background:new 0 0 512 512;" xml:space="preserve">
<g>
	<g>
		<path d="M309.895,23.579H202.105c-26.003,0-47.158,21.155-47.158,47.158v26.947h40.421V70.737c0-3.715,3.022-6.737,6.737-6.737
			h107.789c3.715,0,6.737,3.022,6.737,6.737v26.947h40.421V70.737C357.053,44.734,335.898,23.579,309.895,23.579z"/>
	</g>
</g>
<g>
	<g>
		<path d="M0,138.105v120.316c64.41,20.663,146.972,32.835,235.789,34.44v-33.493h40.421v33.493
			c88.816-1.605,171.38-13.778,235.789-34.44V138.105H0z"/>
	</g>
</g>
<g>
	<g>
		<path d="M276.211,333.284v33.874h-40.421v-33.874C148.508,331.744,66.456,320.264,0,300.665v187.756h512V300.665
			C445.544,320.264,363.492,331.745,276.211,333.284z"/>
	</g>
</g>
<g>
</g>
<g>
</g>
<g>
</g>
<g>
</g>
<g>
</g>
<g>
</g>
<g>
</g>
<g>
</g>
<g>
</g>
<g>
</g>
<g>
</g>
<g>
</g>
<g>
</g>
<g>
</g>
<g>
</g>
</svg>
