<?xml version="1.0" encoding="iso-8859-1"?>
<!-- Generator: Adobe Illustrator 19.0.0, SVG Export Plug-In . SVG Version: 6.00 Build 0)  -->
<svg version="1.1" id="Layer_1" xmlns="http://www.w3.org/2000/svg" xmlns:xlink="http://www.w3.org/1999/xlink" x="0px" y="0px"
	 viewBox="0 0 511.999 511.999" style="enable-background:new 0 0 511.999 511.999;" xml:space="preserve">
<g>
	<g>
		<path d="M291.242,220.759c4.147,4.146,6.551,9.369,7.272,14.776c19.348,14.497,42.444,21.724,65.539,21.73V147.947l-182.026,0.001
			L0,329.973l182.026,182.025l182.026-182.024v-34.089c-32.18-0.001-64.361-10.393-91.003-31.195
			c-6.596,0.003-13.192-2.507-18.213-7.527c-10.037-10.037-10.037-26.368,0-36.405C264.874,210.722,281.205,210.722,291.242,220.759
			z"/>
	</g>
</g>
<g>
	<g>
		<path d="M468.716,43.284c-57.712-57.712-151.617-57.712-209.33-0.001c-18.609,18.608-31.644,41.3-38.287,66.052l40.554-0.001
			c5.414-14.371,13.852-27.561,25.037-38.746c42.658-42.656,112.065-42.656,154.723,0c42.655,42.656,42.655,112.064,0,154.721
			c-21.329,21.33-49.345,31.963-77.362,31.956v38.62c37.904,0.003,75.808-14.416,104.666-43.273
			C526.426,194.9,526.426,100.996,468.716,43.284z"/>
	</g>
</g>
<g>
</g>
<g>
</g>
<g>
</g>
<g>
</g>
<g>
</g>
<g>
</g>
<g>
</g>
<g>
</g>
<g>
</g>
<g>
</g>
<g>
</g>
<g>
</g>
<g>
</g>
<g>
</g>
<g>
</g>
</svg>
