<?xml version="1.0" encoding="iso-8859-1"?>
<!-- Generator: Adobe Illustrator 19.0.0, SVG Export Plug-In . SVG Version: 6.00 Build 0)  -->
<svg version="1.1" id="Layer_1" xmlns="http://www.w3.org/2000/svg" xmlns:xlink="http://www.w3.org/1999/xlink" x="0px" y="0px"
	 viewBox="0 0 512 512" style="enable-background:new 0 0 512 512;" xml:space="preserve">
<g>
	<g>
		<path d="M255.999,156.778c-19.539,0-35.436,15.897-35.436,35.436c0,19.539,15.897,35.436,35.436,35.436
			s35.436-15.895,35.436-35.436C291.435,172.675,275.539,156.778,255.999,156.778z"/>
	</g>
</g>
<g>
	<g>
		<path d="M255.999,227.65c-35.171,0-63.785,28.613-63.785,63.785c0,19.539,15.897,35.436,35.436,35.436h56.698
			c19.539,0,35.436-15.897,35.436-35.436C319.784,256.264,291.17,227.65,255.999,227.65z"/>
	</g>
</g>
<g>
	<g>
		<polygon points="512,30.071 481.932,0.003 371.659,110.276 341.028,79.646 341.05,170.958 432.354,170.969 401.727,140.344 		"/>
	</g>
</g>
<g>
	<g>
		<polygon points="140.346,110.274 30.071,0 0.003,30.068 110.277,140.343 79.646,170.972 170.96,170.95 170.971,79.646 		"/>
	</g>
</g>
<g>
	<g>
		<polygon points="170.95,341.04 79.646,341.03 110.273,371.656 0,481.929 30.068,511.997 140.34,401.724 170.972,432.355 		"/>
	</g>
</g>
<g>
	<g>
		<polygon points="401.723,371.657 432.354,341.028 341.04,341.049 341.029,432.352 371.654,401.726 481.929,512 511.997,481.932 		
			"/>
	</g>
</g>
<g>
</g>
<g>
</g>
<g>
</g>
<g>
</g>
<g>
</g>
<g>
</g>
<g>
</g>
<g>
</g>
<g>
</g>
<g>
</g>
<g>
</g>
<g>
</g>
<g>
</g>
<g>
</g>
<g>
</g>
</svg>
