<?xml version="1.0" encoding="iso-8859-1"?>
<!-- Generator: Adobe Illustrator 19.0.0, SVG Export Plug-In . SVG Version: 6.00 Build 0)  -->
<svg version="1.1" id="Layer_1" xmlns="http://www.w3.org/2000/svg" xmlns:xlink="http://www.w3.org/1999/xlink" x="0px" y="0px"
	 viewBox="0 0 512 512" style="enable-background:new 0 0 512 512;" xml:space="preserve">
<g>
	<g>
		<path d="M148.21,0v512h215.579V0H148.21z M256,444.634c-22.325,0-40.422-18.098-40.422-40.424
			c0-22.323,18.098-40.421,40.422-40.421c22.325,0,40.421,18.098,40.421,40.421C296.421,426.536,278.325,444.634,256,444.634z
			 M256,296.421c-22.325,0-40.422-18.096-40.422-40.421c0-22.325,18.098-40.421,40.422-40.421c22.325,0,40.421,18.096,40.421,40.421
			C296.421,278.325,278.325,296.421,256,296.421z M256,148.211c-22.325,0-40.422-18.096-40.422-40.421
			c0-22.325,18.098-40.421,40.422-40.421c22.325,0,40.421,18.096,40.421,40.421C296.421,130.114,278.325,148.211,256,148.211z"/>
	</g>
</g>
<g>
</g>
<g>
</g>
<g>
</g>
<g>
</g>
<g>
</g>
<g>
</g>
<g>
</g>
<g>
</g>
<g>
</g>
<g>
</g>
<g>
</g>
<g>
</g>
<g>
</g>
<g>
</g>
<g>
</g>
</svg>
