<?xml version="1.0" encoding="iso-8859-1"?>
<!-- Generator: Adobe Illustrator 19.0.0, SVG Export Plug-In . SVG Version: 6.00 Build 0)  -->
<svg version="1.1" id="Layer_1" xmlns="http://www.w3.org/2000/svg" xmlns:xlink="http://www.w3.org/1999/xlink" x="0px" y="0px"
	 viewBox="0 0 512 512" style="enable-background:new 0 0 512 512;" xml:space="preserve">
<g>
	<g>
		<polygon points="224,179.2 224,332.8 326.4,256 		"/>
	</g>
</g>
<g>
	<g>
		<path d="M486.4,102.4H25.6C11.461,102.4,0,113.861,0,128v256c0,14.139,11.461,25.6,25.6,25.6h460.8
			c14.139,0,25.6-11.461,25.6-25.6V128C512,113.861,500.539,102.4,486.4,102.4z M51.2,281.6c-6.834,0.003-13.265-2.66-18.103-7.497
			C28.262,269.266,25.6,262.838,25.6,256v-0.006c0.005-14.112,11.489-25.594,25.6-25.594c14.116,0,25.6,11.484,25.6,25.6
			S65.316,281.6,51.2,281.6z M435.2,371.2H102.4V140.8h332.8V371.2z"/>
	</g>
</g>
<g>
</g>
<g>
</g>
<g>
</g>
<g>
</g>
<g>
</g>
<g>
</g>
<g>
</g>
<g>
</g>
<g>
</g>
<g>
</g>
<g>
</g>
<g>
</g>
<g>
</g>
<g>
</g>
<g>
</g>
</svg>
