<?xml version="1.0" encoding="iso-8859-1"?>
<!-- Generator: Adobe Illustrator 19.0.0, SVG Export Plug-In . SVG Version: 6.00 Build 0)  -->
<svg version="1.1" id="Layer_1" xmlns="http://www.w3.org/2000/svg" xmlns:xlink="http://www.w3.org/1999/xlink" x="0px" y="0px"
	 viewBox="0 0 512 512" style="enable-background:new 0 0 512 512;" xml:space="preserve">
<g>
	<g>
		<path d="M71.111,284.444V512h369.778V284.444H71.111z M106.667,476.444v-64c35.29,0,64,28.71,64,64
			C170.667,476.444,118.43,476.444,106.667,476.444z M106.667,384c0,0,0-52.237,0-64h64C170.667,355.29,141.956,384,106.667,384z
			 M256,440.889c-23.563,0-42.667-19.103-42.667-42.667s19.103-42.667,42.667-42.667s42.667,19.103,42.667,42.667
			S279.563,440.889,256,440.889z M405.333,476.444h-64c0-35.29,28.71-64,64-64C405.333,412.444,405.333,464.681,405.333,476.444z
			 M405.333,384c-35.29,0-64-28.71-64-64c0,0,52.237,0,64,0V384z"/>
	</g>
</g>
<g>
	<g>
		<path d="M512,256C512,114.615,397.385,0,256,0S0,114.615,0,256c0,42.305,10.274,82.206,28.444,117.365V241.778h455.111v131.587
			C501.726,338.206,512,298.305,512,256z"/>
	</g>
</g>
<g>
</g>
<g>
</g>
<g>
</g>
<g>
</g>
<g>
</g>
<g>
</g>
<g>
</g>
<g>
</g>
<g>
</g>
<g>
</g>
<g>
</g>
<g>
</g>
<g>
</g>
<g>
</g>
<g>
</g>
</svg>
