<?xml version="1.0" encoding="iso-8859-1"?>
<!-- Generator: Adobe Illustrator 17.1.0, SVG Export Plug-In . SVG Version: 6.00 Build 0)  -->
<!DOCTYPE svg PUBLIC "-//W3C//DTD SVG 1.1//EN" "http://www.w3.org/Graphics/SVG/1.1/DTD/svg11.dtd">
<svg fill="#f9b22c" version="1.1" id="Capa_1" xmlns="http://www.w3.org/2000/svg" xmlns:xlink="http://www.w3.org/1999/xlink" x="0px" y="0px"
	 viewBox="0 0 380.771 380.771" style="enable-background:new 0 0 380.771 380.771;" xml:space="preserve">
<path d="M150.26,92.608h-10.001c-4.971,0-9-4.029-9-9s4.029-9,9-9h10.001c4.971,0,9,4.029,9,9S155.231,92.608,150.26,92.608z
	 M184.556,92.608h10.001c4.971,0,9-4.029,9-9s-4.029-9-9-9h-10.001c-4.971,0-9,4.029-9,9S179.585,92.608,184.556,92.608z
	 M96.543,104.189c2.604,0.43,5.085-0.304,7.104-2.014c2.017-1.71,2.99-4.221,2.99-6.865V80.358c0-0.385,0.197-0.764,0.15-1.137
	c0.047-0.372,0.182-0.751,0.182-1.136c0-33.132,27.01-60.086,60.141-60.086c1.609,0,3.233,0.063,4.811,0.188
	c-8.342,12.948-20.451,22.306-34.1,26.123c-4.787,1.338-7.575,6.304-6.236,11.091c1.339,4.788,6.311,7.589,11.094,6.243
	c19.755-5.524,36.936-19.667,47.571-39.034c21.707,9.067,37.003,30.519,37.003,55.475c0,25.727-16.181,48.105-40,56.503
	c-2.832-2.391-6.489-3.981-10.476-3.981h-19.219c-8.971,0-16.269,7.529-16.269,16.5s7.298,16.5,16.269,16.5h19.219
	c7.275,0,13.451-4.886,15.523-11.487c23.195-7.841,40.743-25.971,48.488-48.458c10.453-2.538,16.848-9.055,16.848-17.037V66.678
	c0-8.282-6.899-14.943-18.042-17.265C228.141,20.501,200.002,0,167.063,0c-32.981,0-61.266,20.556-72.691,49.526
	c-10.839,2.42-17.734,9.001-17.734,17.151v19.949C76.637,95.296,84.489,102.189,96.543,104.189z M204.099,204.002
	c12.328,0.96,24.51,6.007,33.261,13.908c3.689,3.329,9.38,3.039,12.712-0.649c3.33-3.689,3.04-9.494-0.649-12.825
	c-12.98-11.719-31.522-18.828-49.599-18.828h-1.236c-3.844,0-7.264,2.554-8.512,6.19c-2.12,6.173-10.587,12.478-22.668,12.478
	c-12.08,0-20.546-6.334-22.665-12.505c-1.249-3.637-4.669-6.163-8.513-6.163h-1.237c-30.601,0-59.205,19.173-65.12,43.506
	L43.443,337.877c-0.119,0.444-0.206,0.932-0.256,1.4c-0.123,1.118-0.032,2.237,0.244,3.28c0.244,0.929,0.633,1.807,1.142,2.592
	c1.062,1.646,2.657,2.953,4.615,3.63c0.321,0.11,0.65,0.206,0.987,0.281c0.659,0.147,1.317,0.385,1.967,0.385
	c0.09,0,0.179,0.163,0.268,0.163h54.024c4.971,0,9-4.029,9-9s-4.029-9-9-9H63.587l23.775-97.962
	c3.652-15.023,22.955-27.95,43.356-29.559c6.951,11.05,21.07,18.287,36.688,18.287C183.026,222.375,197.147,215.053,204.099,204.002
	z M337.638,294.969c0,6.24-2.871,12.174-7.726,16.06c-0.24,0.217-0.493,0.422-0.758,0.614l-22.224,16.079l8.528,26.076
	c1.704,5.243,1.267,10.82-1.228,15.718c-2.494,4.899-6.748,8.534-11.977,10.233c-2.109,0.686-4.27,1.022-6.408,1.022
	c-4.676,0-9.251-1.605-12.995-4.673l-21.24-15.494l-22.18,16.179c-4.444,3.236-9.871,4.545-15.296,3.692
	c-5.422-0.854-10.188-3.767-13.418-8.204c-3.661-5.028-4.836-11.487-3.221-17.466c0.068-0.337,0.157-0.674,0.267-1.008l8.528-26.077
	l-22.223-16.078c-4.458-3.229-7.388-7.997-8.255-13.429c-0.866-5.43,0.434-10.871,3.659-15.324
	c4.136-5.709,10.748-8.875,17.798-8.476l26.338,0.051l8.424-26.098c3.464-10.783,15.063-16.746,25.865-13.281
	c6.292,2.019,11.259,6.98,13.289,13.275l0.003,0.012c0.001,0.001,0.001,0.003,0.002,0.004l0.005,0.018
	c0.011,0.031,0.021,0.063,0.03,0.094l8.385,25.977l27.451-0.053C328.416,274.412,337.638,283.634,337.638,294.969z M319.638,295.001
	c0-1.41-1.146-2.524-2.557-2.524l-33.999,0.131c-0.006,0-0.013,0-0.018,0c-3.905,0-7.365-2.582-8.564-6.299l-10.426-32.362
	c-0.009-0.026-0.018-0.049-0.025-0.075c-0.131-0.393-0.542-1.275-1.65-1.631c-1.354-0.431-2.8,0.329-3.232,1.677l-10.444,32.389
	c-1.199,3.717-4.66,6.301-8.564,6.301c-0.006,0-0.012,0-0.018,0l-33.173-0.13c-0.209,0-0.418-0.073-0.626-0.089
	c-0.907-0.059-1.763,0.331-2.29,1.06c-0.521,0.72-0.538,1.445-0.461,1.929c0.077,0.481,0.319,1.166,1.035,1.685l27.538,19.924
	c3.17,2.294,4.495,6.371,3.278,10.09l-10.333,31.594c-0.057,0.238-0.123,0.477-0.2,0.714c-0.121,0.374-0.328,1.346,0.362,2.294
	c0.513,0.704,1.188,0.941,1.663,1.017c0.477,0.071,1.191,0.057,1.897-0.458l27.477-20.043c1.58-1.153,3.441-1.729,5.304-1.729
	s3.724,0.576,5.304,1.729l26.776,19.533c0.18,0.13,0.354,0.268,0.522,0.41c0.259,0.222,1.203,0.905,2.477,0.494
	c0.84-0.273,1.279-0.848,1.501-1.282c0.221-0.435,0.428-1.129,0.154-1.971l-10.564-32.302c-1.216-3.719,0.109-7.796,3.279-10.09
	l26.958-19.504c0.178-0.152,0.363-0.299,0.555-0.438C318.893,296.813,319.638,296.177,319.638,295.001z"/>
<g>
</g>
<g>
</g>
<g>
</g>
<g>
</g>
<g>
</g>
<g>
</g>
<g>
</g>
<g>
</g>
<g>
</g>
<g>
</g>
<g>
</g>
<g>
</g>
<g>
</g>
<g>
</g>
<g>
</g>
</svg>
