<?xml version="1.0" encoding="iso-8859-1"?>
<!-- Generator: Adobe Illustrator 17.1.0, SVG Export Plug-In . SVG Version: 6.00 Build 0)  -->
<!DOCTYPE svg PUBLIC "-//W3C//DTD SVG 1.1//EN" "http://www.w3.org/Graphics/SVG/1.1/DTD/svg11.dtd">
<svg fill="#f9b22c" version="1.1" id="Capa_1" xmlns="http://www.w3.org/2000/svg" xmlns:xlink="http://www.w3.org/1999/xlink" x="0px" y="0px"
	 viewBox="0 0 386.427 386.427" style="enable-background:new 0 0 386.427 386.427;" xml:space="preserve">
<path d="M93.951,229.222c-18.882,0-34.244,15.361-34.244,34.243s15.362,34.243,34.244,34.243c18.881,0,34.243-15.361,34.243-34.243
	S112.833,229.222,93.951,229.222z M93.951,279.707c-8.957,0-16.244-7.287-16.244-16.243c0-8.956,7.287-16.243,16.244-16.243
	c8.956,0,16.243,7.287,16.243,16.243C110.194,272.421,102.907,279.707,93.951,279.707z M377.329,22.248H18.535
	c-4.971,0-9.108,4.323-9.108,9.293v32.964c0,0.107,0,0.214,0,0.321v102.674c0,4.971,4.029,9,9,9s9-4.029,9-9V80.373l162.962,95.382
	c2.769,1.621,6.267,1.646,9.06,0.064l168.978-95.701v206.13H216.563c-4.971,0-9,4.029-9,9s4.029,9,9,9h160.767
	c4.971,0,9.098-4.521,9.098-9.491V64.836c0-0.113,0-0.226,0-0.338V31.542C386.427,26.571,382.3,22.248,377.329,22.248z
	 M368.427,59.43l-173.368,98.173L27.427,59.515V40.248h341V59.43z M182.258,281.449l-11.629-8.425
	c0.39-3.163,0.586-6.357,0.586-9.55c0-3.145-0.19-6.291-0.568-9.403l11.633-8.429c2.973-1.937,7.028-6.501,5.085-16.565
	c-0.93-4.817-3.157-10.44-6.271-15.836c-8.634-14.955-19.098-21.498-27.449-17.238l-13.08,5.845
	c-5.097-3.869-10.613-7.063-16.487-9.547l-1.472-14.172c-0.445-9.393-11.338-15.199-28.655-15.199
	c-17.271,0-28.169,5.79-28.654,15.155l-1.474,14.217c-5.875,2.484-11.391,5.678-16.488,9.547l-13.06-5.835
	c-3.164-1.606-9.145-2.837-16.889,3.878c-3.708,3.214-7.464,7.956-10.578,13.349c-8.641,14.96-9.074,27.297-1.197,32.398
	l11.642,8.435c-0.378,3.113-0.569,6.258-0.569,9.4c0,3.192,0.197,6.386,0.587,9.548l-11.655,8.443
	c-7.883,5.099-7.451,17.437,1.191,32.401c3.115,5.395,6.872,10.136,10.579,13.35c7.744,6.714,13.726,5.484,16.889,3.877
	l13.194-5.895c5.056,3.82,10.522,6.978,16.336,9.439l1.492,14.375c0.479,9.371,11.378,15.166,28.655,15.166
	c17.317,0,28.21-5.807,28.655-15.201l1.488-14.34c5.816-2.461,11.281-5.619,16.337-9.438l13.206,5.901
	c8.352,4.265,18.819-2.275,27.457-17.235C189.752,298.867,190.171,286.53,182.258,281.449z M152.066,251.79
	c0.763,3.817,1.15,7.749,1.15,11.684c0,3.974-0.395,7.947-1.174,11.809c-0.697,3.455,0.688,7,3.542,9.067l14.121,10.23
	c-0.412,2.108-1.613,5.805-4.199,10.286c-2.587,4.481-5.189,7.37-6.808,8.78l-15.982-7.142c-3.217-1.438-6.976-0.866-9.621,1.463
	c-5.959,5.249-12.771,9.184-20.248,11.697c-3.342,1.123-5.72,4.095-6.084,7.602l-1.807,17.407
	c-2.031,0.697-5.833,1.505-11.005,1.505c-5.175,0-8.978-0.809-11.009-1.506l-1.806-17.406c-0.364-3.507-2.743-6.479-6.084-7.602
	c-7.474-2.512-14.287-6.448-20.249-11.698c-2.645-2.328-6.403-2.899-9.619-1.463l-15.982,7.141c-1.619-1.411-4.22-4.299-6.807-8.78
	c-2.587-4.48-3.789-8.178-4.2-10.286l14.123-10.232c2.855-2.068,4.24-5.614,3.542-9.07c-0.78-3.861-1.175-7.833-1.175-11.804
	c0-3.931,0.387-7.861,1.151-11.682c0.689-3.451-0.695-6.987-3.545-9.052l-14.095-10.212c0.412-2.107,1.613-5.805,4.201-10.286
	c2.586-4.48,5.188-7.369,6.806-8.779l15.861,7.086c3.222,1.438,6.99,0.862,9.635-1.477c5.989-5.298,12.842-9.267,20.371-11.795
	c3.343-1.124,5.723-4.095,6.086-7.604l1.788-17.238c2.031-0.697,5.833-1.506,11.009-1.506c5.173,0,8.974,0.808,11.005,1.505
	l1.791,17.24c0.364,3.508,2.744,6.479,6.086,7.602c7.527,2.528,14.379,6.496,20.368,11.794c2.644,2.339,6.412,2.917,9.636,1.477
	l15.86-7.087c1.619,1.41,4.22,4.298,6.808,8.779c2.586,4.481,3.787,8.178,4.199,10.286l-14.094,10.212
	C152.76,244.803,151.376,248.339,152.066,251.79z"/>
<g>
</g>
<g>
</g>
<g>
</g>
<g>
</g>
<g>
</g>
<g>
</g>
<g>
</g>
<g>
</g>
<g>
</g>
<g>
</g>
<g>
</g>
<g>
</g>
<g>
</g>
<g>
</g>
<g>
</g>
</svg>
