<?xml version="1.0" encoding="iso-8859-1"?>
<!-- Generator: Adobe Illustrator 17.1.0, SVG Export Plug-In . SVG Version: 6.00 Build 0)  -->
<!DOCTYPE svg PUBLIC "-//W3C//DTD SVG 1.1//EN" "http://www.w3.org/Graphics/SVG/1.1/DTD/svg11.dtd">
<svg fill="#f9b22c" version="1.1" id="Capa_1" xmlns="http://www.w3.org/2000/svg" xmlns:xlink="http://www.w3.org/1999/xlink" x="0px" y="0px"
	 viewBox="0 0 375 375" style="enable-background:new 0 0 375 375;" xml:space="preserve">
<path d="M187.751,200.801c18.881,0,34.242-15.361,34.242-34.243c0-18.881-15.361-34.242-34.242-34.242
	c-18.882,0-34.244,15.361-34.244,34.242C153.507,185.44,168.869,200.801,187.751,200.801z M187.751,150.316
	c8.956,0,16.242,7.286,16.242,16.242c0,8.957-7.286,16.243-16.242,16.243c-8.957,0-16.244-7.287-16.244-16.243
	C171.507,157.602,178.794,150.316,187.751,150.316z M100.606,216.96c8.659,14.996,19.134,21.53,27.492,17.216l13.169-5.883
	c5.056,3.82,10.521,6.978,16.336,9.438l1.492,14.378c0.48,9.369,11.381,15.163,28.655,15.163c17.315,0,28.208-5.806,28.653-15.199
	l1.489-14.341c5.816-2.461,11.281-5.619,16.338-9.438l13.201,5.899c8.354,4.271,18.823-2.271,27.46-17.232
	c3.115-5.395,5.343-11.019,6.272-15.837c1.942-10.064-2.114-14.629-5.087-16.565l-11.649-8.44c0.391-3.164,0.588-6.359,0.588-9.551
	c0-3.141-0.191-6.287-0.569-9.402l11.632-8.429c2.973-1.938,7.027-6.502,5.086-16.564c-0.93-4.817-3.157-10.442-6.271-15.835
	c-8.634-14.959-19.099-21.5-27.453-17.238l-13.076,5.843c-5.098-3.869-10.613-7.063-16.488-9.546l-1.472-14.173
	c-0.445-9.393-11.338-15.198-28.653-15.198c-17.27,0-28.168,5.79-28.655,15.154l-1.474,14.218
	c-5.875,2.484-11.391,5.678-16.489,9.547L128.1,99.119c-8.359-4.313-18.835,2.221-27.493,17.217
	c-8.633,14.951-9.069,27.28-1.21,32.387l11.656,8.444c-0.379,3.113-0.569,6.258-0.569,9.4c0,3.194,0.196,6.389,0.587,9.549
	l-11.654,8.443C91.536,189.658,91.967,201.996,100.606,216.96z M129.658,178.369c-0.779-3.856-1.175-7.827-1.175-11.803
	c0-3.93,0.388-7.859,1.151-11.681c0.69-3.451-0.695-6.988-3.545-9.053l-14.095-10.21c0.411-2.107,1.612-5.805,4.199-10.287
	c2.587-4.48,5.188-7.369,6.807-8.78l15.86,7.087c3.225,1.44,6.99,0.862,9.636-1.477c5.988-5.298,12.842-9.267,20.37-11.795
	c3.344-1.123,5.723-4.096,6.087-7.604l1.787-17.238c2.031-0.697,5.834-1.506,11.01-1.506c5.172,0,8.974,0.808,11.004,1.505
	l1.79,17.24c0.364,3.508,2.744,6.479,6.087,7.602c7.527,2.528,14.38,6.496,20.369,11.794c2.646,2.339,6.412,2.917,9.636,1.476
	l15.859-7.087c1.619,1.41,4.222,4.298,6.809,8.781c2.587,4.479,3.787,8.176,4.199,10.283l-14.095,10.213
	c-2.849,2.064-4.233,5.6-3.545,9.05c0.765,3.828,1.152,7.759,1.152,11.685c0,3.969-0.396,7.941-1.177,11.808
	c-0.697,3.456,0.687,7.001,3.542,9.069l14.122,10.232c-0.411,2.107-1.612,5.804-4.2,10.285c-2.587,4.481-5.188,7.37-6.808,8.78
	l-15.979-7.141c-3.216-1.437-6.975-0.866-9.619,1.462c-5.962,5.25-12.775,9.185-20.25,11.697c-3.342,1.124-5.721,4.095-6.085,7.602
	l-1.808,17.408c-2.03,0.697-5.831,1.505-11.004,1.505c-5.176,0-8.979-0.809-11.01-1.506l-1.806-17.405
	c-0.364-3.507-2.742-6.479-6.084-7.602c-7.476-2.513-14.288-6.448-20.248-11.697c-2.643-2.328-6.4-2.9-9.619-1.463l-15.983,7.14
	c-1.618-1.41-4.219-4.298-6.807-8.779c-2.587-4.481-3.788-8.18-4.199-10.287l14.122-10.232
	C128.973,185.372,130.357,181.826,129.658,178.369z M366.274,23.999H9.226C4.255,23.999,0,27.783,0,32.754v267.788
	c0,4.971,4.255,9.458,9.226,9.458H179v23h-51.922c-4.971,0-9,4.029-9,9s4.029,9,9,9h61.039c0.07,0,0.14,0.002,0.21,0.002
	s0.14-0.002,0.21-0.002h61.04c4.971,0,9-4.029,9-9s-4.029-9-9-9H197v-23h169.274c4.971,0,8.726-4.487,8.726-9.458V32.754
	C375,27.783,371.245,23.999,366.274,23.999z M357,291.999H188.327H18v-250h339V291.999z"/>
<g>
</g>
<g>
</g>
<g>
</g>
<g>
</g>
<g>
</g>
<g>
</g>
<g>
</g>
<g>
</g>
<g>
</g>
<g>
</g>
<g>
</g>
<g>
</g>
<g>
</g>
<g>
</g>
<g>
</g>
</svg>
