<?xml version="1.0" encoding="utf-8"?>
<!-- Generator: Adobe Illustrator 22.0.1, SVG Export Plug-In . SVG Version: 6.00 Build 0)  -->
<svg version="1.1" id="Warstwa_1" xmlns="http://www.w3.org/2000/svg" xmlns:xlink="http://www.w3.org/1999/xlink" x="0px" y="0px"
	 viewBox="0 0 40 40" style="enable-background:new 0 0 40 40;" xml:space="preserve">
<g transform="translate(0,-952.36218)">
	<path style="fill:#FFFFFF;stroke:#FFFFFF;stroke-width:0.618;stroke-miterlimit:10;" d="M11,972.7c0,0.1,0.1,0.3,0.2,0.4l4.9,5.3
		c0.2,0.2,0.6,0.3,0.9,0c0.2-0.2,0.2-0.6,0-0.9l-4-4.2h16.5c0.3,0,0.6-0.3,0.6-0.6s-0.3-0.6-0.6-0.6H13l4-4.2c0.2-0.2,0.2-0.6,0-0.9
		c-0.2-0.2-0.6-0.2-0.9,0l-4.9,5.3C11,972.5,11,972.6,11,972.7z"/>
</g>
</svg>
